<?xml version="1.0" encoding="UTF-8" standalone="no"?>
<!-- Created with Inkscape (http://www.inkscape.org/) -->

<svg
   xmlns:dc="http://purl.org/dc/elements/1.1/"
   xmlns:cc="http://creativecommons.org/ns#"
   xmlns:rdf="http://www.w3.org/1999/02/22-rdf-syntax-ns#"
   xmlns:svg="http://www.w3.org/2000/svg"
   xmlns="http://www.w3.org/2000/svg"
   xmlns:sodipodi="http://sodipodi.sourceforge.net/DTD/sodipodi-0.dtd"
   xmlns:inkscape="http://www.inkscape.org/namespaces/inkscape"
   id="svg2"
   version="1.1"
   inkscape:version="0.91 r13725"
   xml:space="preserve"
   width="957.5"
   height="537.5"
   viewBox="0 0 957.5 537.5"
   sodipodi:docname="gusmao_alternative_decoding.svg"><metadata
     id="metadata8"><rdf:RDF><cc:Work
         rdf:about=""><dc:format>image/svg+xml</dc:format><dc:type
           rdf:resource="http://purl.org/dc/dcmitype/StillImage" /><dc:title></dc:title></cc:Work></rdf:RDF></metadata><defs
     id="defs6"><clipPath
       clipPathUnits="userSpaceOnUse"
       id="clipPath18"><path
         d="m 0,3.07031 7660,0 0,4296.92999 -7660,0 L 0,3.07031 Z"
         id="path20"
         inkscape:connector-curvature="0" /></clipPath><clipPath
       clipPathUnits="userSpaceOnUse"
       id="clipPath32"><path
         d="m 11.1289,13.0703 2880,0 0,4101.29 -2880,0 0,-4101.29 z"
         id="path34"
         inkscape:connector-curvature="0" /></clipPath><clipPath
       clipPathUnits="userSpaceOnUse"
       id="clipPath62"><path
         d="m 502.539,3820.96 2155.201,0 0,-3575.312 -2155.201,0 0,3575.312 z"
         id="path64"
         inkscape:connector-curvature="0" /></clipPath><clipPath
       clipPathUnits="userSpaceOnUse"
       id="clipPath96"><path
         d="m 11.1289,13.0703 2880,0 0,4101.29 -2880,0 0,-4101.29 z"
         id="path98"
         inkscape:connector-curvature="0" /></clipPath><clipPath
       clipPathUnits="userSpaceOnUse"
       id="clipPath106"><path
         d="m 3610.82,13.0703 4039.18,0 0,4218.48 -4039.18,0 0,-4218.48 z"
         id="path108"
         inkscape:connector-curvature="0" /></clipPath><clipPath
       clipPathUnits="userSpaceOnUse"
       id="clipPath162"><path
         d="m 4330.82,3943.58 3311.99,0 0,-3312.029 -3311.99,0 0,3312.029 z"
         id="path164"
         inkscape:connector-curvature="0" /></clipPath></defs><sodipodi:namedview
     pagecolor="#ffffff"
     bordercolor="#666666"
     borderopacity="1"
     objecttolerance="10"
     gridtolerance="10"
     guidetolerance="10"
     inkscape:pageopacity="0"
     inkscape:pageshadow="2"
     inkscape:window-width="1855"
     inkscape:window-height="1176"
     id="namedview4"
     showgrid="false"
     inkscape:zoom="0.62093842"
     inkscape:cx="476.68406"
     inkscape:cy="207.06172"
     inkscape:window-x="65"
     inkscape:window-y="24"
     inkscape:window-maximized="1"
     inkscape:current-layer="g10" /><g
     id="g10"
     inkscape:groupmode="layer"
     inkscape:label="gusmao_alternative_decoding"
     transform="matrix(1.25,0,0,-1.25,0,537.5)"><g
       id="g12"
       transform="scale(0.1,0.1)"><g
         id="g14"><g
           id="g16"
           clip-path="url(#clipPath18)"><g
             id="g22"
             transform="scale(10,10)"><text
               transform="matrix(1,0,0,-1,0.4125,400.714)"
               style="font-variant:normal;font-weight:bold;font-size:38.40000153px;font-family:'DejaVu Sans';-inkscape-font-specification:DejaVuSans-Bold;writing-mode:lr-tb;fill:#000000;fill-opacity:1;fill-rule:nonzero;stroke:none"
               id="text24"><tspan
                 x="0"
                 sodipodi:role="line"
                 id="tspan26"
                 y="0">a</tspan></text>
</g></g></g><g
         id="g28"><g
           id="g30"
           clip-path="url(#clipPath32)"><g
             id="g36"
             transform="scale(10,10)"><text
               transform="matrix(0,1,1,0,22.9145,30.9664)"
               style="font-variant:normal;font-size:22px;font-family:f-1;-inkscape-font-specification:f-1-0;writing-mode:lr-tb;fill:#000000;fill-opacity:1;fill-rule:nonzero;stroke:none"
               id="text38"><tspan
                 x="0 15.884 20.768 31.768 37.883999 45.53986 50.423859 62.216045 74.448044 80.564049 85.448044 97.680046 116.02809 128.26009 140.49211 154.06633 169.95033 191.95033 207.83434 212.71834 218.83434 224.29021 236.5222 243.84821 256.0802 268.31219 279.31219 291.54419 308.66019 315.98621 335.54419"
                 y="0"
                 sodipodi:role="line"
                 id="tspan40">DistributionofAUCDifferences(%)</tspan></text>
<text
               transform="matrix(1,0,0,-1,34.5766,54.9062)"
               style="font-variant:normal;font-size:18px;font-family:f-1;-inkscape-font-specification:f-1-0;writing-mode:lr-tb;fill:#000000;fill-opacity:1;fill-rule:nonzero;stroke:none"
               id="text42"><tspan
                 x="0"
                 y="0"
                 id="tspan44">0</tspan><tspan
                 x="0"
                 y="-65.819901"
                 id="tspan46">2</tspan><tspan
                 x="0"
                 y="-131.6301"
                 id="tspan48">4</tspan><tspan
                 x="0"
                 y="-197.45"
                 id="tspan50">6</tspan><tspan
                 x="0"
                 y="-263.2699"
                 id="tspan52">8</tspan></text>
<text
               transform="matrix(1,0,0,-1,76.4043,3.1061)"
               style="font-variant:normal;font-size:22px;font-family:f-1;-inkscape-font-specification:f-1-0;writing-mode:lr-tb;fill:#000000;fill-opacity:1;fill-rule:nonzero;stroke:none"
               id="text54"><tspan
                 x="0 14.674 19.558001 25.674 37.905998 45.231998 57.464001 62.348 75.195999 88.770218 101.00222 112.00222 118.11822 130.35022 138.00647 142.89047 155.12247"
                 y="0"
                 sodipodi:role="line"
                 id="tspan56">Viterbi−Posterior</tspan></text>
</g></g></g><g
         id="g58"><g
           id="g60"
           clip-path="url(#clipPath62)"><path
             d="m 502.539,613.664 2155.191,0"
             style="fill:none;stroke:#bebebe;stroke-width:7.5;stroke-linecap:round;stroke-linejoin:round;stroke-miterlimit:10;stroke-dasharray:22.5, 37.5;stroke-dashoffset:0;stroke-opacity:1"
             id="path66"
             inkscape:connector-curvature="0" /><path
             d="m 502.539,1271.86 2155.191,0"
             style="fill:none;stroke:#bebebe;stroke-width:7.5;stroke-linecap:round;stroke-linejoin:round;stroke-miterlimit:10;stroke-dasharray:22.5, 37.5;stroke-dashoffset:0;stroke-opacity:1"
             id="path68"
             inkscape:connector-curvature="0" /><path
             d="m 502.539,1930.06 2155.191,0"
             style="fill:none;stroke:#bebebe;stroke-width:7.5;stroke-linecap:round;stroke-linejoin:round;stroke-miterlimit:10;stroke-dasharray:22.5, 37.5;stroke-dashoffset:0;stroke-opacity:1"
             id="path70"
             inkscape:connector-curvature="0" /><path
             d="m 502.539,2588.16 2155.191,0"
             style="fill:none;stroke:#bebebe;stroke-width:7.5;stroke-linecap:round;stroke-linejoin:round;stroke-miterlimit:10;stroke-dasharray:22.5, 37.5;stroke-dashoffset:0;stroke-opacity:1"
             id="path72"
             inkscape:connector-curvature="0" /><path
             d="m 502.539,3246.36 2155.191,0"
             style="fill:none;stroke:#bebebe;stroke-width:7.5;stroke-linecap:round;stroke-linejoin:round;stroke-miterlimit:10;stroke-dasharray:22.5, 37.5;stroke-dashoffset:0;stroke-opacity:1"
             id="path74"
             inkscape:connector-curvature="0" /><path
             d="m 1131.13,1140.14 0,649.81 898.01,0 0,-1099.575 -898.01,0 0,449.765"
             style="fill:none;stroke:#000000;stroke-width:7.5;stroke-linecap:round;stroke-linejoin:round;stroke-miterlimit:10;stroke-dasharray:none;stroke-opacity:1"
             id="path76"
             inkscape:connector-curvature="0" /><path
             d="m 1580.16,690.375 0,-225.109"
             style="fill:none;stroke:#000000;stroke-width:7.5;stroke-linecap:round;stroke-linejoin:round;stroke-miterlimit:10;stroke-dasharray:none;stroke-opacity:1"
             id="path78"
             inkscape:connector-curvature="0" /><path
             d="m 1580.16,1789.95 0,1307.1"
             style="fill:none;stroke:#000000;stroke-width:7.5;stroke-linecap:round;stroke-linejoin:round;stroke-miterlimit:10;stroke-dasharray:none;stroke-opacity:1"
             id="path80"
             inkscape:connector-curvature="0" /><path
             d="m 1131.13,465.266 898.01,0"
             style="fill:none;stroke:#000000;stroke-width:7.5;stroke-linecap:round;stroke-linejoin:round;stroke-miterlimit:10;stroke-dasharray:none;stroke-opacity:1"
             id="path82"
             inkscape:connector-curvature="0" /><path
             d="m 1131.13,3097.05 898.01,0"
             style="fill:none;stroke:#000000;stroke-width:7.5;stroke-linecap:round;stroke-linejoin:round;stroke-miterlimit:10;stroke-dasharray:none;stroke-opacity:1"
             id="path84"
             inkscape:connector-curvature="0" /><path
             d="m 1610.16,1140.14 c 0,16.61 -13.44,30 -30,30 -16.61,0 -30,-13.39 -30,-30 0,-16.55 13.39,-30 30,-30 16.56,0 30,13.45 30,30"
             style="fill:#000000;fill-opacity:1;fill-rule:nonzero;stroke:none"
             id="path86"
             inkscape:connector-curvature="0" /><path
             d="m 1604.14,3572.56 c 0,13.24 -10.74,23.99 -23.98,23.99 -13.28,0 -24.03,-10.75 -24.03,-23.99 0,-13.24 10.75,-24.02 24.03,-24.02 13.24,0 23.98,10.78 23.98,24.02"
             style="fill:none;stroke:#000000;stroke-width:7.5;stroke-linecap:round;stroke-linejoin:round;stroke-miterlimit:10;stroke-dasharray:none;stroke-opacity:1"
             id="path88"
             inkscape:connector-curvature="0" /><path
             d="m 1604.14,3601.47 c 0,13.24 -10.74,23.98 -23.98,23.98 -13.28,0 -24.03,-10.74 -24.03,-23.98 0,-13.24 10.75,-24.02 24.03,-24.02 13.24,0 23.98,10.78 23.98,24.02"
             style="fill:none;stroke:#000000;stroke-width:7.5;stroke-linecap:round;stroke-linejoin:round;stroke-miterlimit:10;stroke-dasharray:none;stroke-opacity:1"
             id="path90"
             inkscape:connector-curvature="0" /></g></g><g
         id="g92"><g
           id="g94"
           clip-path="url(#clipPath96)"><path
             d="m 502.539,245.656 2155.2,0 0,3575.31 -2155.2,0 0,-3575.31 z"
             style="fill:none;stroke:#000000;stroke-width:7.5;stroke-linecap:round;stroke-linejoin:round;stroke-miterlimit:10;stroke-dasharray:none;stroke-opacity:1"
             id="path100"
             inkscape:connector-curvature="0" /></g></g><g
         id="g102"><g
           id="g104"
           clip-path="url(#clipPath106)"><g
             id="g110"
             transform="scale(10,10)"><text
               transform="matrix(1,0,0,-1,500.26,8.43633)"
               style="font-variant:normal;font-size:22px;font-family:f-1;-inkscape-font-specification:f-1-0;writing-mode:lr-tb;fill:#000000;fill-opacity:1;fill-rule:nonzero;stroke:none"
               id="text112"><tspan
                 x="0 13.574196 25.806196 36.806194 42.922195 55.154198 62.810078 67.694077 79.926079 93.368301 108.0423 115.3683 127.6003 139.83231 152.0643 164.2963 169.1803 174.0643 178.9483 185.0643"
                 y="0"
                 sodipodi:role="line"
                 id="tspan114">PosteriorProbability</tspan></text>
<text
               transform="matrix(0,1,1,0,387,176.793)"
               style="font-variant:normal;font-size:22px;font-family:f-1;-inkscape-font-specification:f-1-0;writing-mode:lr-tb;fill:#000000;fill-opacity:1;fill-rule:nonzero;stroke:none"
               id="text116"><tspan
                 x="0 13.442 20.768 33 45.231998 57.464001 69.695999 81.928001 92.928001"
                 y="0"
                 sodipodi:role="line"
                 id="tspan118">Frequency</tspan></text>
</g><path
             d="m 4453.52,631.555 3066.6,0"
             style="fill:none;stroke:#000000;stroke-width:7.5;stroke-linecap:round;stroke-linejoin:round;stroke-miterlimit:10;stroke-dasharray:none;stroke-opacity:1"
             id="path120"
             inkscape:connector-curvature="0" /><path
             d="m 4453.52,631.555 0,-72"
             style="fill:none;stroke:#000000;stroke-width:7.5;stroke-linecap:round;stroke-linejoin:round;stroke-miterlimit:10;stroke-dasharray:none;stroke-opacity:1"
             id="path122"
             inkscape:connector-curvature="0" /><path
             d="m 5066.8,631.555 0,-72"
             style="fill:none;stroke:#000000;stroke-width:7.5;stroke-linecap:round;stroke-linejoin:round;stroke-miterlimit:10;stroke-dasharray:none;stroke-opacity:1"
             id="path124"
             inkscape:connector-curvature="0" /><path
             d="m 5680.12,631.555 0,-72"
             style="fill:none;stroke:#000000;stroke-width:7.5;stroke-linecap:round;stroke-linejoin:round;stroke-miterlimit:10;stroke-dasharray:none;stroke-opacity:1"
             id="path126"
             inkscape:connector-curvature="0" /><path
             d="m 6293.52,631.555 0,-72"
             style="fill:none;stroke:#000000;stroke-width:7.5;stroke-linecap:round;stroke-linejoin:round;stroke-miterlimit:10;stroke-dasharray:none;stroke-opacity:1"
             id="path128"
             inkscape:connector-curvature="0" /><path
             d="m 6906.8,631.555 0,-72"
             style="fill:none;stroke:#000000;stroke-width:7.5;stroke-linecap:round;stroke-linejoin:round;stroke-miterlimit:10;stroke-dasharray:none;stroke-opacity:1"
             id="path130"
             inkscape:connector-curvature="0" /><path
             d="m 7520.12,631.555 0,-72"
             style="fill:none;stroke:#000000;stroke-width:7.5;stroke-linecap:round;stroke-linejoin:round;stroke-miterlimit:10;stroke-dasharray:none;stroke-opacity:1"
             id="path132"
             inkscape:connector-curvature="0" /><g
             id="g134"
             transform="scale(10,10)"><text
               transform="matrix(1,0,0,-1,432.841,37.2363)"
               style="font-variant:normal;font-size:18px;font-family:f-1;-inkscape-font-specification:f-1-0;writing-mode:lr-tb;fill:#000000;fill-opacity:1;fill-rule:nonzero;stroke:none"
               id="text136"><tspan
                 x="0 10.008 15.012 61.32996 71.337959 76.341957 122.65992 132.66792 137.67192 183.9996 194.0076 199.0116 245.32956 255.33755 260.34155 306.65988 316.66788 321.67188"
                 y="0"
                 sodipodi:role="line"
                 id="tspan138">0.00.20.40.60.81.0</tspan></text>
</g><path
             d="m 4330.82,754.246 0,2665.814"
             style="fill:none;stroke:#000000;stroke-width:7.5;stroke-linecap:round;stroke-linejoin:round;stroke-miterlimit:10;stroke-dasharray:none;stroke-opacity:1"
             id="path140"
             inkscape:connector-curvature="0" /><path
             d="m 4330.82,754.246 -72.03,0"
             style="fill:none;stroke:#000000;stroke-width:7.5;stroke-linecap:round;stroke-linejoin:round;stroke-miterlimit:10;stroke-dasharray:none;stroke-opacity:1"
             id="path142"
             inkscape:connector-curvature="0" /><path
             d="m 4330.82,1420.66 -72.03,0"
             style="fill:none;stroke:#000000;stroke-width:7.5;stroke-linecap:round;stroke-linejoin:round;stroke-miterlimit:10;stroke-dasharray:none;stroke-opacity:1"
             id="path144"
             inkscape:connector-curvature="0" /><path
             d="m 4330.82,2087.18 -72.03,0"
             style="fill:none;stroke:#000000;stroke-width:7.5;stroke-linecap:round;stroke-linejoin:round;stroke-miterlimit:10;stroke-dasharray:none;stroke-opacity:1"
             id="path146"
             inkscape:connector-curvature="0" /><path
             d="m 4330.82,2753.59 -72.03,0"
             style="fill:none;stroke:#000000;stroke-width:7.5;stroke-linecap:round;stroke-linejoin:round;stroke-miterlimit:10;stroke-dasharray:none;stroke-opacity:1"
             id="path148"
             inkscape:connector-curvature="0" /><path
             d="m 4330.82,3420.06 -72.03,0"
             style="fill:none;stroke:#000000;stroke-width:7.5;stroke-linecap:round;stroke-linejoin:round;stroke-miterlimit:10;stroke-dasharray:none;stroke-opacity:1"
             id="path150"
             inkscape:connector-curvature="0" /><g
             id="g152"
             transform="scale(10,10)"><text
               transform="matrix(0,1,1,0,415.8,70.4223)"
               style="font-variant:normal;font-size:18px;font-family:f-1;-inkscape-font-specification:f-1-0;writing-mode:lr-tb;fill:#000000;fill-opacity:1;fill-rule:nonzero;stroke:none"
               id="text154"><tspan
                 x="0 51.628502 61.636501 71.644501 81.652496 118.27836 128.28636 138.29436 148.30235 184.91795 194.92596 204.93396 214.94196 251.56783 261.57581 271.58383 281.59183"
                 y="0"
                 sodipodi:role="line"
                 id="tspan156">02000400060008000</tspan></text>
</g></g></g><g
         id="g158"><g
           id="g160"
           clip-path="url(#clipPath162)"><path
             d="m 4453.52,754.246 153.281,0 0,3066.72 -153.281,0 0,-3066.72 z"
             style="fill:none;stroke:#000000;stroke-width:7.5;stroke-linecap:round;stroke-linejoin:round;stroke-miterlimit:10;stroke-dasharray:none;stroke-opacity:1"
             id="path166"
             inkscape:connector-curvature="0" /><path
             d="m 4606.8,754.246 153.32,0 0,10.3086 -153.32,0 0,-10.3086 z"
             style="fill:none;stroke:#000000;stroke-width:7.5;stroke-linecap:round;stroke-linejoin:round;stroke-miterlimit:10;stroke-dasharray:none;stroke-opacity:1"
             id="path168"
             inkscape:connector-curvature="0" /><path
             d="m 4760.12,754.254 153.277,0 0,7.30078 -153.277,0 0,-7.30078 z"
             style="fill:none;stroke:#000000;stroke-width:7.5;stroke-linecap:round;stroke-linejoin:round;stroke-miterlimit:10;stroke-dasharray:none;stroke-opacity:1"
             id="path170"
             inkscape:connector-curvature="0" /><path
             d="m 4913.52,754.246 153.281,0 0,11.3281 -153.281,0 0,-11.3281 z"
             style="fill:none;stroke:#000000;stroke-width:7.5;stroke-linecap:round;stroke-linejoin:round;stroke-miterlimit:10;stroke-dasharray:none;stroke-opacity:1"
             id="path172"
             inkscape:connector-curvature="0" /><path
             d="m 5066.8,754.254 153.32,0 0,9.01953 -153.32,0 0,-9.01953 z"
             style="fill:none;stroke:#000000;stroke-width:7.5;stroke-linecap:round;stroke-linejoin:round;stroke-miterlimit:10;stroke-dasharray:none;stroke-opacity:1"
             id="path174"
             inkscape:connector-curvature="0" /><path
             d="m 5220.12,754.246 153.277,0 0,4.33984 -153.277,0 0,-4.33984 z"
             style="fill:none;stroke:#000000;stroke-width:7.5;stroke-linecap:round;stroke-linejoin:round;stroke-miterlimit:10;stroke-dasharray:none;stroke-opacity:1"
             id="path176"
             inkscape:connector-curvature="0" /><path
             d="m 5373.52,754.246 153.281,0 0,3.31641 -153.281,0 0,-3.31641 z"
             style="fill:none;stroke:#000000;stroke-width:7.5;stroke-linecap:round;stroke-linejoin:round;stroke-miterlimit:10;stroke-dasharray:none;stroke-opacity:1"
             id="path178"
             inkscape:connector-curvature="0" /><path
             d="m 5526.8,754.254 153.32,0 0,2.73047 -153.32,0 0,-2.73047 z"
             style="fill:none;stroke:#000000;stroke-width:7.5;stroke-linecap:round;stroke-linejoin:round;stroke-miterlimit:10;stroke-dasharray:none;stroke-opacity:1"
             id="path180"
             inkscape:connector-curvature="0" /><path
             d="m 5680.12,754.246 153.277,0 0,1.32812 -153.277,0 0,-1.32812 z"
             style="fill:none;stroke:#000000;stroke-width:7.5;stroke-linecap:round;stroke-linejoin:round;stroke-miterlimit:10;stroke-dasharray:none;stroke-opacity:1"
             id="path182"
             inkscape:connector-curvature="0" /><path
             d="m 5833.52,754.246 153.281,0 0,3.00781 -153.281,0 0,-3.00781 z"
             style="fill:none;stroke:#000000;stroke-width:7.5;stroke-linecap:round;stroke-linejoin:round;stroke-miterlimit:10;stroke-dasharray:none;stroke-opacity:1"
             id="path184"
             inkscape:connector-curvature="0" /><path
             d="m 5986.8,754.254 153.32,0 0,2.30078 -153.32,0 0,-2.30078 z"
             style="fill:none;stroke:#000000;stroke-width:7.5;stroke-linecap:round;stroke-linejoin:round;stroke-miterlimit:10;stroke-dasharray:none;stroke-opacity:1"
             id="path186"
             inkscape:connector-curvature="0" /><path
             d="m 6140.12,754.254 153.277,0 0,2.30078 -153.277,0 0,-2.30078 z"
             style="fill:none;stroke:#000000;stroke-width:7.5;stroke-linecap:round;stroke-linejoin:round;stroke-miterlimit:10;stroke-dasharray:none;stroke-opacity:1"
             id="path188"
             inkscape:connector-curvature="0" /><path
             d="m 6293.52,754.254 153.281,0 0,7.30078 -153.281,0 0,-7.30078 z"
             style="fill:none;stroke:#000000;stroke-width:7.5;stroke-linecap:round;stroke-linejoin:round;stroke-miterlimit:10;stroke-dasharray:none;stroke-opacity:1"
             id="path190"
             inkscape:connector-curvature="0" /><path
             d="m 6446.8,754.254 153.32,0 0,9.01953 -153.32,0 0,-9.01953 z"
             style="fill:none;stroke:#000000;stroke-width:7.5;stroke-linecap:round;stroke-linejoin:round;stroke-miterlimit:10;stroke-dasharray:none;stroke-opacity:1"
             id="path192"
             inkscape:connector-curvature="0" /><path
             d="m 6600.12,754.246 153.277,0 0,2.02734 -153.277,0 0,-2.02734 z"
             style="fill:none;stroke:#000000;stroke-width:7.5;stroke-linecap:round;stroke-linejoin:round;stroke-miterlimit:10;stroke-dasharray:none;stroke-opacity:1"
             id="path194"
             inkscape:connector-curvature="0" /><path
             d="m 6753.52,754.254 153.281,0 0,2.30078 -153.281,0 0,-2.30078 z"
             style="fill:none;stroke:#000000;stroke-width:7.5;stroke-linecap:round;stroke-linejoin:round;stroke-miterlimit:10;stroke-dasharray:none;stroke-opacity:1"
             id="path196"
             inkscape:connector-curvature="0" /><path
             d="m 6906.8,754.246 153.32,0 0,1.01953 -153.32,0 0,-1.01953 z"
             style="fill:none;stroke:#000000;stroke-width:7.5;stroke-linecap:round;stroke-linejoin:round;stroke-miterlimit:10;stroke-dasharray:none;stroke-opacity:1"
             id="path198"
             inkscape:connector-curvature="0" /><path
             d="m 7060.12,754.246 153.277,0 0,5 -153.277,0 0,-5 z"
             style="fill:none;stroke:#000000;stroke-width:7.5;stroke-linecap:round;stroke-linejoin:round;stroke-miterlimit:10;stroke-dasharray:none;stroke-opacity:1"
             id="path200"
             inkscape:connector-curvature="0" /><path
             d="m 7213.52,754.246 153.281,0 0,11.0195 -153.281,0 0,-11.0195 z"
             style="fill:none;stroke:#000000;stroke-width:7.5;stroke-linecap:round;stroke-linejoin:round;stroke-miterlimit:10;stroke-dasharray:none;stroke-opacity:1"
             id="path202"
             inkscape:connector-curvature="0" /><path
             d="m 7366.8,754.254 153.32,0 0,170.621 -153.32,0 0,-170.621 z"
             style="fill:none;stroke:#000000;stroke-width:7.5;stroke-linecap:round;stroke-linejoin:round;stroke-miterlimit:10;stroke-dasharray:none;stroke-opacity:1"
             id="path204"
             inkscape:connector-curvature="0" /></g></g></g><text
       y="-398.88867"
       x="365.28403"
       style="font-variant:normal;font-weight:bold;font-size:38.40000153px;font-family:'DejaVu Sans';-inkscape-font-specification:DejaVuSans-Bold;writing-mode:lr-tb;fill:#000000;fill-opacity:1;fill-rule:nonzero;stroke:none"
       id="text24-7"
       transform="scale(1,-1)"><tspan
         x="365.28403"
         sodipodi:role="line"
         id="tspan26-5"
         y="-398.88867">b</tspan></text>
</g></svg>