<?xml version="1.0" encoding="UTF-8" standalone="no"?>
<!-- Created with Inkscape (http://www.inkscape.org/) -->

<svg
   xmlns:dc="http://purl.org/dc/elements/1.1/"
   xmlns:cc="http://creativecommons.org/ns#"
   xmlns:rdf="http://www.w3.org/1999/02/22-rdf-syntax-ns#"
   xmlns:svg="http://www.w3.org/2000/svg"
   xmlns="http://www.w3.org/2000/svg"
   xmlns:sodipodi="http://sodipodi.sourceforge.net/DTD/sodipodi-0.dtd"
   xmlns:inkscape="http://www.inkscape.org/namespaces/inkscape"
   id="svg2"
   version="1.1"
   inkscape:version="0.91 r13725"
   xml:space="preserve"
   width="997.35156"
   height="422.08002"
   viewBox="0 0 997.35156 422.08002"
   sodipodi:docname="gusmao_alternative_topologies.svg"><metadata
     id="metadata8"><rdf:RDF><cc:Work
         rdf:about=""><dc:format>image/svg+xml</dc:format><dc:type
           rdf:resource="http://purl.org/dc/dcmitype/StillImage" /><dc:title></dc:title></cc:Work></rdf:RDF></metadata><defs
     id="defs6"><clipPath
       clipPathUnits="userSpaceOnUse"
       id="clipPath18"><path
         d="m 0,2.41016 7970,0 0,3117.59004 -7970,0 L 0,2.41016 Z"
         id="path20"
         inkscape:connector-curvature="0" /></clipPath></defs><sodipodi:namedview
     pagecolor="#ffffff"
     bordercolor="#666666"
     borderopacity="1"
     objecttolerance="10"
     gridtolerance="10"
     guidetolerance="10"
     inkscape:pageopacity="0"
     inkscape:pageshadow="2"
     inkscape:window-width="1855"
     inkscape:window-height="1176"
     id="namedview4"
     showgrid="false"
     fit-margin-top="1"
     fit-margin-right="1"
     fit-margin-bottom="1"
     fit-margin-left="1"
     inkscape:zoom="0.95759097"
     inkscape:cx="340.02469"
     inkscape:cy="240.4291"
     inkscape:window-x="65"
     inkscape:window-y="24"
     inkscape:window-maximized="1"
     inkscape:current-layer="g10" /><g
     id="g10"
     inkscape:groupmode="layer"
     inkscape:label="gusmao_alternative_topologies"
     transform="matrix(1.25,0,0,-1.25,0.9901438,422.32759)"><g
       id="g12"
       transform="scale(0.1,0.1)"><g
         id="g14"><g
           id="g16"
           clip-path="url(#clipPath18)"><path
             d="m 1320.23,2470.96 c 0,-132.93 -107.73,-240.66 -240.62,-240.66 -132.93,0 -240.661,107.73 -240.661,240.66 0,132.89 107.731,240.63 240.661,240.63 132.89,0 240.62,-107.74 240.62,-240.63 z"
             style="fill:#ffffff;fill-opacity:1;fill-rule:nonzero;stroke:none"
             id="path22"
             inkscape:connector-curvature="0" /><path
             d="m 1320.23,2470.96 c 0,-132.93 -107.73,-240.66 -240.62,-240.66 -132.93,0 -240.661,107.73 -240.661,240.66 0,132.9 107.731,240.63 240.661,240.63 132.89,0 240.62,-107.73 240.62,-240.63 z"
             style="fill:none;stroke:#323232;stroke-width:46.25759888;stroke-linecap:butt;stroke-linejoin:miter;stroke-miterlimit:4;stroke-dasharray:none;stroke-opacity:1"
             id="path24"
             inkscape:connector-curvature="0" /><g
             id="g26"
             transform="scale(10,10)"><text
               transform="matrix(1,0,0,-1,89.875,242.435)"
               style="font-variant:normal;font-weight:normal;font-size:12.80000019px;font-family:'DejaVu Sans';-inkscape-font-specification:DejaVuSans;writing-mode:lr-tb;fill:#000000;fill-opacity:1;fill-rule:nonzero;stroke:none"
               id="text28"><tspan
                 x="0 8.7807999 17.292641 26.239931"
                 y="0"
                 sodipodi:role="line"
                 id="tspan30">BACK</tspan></text>
</g><path
             d="m 924.379,2469.68 0,-34.85 20.461,0 c 6.961,0 12.07,1.41 15.32,4.22 3.32,2.89 5,7.34 5,13.28 0,5.94 -1.68,10.31 -5,13.13 -3.25,2.81 -8.359,4.22 -15.32,4.22 l -20.461,0 z m 0,38.9 0,-28.59 18.902,0 c 6.25,0 10.86,1.13 13.91,3.44 3.118,2.38 4.688,6.01 4.688,10.93 0,4.77 -1.57,8.32 -4.688,10.63 -3.05,2.38 -7.66,3.59 -13.91,3.59 l -18.902,0 z m -12.82,10.63 32.66,0 c 9.761,0 17.34,-2.03 22.66,-6.1 5.312,-4.06 7.961,-9.84 7.961,-17.34 0,-5.86 -1.36,-10.47 -4.059,-13.91 -2.73,-3.43 -6.722,-5.58 -12.031,-6.4 6.328,-1.37 11.25,-4.18 14.691,-8.44 3.508,-4.3 5.309,-9.65 5.309,-16.09 0,-8.44 -2.93,-15 -8.75,-19.69 -5.738,-4.61 -13.91,-6.88 -24.531,-6.88 l -33.91,0 0,94.85 z m 119.301,-12.66 -17.34,-47.19 34.84,0 -17.5,47.19 z m -7.19,12.66 14.53,0 36.1,-94.85 -13.28,0 -8.6,24.38 -42.81,0 -8.59,-24.38 -13.442,0 36.092,94.85 z m 131.84,-7.35 0,-13.59 c -4.38,4.06 -9.03,7.07 -13.91,9.06 -4.8,1.96 -9.96,2.97 -15.47,2.97 -10.86,0 -19.18,-3.36 -25,-10 -5.74,-6.56 -8.59,-16.09 -8.59,-28.59 0,-12.5 2.85,-22.11 8.59,-28.75 5.82,-6.57 14.14,-9.85 25,-9.85 5.51,0 10.67,0.98 15.47,2.97 4.88,1.95 9.53,4.92 13.91,8.91 l 0,-13.28 c -4.49,-3.13 -9.22,-5.47 -14.22,-7.03 -5,-1.45 -10.31,-2.19 -15.94,-2.19 -14.37,0 -25.7,4.37 -33.9,13.12 -8.25,8.83 -12.35,20.86 -12.35,36.1 0,15.19 4.1,27.18 12.35,35.93 8.2,8.83 19.53,13.29 33.9,13.29 5.63,0 10.94,-0.79 15.94,-2.35 5.08,-1.48 9.84,-3.71 14.22,-6.72 z m 18.55,7.35 12.82,0 0,-40.16 42.5,40.16 16.56,0 -47.03,-44.22 50.31,-50.63 -16.88,0 -45.46,45.63 0,-45.63 -12.82,0 0,94.85 z"
             style="fill:none;stroke:#ffffff;stroke-width:2.31288004;stroke-linecap:butt;stroke-linejoin:miter;stroke-miterlimit:4;stroke-dasharray:none;stroke-opacity:1"
             id="path32"
             inkscape:connector-curvature="0" /><path
             d="m 545.66,1738.78 c 0,-132.93 -107.73,-240.67 -240.66,-240.67 -132.891,0 -240.6211,107.74 -240.6211,240.67 0,132.89 107.7301,240.62 240.6211,240.62 132.93,0 240.66,-107.73 240.66,-240.62 z"
             style="fill:#ffffff;fill-opacity:1;fill-rule:nonzero;stroke:none"
             id="path34"
             inkscape:connector-curvature="0" /><path
             d="m 545.66,1738.78 c 0,-132.93 -107.73,-240.67 -240.66,-240.67 -132.891,0 -240.6211,107.74 -240.6211,240.67 0,132.89 107.7301,240.62 240.6211,240.62 132.93,0 240.66,-107.73 240.66,-240.62 z"
             style="fill:none;stroke:#6efa6e;stroke-width:46.25759888;stroke-linecap:butt;stroke-linejoin:miter;stroke-miterlimit:4;stroke-dasharray:none;stroke-opacity:1"
             id="path36"
             inkscape:connector-curvature="0" /><g
             id="g38"
             transform="scale(10,10)"><text
               transform="matrix(1,0,0,-1,21.6168,169.301)"
               style="font-variant:normal;font-weight:normal;font-size:12.80000019px;font-family:'DejaVu Sans';-inkscape-font-specification:DejaVuSans;writing-mode:lr-tb;fill:#000000;fill-opacity:1;fill-rule:nonzero;stroke:none"
               id="text40"><tspan
                 x="0 9.3696003"
                 y="0"
                 sodipodi:role="line"
                 id="tspan42">UP</tspan></text>
</g><path
             d="m 227.422,1787.84 12.969,0 0,-57.66 c 0,-10.11 1.8,-17.42 5.468,-21.87 3.629,-4.49 9.61,-6.72 17.969,-6.72 8.203,0 14.141,2.23 17.813,6.72 3.629,4.45 5.468,11.76 5.468,21.87 l 0,57.66 12.969,0 0,-59.22 c 0,-12.42 -3.09,-21.8 -9.219,-28.12 -6.168,-6.25 -15.16,-9.38 -27.031,-9.38 -11.988,0 -21.058,3.13 -27.187,9.38 -6.172,6.32 -9.219,15.7 -9.219,28.12 l 0,59.22 z m 108.129,-10.63 0,-35.62 16.09,0 c 5.937,0 10.507,1.56 13.75,4.69 3.32,3.12 5,7.5 5,13.12 0,5.71 -1.68,10.08 -5,13.13 -3.243,3.12 -7.813,4.68 -13.75,4.68 l -16.09,0 z m -12.821,10.63 28.911,0 c 10.629,0 18.629,-2.46 24.058,-7.34 5.391,-4.81 8.129,-11.84 8.129,-21.1 0,-9.29 -2.738,-16.33 -8.129,-21.09 -5.429,-4.81 -13.429,-7.19 -24.058,-7.19 l -16.09,0 0,-38.12 -12.821,0 0,94.84 z"
             style="fill:none;stroke:#ffffff;stroke-width:2.31288004;stroke-linecap:butt;stroke-linejoin:miter;stroke-miterlimit:4;stroke-dasharray:none;stroke-opacity:1"
             id="path44"
             inkscape:connector-curvature="0" /><path
             d="m 1320.47,1738.78 c 0,-132.93 -107.74,-240.67 -240.63,-240.67 -132.93,0 -240.66,107.74 -240.66,240.67 0,132.89 107.73,240.62 240.66,240.62 132.89,0 240.63,-107.73 240.63,-240.62 z"
             style="fill:#ffffff;fill-opacity:1;fill-rule:nonzero;stroke:none"
             id="path46"
             inkscape:connector-curvature="0" /><path
             d="m 1320.47,1738.78 c 0,-132.93 -107.74,-240.67 -240.63,-240.67 -132.93,0 -240.66,107.74 -240.66,240.67 0,132.89 107.73,240.62 240.66,240.62 132.89,0 240.63,-107.73 240.63,-240.62 z"
             style="fill:none;stroke:#5ab4f0;stroke-width:46.25759888;stroke-linecap:butt;stroke-linejoin:miter;stroke-miterlimit:4;stroke-dasharray:none;stroke-opacity:1"
             id="path48"
             inkscape:connector-curvature="0" /><g
             id="g50"
             transform="scale(10,10)"><text
               transform="matrix(1,0,0,-1,95.4105,169.216)"
               style="font-variant:normal;font-weight:normal;font-size:12.80000019px;font-family:'DejaVu Sans';-inkscape-font-specification:DejaVuSans;writing-mode:lr-tb;fill:#000000;fill-opacity:1;fill-rule:nonzero;stroke:none"
               id="text52"><tspan
                 x="0 7.8207998 17.8944"
                 y="0"
                 sodipodi:role="line"
                 id="tspan54">TOP</tspan></text>
</g><path
             d="m 953.789,1787.02 80.161,0 0,-10.94 -33.75,0 0,-83.9 -12.821,0 0,83.9 -33.59,0 0,10.94 z m 129.801,-8.75 c -9.37,0 -16.83,-3.52 -22.34,-10.47 -5.43,-6.87 -8.13,-16.33 -8.13,-28.28 0,-11.99 2.7,-21.49 8.13,-28.44 5.51,-6.87 12.97,-10.31 22.34,-10.31 9.26,0 16.61,3.44 22.03,10.31 5.51,6.95 8.29,16.45 8.29,28.44 0,11.95 -2.78,21.41 -8.29,28.28 -5.42,6.95 -12.77,10.47 -22.03,10.47 z m 0,10.47 c 13.21,0 23.79,-4.49 31.72,-13.44 8.01,-8.98 12.03,-20.9 12.03,-35.78 0,-15 -4.02,-26.99 -12.03,-35.94 -7.93,-8.87 -18.51,-13.28 -31.72,-13.28 -13.36,0 -24.02,4.41 -32.03,13.28 -7.93,8.95 -11.87,20.94 -11.87,35.94 0,14.88 3.94,26.8 11.87,35.78 8.01,8.95 18.67,13.44 32.03,13.44 z m 75.16,-12.35 0,-35.62 16.09,0 c 5.94,0 10.51,1.56 13.75,4.69 3.32,3.12 5,7.5 5,13.12 0,5.71 -1.68,10.08 -5,13.13 -3.24,3.12 -7.81,4.68 -13.75,4.68 l -16.09,0 z m -12.81,10.63 28.9,0 c 10.63,0 18.64,-2.46 24.07,-7.34 5.39,-4.81 8.12,-11.84 8.12,-21.1 0,-9.29 -2.73,-16.33 -8.12,-21.09 -5.43,-4.81 -13.44,-7.19 -24.07,-7.19 l -16.09,0 0,-38.12 -12.81,0 0,94.84 z"
             style="fill:none;stroke:#ffffff;stroke-width:2.31288004;stroke-linecap:butt;stroke-linejoin:miter;stroke-miterlimit:4;stroke-dasharray:none;stroke-opacity:1"
             id="path56"
             inkscape:connector-curvature="0" /><path
             d="m 2095.27,1738.78 c 0,-132.93 -107.73,-240.67 -240.62,-240.67 -132.93,0 -240.67,107.74 -240.67,240.67 0,132.89 107.74,240.62 240.67,240.62 132.89,0 240.62,-107.73 240.62,-240.62 z"
             style="fill:#ffffff;fill-opacity:1;fill-rule:nonzero;stroke:none"
             id="path58"
             inkscape:connector-curvature="0" /><path
             d="m 2095.27,1738.78 c 0,-132.93 -107.73,-240.67 -240.62,-240.67 -132.93,0 -240.67,107.74 -240.67,240.67 0,132.89 107.74,240.62 240.67,240.62 132.89,0 240.62,-107.73 240.62,-240.62 z"
             style="fill:none;stroke:#ff505a;stroke-width:46.25759888;stroke-linecap:butt;stroke-linejoin:miter;stroke-miterlimit:4;stroke-dasharray:none;stroke-opacity:1"
             id="path60"
             inkscape:connector-curvature="0" /><g
             id="g62"
             transform="scale(10,10)"><text
               transform="matrix(1,0,0,-1,164.389,169.216)"
               style="font-variant:normal;font-weight:normal;font-size:12.80000019px;font-family:'DejaVu Sans';-inkscape-font-specification:DejaVuSans;writing-mode:lr-tb;fill:#000000;fill-opacity:1;fill-rule:nonzero;stroke:none"
               id="text64"><tspan
                 x="0 9.8559999 19.9296 32.588799"
                 y="0"
                 sodipodi:role="line"
                 id="tspan66">DOWN</tspan></text>
</g><path
             d="m 1669.53,1776.39 0,-73.75 15.47,0 c 13.01,0 22.54,2.97 28.59,8.91 6.14,5.94 9.22,15.31 9.22,28.13 0,12.69 -3.08,21.95 -9.22,27.81 -6.05,5.94 -15.58,8.9 -28.59,8.9 l -15.47,0 z m -12.81,10.63 26.25,0 c 18.44,0 31.91,-3.87 40.47,-11.56 8.63,-7.62 12.97,-19.53 12.97,-35.78 0,-16.37 -4.34,-28.4 -12.97,-36.1 -8.67,-7.62 -22.15,-11.4 -40.47,-11.4 l -26.25,0 0,94.84 z m 136.91,-8.75 c -9.37,0 -16.83,-3.52 -22.34,-10.47 -5.43,-6.87 -8.13,-16.33 -8.13,-28.28 0,-11.99 2.7,-21.49 8.13,-28.44 5.51,-6.87 12.97,-10.31 22.34,-10.31 9.26,0 16.6,3.44 22.03,10.31 5.51,6.95 8.29,16.45 8.29,28.44 0,11.95 -2.78,21.41 -8.29,28.28 -5.43,6.95 -12.77,10.47 -22.03,10.47 z m 0,10.47 c 13.21,0 23.79,-4.49 31.72,-13.44 8.01,-8.98 12.03,-20.9 12.03,-35.78 0,-15 -4.02,-26.99 -12.03,-35.94 -7.93,-8.87 -18.51,-13.28 -31.72,-13.28 -13.36,0 -24.02,4.41 -32.03,13.28 -7.93,8.95 -11.87,20.94 -11.87,35.94 0,14.88 3.94,26.8 11.87,35.78 8.01,8.95 18.67,13.44 32.03,13.44 z m 53.87,-1.72 12.97,0 19.84,-80.16 19.85,80.16 14.37,0 20,-80.16 19.85,80.16 12.96,0 -23.75,-94.84 -16.09,0 -20,82.34 -20.16,-82.34 -16.09,0 -23.75,94.84 z m 134.96,0 17.19,0 42.03,-79.38 0,79.38 12.5,0 0,-94.84 -17.34,0 -42.04,79.21 0,-79.21 -12.34,0 0,94.84 z"
             style="fill:none;stroke:#ffffff;stroke-width:2.31288004;stroke-linecap:butt;stroke-linejoin:miter;stroke-miterlimit:4;stroke-dasharray:none;stroke-opacity:1"
             id="path68"
             inkscape:connector-curvature="0" /><path
             d="m 545.738,1006.55 c 0,-132.89 -107.726,-240.628 -240.66,-240.628 -132.887,0 -240.6288,107.738 -240.6288,240.628 0,132.93 107.7418,240.66 240.6288,240.66 132.934,0 240.66,-107.73 240.66,-240.66 z"
             style="fill:#ffffff;fill-opacity:1;fill-rule:nonzero;stroke:none"
             id="path70"
             inkscape:connector-curvature="0" /><path
             d="m 545.738,1006.55 c 0,-132.89 -107.726,-240.62 -240.66,-240.62 -132.887,0 -240.6288,107.73 -240.6288,240.62 0,132.93 107.7418,240.66 240.6288,240.66 132.934,0 240.66,-107.73 240.66,-240.66 z"
             style="fill:none;stroke:#961428;stroke-width:46.25759888;stroke-linecap:butt;stroke-linejoin:miter;stroke-miterlimit:4;stroke-dasharray:none;stroke-opacity:1"
             id="path72"
             inkscape:connector-curvature="0" /><g
             id="g74"
             transform="scale(10,10)"><text
               transform="matrix(1,0,0,-1,9.43477,95.9977)"
               style="font-variant:normal;font-weight:normal;font-size:12.80000019px;font-family:'DejaVu Sans';-inkscape-font-specification:DejaVuSans;writing-mode:lr-tb;fill:#000000;fill-opacity:1;fill-rule:nonzero;stroke:none"
               id="text76"><tspan
                 x="0 9.8559999 19.9296 32.588799"
                 y="0"
                 sodipodi:role="line"
                 id="tspan78">DOWN</tspan></text>
</g><path
             d="m 119.961,1044.21 0,-73.749 15.469,0 c 13.011,0 22.539,2.969 28.59,8.898 6.14,5.942 9.218,15.321 9.218,28.131 0,12.69 -3.078,21.95 -9.218,27.81 -6.051,5.94 -15.579,8.91 -28.59,8.91 l -15.469,0 z m -12.813,10.62 26.25,0 c 18.442,0 31.911,-3.87 40.473,-11.56 8.629,-7.62 12.969,-19.53 12.969,-35.78 0,-16.369 -4.34,-28.4 -12.969,-36.099 -8.672,-7.614 -22.152,-11.403 -40.473,-11.403 l -26.25,0 0,94.842 z m 136.954,-8.75 c -9.372,0 -16.832,-3.51 -22.34,-10.47 -5.434,-6.87 -8.133,-16.32 -8.133,-28.28 0,-11.99 2.699,-21.482 8.133,-28.439 5.508,-6.871 12.968,-10.313 22.34,-10.313 9.257,0 16.597,3.442 22.027,10.313 5.512,6.957 8.281,16.449 8.281,28.439 0,11.96 -2.769,21.41 -8.281,28.28 -5.43,6.96 -12.77,10.47 -22.027,10.47 z m 0,10.47 c 13.199,0 23.789,-4.49 31.718,-13.44 8.008,-8.98 12.032,-20.9 12.032,-35.78 0,-15.002 -4.024,-26.99 -12.032,-35.939 -7.929,-8.864 -18.519,-13.282 -31.718,-13.282 -13.364,0 -24.024,4.418 -32.032,13.282 -7.929,8.949 -11.871,20.937 -11.871,35.939 0,14.88 3.942,26.8 11.871,35.78 8.008,8.95 18.668,13.44 32.032,13.44 z m 53.867,-1.72 12.972,0 19.84,-80.15 19.84,80.15 14.379,0 20,-80.15 19.84,80.15 12.969,0 -23.75,-94.842 -16.09,0 -20,82.342 -20.16,-82.342 -16.09,0 -23.75,94.842 z m 134.922,0 17.187,0 42.031,-79.369 0,79.369 12.5,0 0,-94.842 -17.339,0 -42.04,79.222 0,-79.222 -12.339,0 0,94.842 z"
             style="fill:none;stroke:#ffffff;stroke-width:2.31288004;stroke-linecap:butt;stroke-linejoin:miter;stroke-miterlimit:4;stroke-dasharray:none;stroke-opacity:1"
             id="path80"
             inkscape:connector-curvature="0" /><path
             d="m 1320.55,1006.55 c 0,-132.89 -107.74,-240.628 -240.63,-240.628 -132.932,0 -240.658,107.738 -240.658,240.628 0,132.93 107.726,240.66 240.658,240.66 132.89,0 240.63,-107.73 240.63,-240.66 z"
             style="fill:#ffffff;fill-opacity:1;fill-rule:nonzero;stroke:none"
             id="path82"
             inkscape:connector-curvature="0" /><path
             d="m 1320.55,1006.55 c 0,-132.89 -107.74,-240.62 -240.63,-240.62 -132.932,0 -240.658,107.73 -240.658,240.62 0,132.93 107.726,240.66 240.658,240.66 132.89,0 240.63,-107.73 240.63,-240.66 z"
             style="fill:none;stroke:#142896;stroke-width:46.25759888;stroke-linecap:butt;stroke-linejoin:miter;stroke-miterlimit:4;stroke-dasharray:none;stroke-opacity:1"
             id="path84"
             inkscape:connector-curvature="0" /><g
             id="g86"
             transform="scale(10,10)"><text
               transform="matrix(1,0,0,-1,95.4191,95.9977)"
               style="font-variant:normal;font-weight:normal;font-size:12.80000019px;font-family:'DejaVu Sans';-inkscape-font-specification:DejaVuSans;writing-mode:lr-tb;fill:#000000;fill-opacity:1;fill-rule:nonzero;stroke:none"
               id="text88"><tspan
                 x="0 7.8207998 17.8944"
                 y="0"
                 sodipodi:role="line"
                 id="tspan90">TOP</tspan></text>
</g><path
             d="m 953.871,1054.83 80.149,0 0,-10.94 -33.75,0 0,-83.902 -12.809,0 0,83.902 -33.59,0 0,10.94 z m 129.839,-8.75 c -9.37,0 -16.83,-3.51 -22.34,-10.47 -5.43,-6.87 -8.13,-16.32 -8.13,-28.28 0,-11.99 2.7,-21.482 8.13,-28.439 5.51,-6.871 12.97,-10.313 22.34,-10.313 9.26,0 16.6,3.442 22.03,10.313 5.51,6.957 8.28,16.449 8.28,28.439 0,11.96 -2.77,21.41 -8.28,28.28 -5.43,6.96 -12.77,10.47 -22.03,10.47 z m 0,10.47 c 13.2,0 23.79,-4.49 31.72,-13.44 8.01,-8.98 12.03,-20.9 12.03,-35.78 0,-15.002 -4.02,-26.99 -12.03,-35.939 -7.93,-8.864 -18.52,-13.282 -31.72,-13.282 -13.36,0 -24.02,4.418 -32.03,13.282 -7.93,8.949 -11.88,20.937 -11.88,35.939 0,14.88 3.95,26.8 11.88,35.78 8.01,8.95 18.67,13.44 32.03,13.44 z m 75.12,-12.34 0,-35.63 16.09,0 c 5.94,0 10.51,1.56 13.75,4.69 3.32,3.12 5,7.5 5,13.12 0,5.71 -1.68,10.08 -5,13.13 -3.24,3.12 -7.81,4.69 -13.75,4.69 l -16.09,0 z m -12.81,10.62 28.9,0 c 10.63,0 18.63,-2.46 24.06,-7.34 5.4,-4.81 8.13,-11.84 8.13,-21.1 0,-9.29 -2.73,-16.32 -8.13,-21.09 -5.43,-4.8 -13.43,-7.191 -24.06,-7.191 l -16.09,0 0,-38.121 -12.81,0 0,94.842 z"
             style="fill:none;stroke:#ffffff;stroke-width:2.31288004;stroke-linecap:butt;stroke-linejoin:miter;stroke-miterlimit:4;stroke-dasharray:none;stroke-opacity:1"
             id="path92"
             inkscape:connector-curvature="0" /><path
             d="m 2095.35,1006.55 c 0,-132.89 -107.73,-240.628 -240.62,-240.628 -132.89,0 -240.67,107.738 -240.67,240.628 0,132.93 107.78,240.66 240.67,240.66 132.89,0 240.62,-107.73 240.62,-240.66 z"
             style="fill:#ffffff;fill-opacity:1;fill-rule:nonzero;stroke:none"
             id="path94"
             inkscape:connector-curvature="0" /><path
             d="m 2095.35,1006.55 c 0,-132.89 -107.73,-240.62 -240.62,-240.62 -132.89,0 -240.67,107.73 -240.67,240.62 0,132.93 107.78,240.66 240.67,240.66 132.89,0 240.62,-107.73 240.62,-240.66 z"
             style="fill:none;stroke:#0a5000;stroke-width:46.25759888;stroke-linecap:butt;stroke-linejoin:miter;stroke-miterlimit:4;stroke-dasharray:none;stroke-opacity:1"
             id="path96"
             inkscape:connector-curvature="0" /><g
             id="g98"
             transform="scale(10,10)"><text
               transform="matrix(1,0,0,-1,176.588,96.082)"
               style="font-variant:normal;font-weight:normal;font-size:12.80000019px;font-family:'DejaVu Sans';-inkscape-font-specification:DejaVuSans;writing-mode:lr-tb;fill:#000000;fill-opacity:1;fill-rule:nonzero;stroke:none"
               id="text100"><tspan
                 x="0 9.3696003"
                 y="0"
                 sodipodi:role="line"
                 id="tspan102">UP</tspan></text>
</g><path
             d="m 1777.15,1055.65 12.97,0 0,-57.65 c 0,-10.121 1.79,-17.43 5.47,-21.879 3.63,-4.492 9.61,-6.723 17.96,-6.723 8.21,0 14.15,2.231 17.82,6.723 3.63,4.449 5.47,11.758 5.47,21.879 l 0,57.65 12.96,0 0,-59.22 c 0,-12.422 -3.08,-21.789 -9.21,-28.121 -6.18,-6.25 -15.16,-9.379 -27.04,-9.379 -11.99,0 -21.05,3.129 -27.18,9.379 -6.17,6.332 -9.22,15.699 -9.22,28.121 l 0,59.22 z m 108.12,-10.62 0,-35.63 16.1,0 c 5.93,0 10.51,1.56 13.75,4.69 3.32,3.12 5,7.5 5,13.12 0,5.71 -1.68,10.08 -5,13.13 -3.24,3.12 -7.82,4.69 -13.75,4.69 l -16.1,0 z m -12.81,10.62 28.91,0 c 10.62,0 18.63,-2.46 24.06,-7.34 5.39,-4.81 8.12,-11.84 8.12,-21.1 0,-9.29 -2.73,-16.32 -8.12,-21.09 -5.43,-4.8 -13.44,-7.19 -24.06,-7.19 l -16.1,0 0,-38.121 -12.81,0 0,94.841 z"
             style="fill:none;stroke:#ffffff;stroke-width:2.31288004;stroke-linecap:butt;stroke-linejoin:miter;stroke-miterlimit:4;stroke-dasharray:none;stroke-opacity:1"
             id="path104"
             inkscape:connector-curvature="0" /><path
             d="m 1315.66,274.359 c 0,-132.89 -107.73,-240.6207 -240.66,-240.6207 -132.891,0 -240.621,107.7307 -240.621,240.6207 0,132.93 107.73,240.672 240.621,240.672 132.93,0 240.66,-107.742 240.66,-240.672 z"
             style="fill:#ffffff;fill-opacity:1;fill-rule:nonzero;stroke:none"
             id="path106"
             inkscape:connector-curvature="0" /><path
             d="m 1315.66,274.359 c 0,-132.89 -107.73,-240.6207 -240.66,-240.6207 -132.891,0 -240.621,107.7307 -240.621,240.6207 0,132.93 107.73,240.668 240.621,240.668 132.93,0 240.66,-107.738 240.66,-240.668 z"
             style="fill:none;stroke:#c69600;stroke-width:46.25759888;stroke-linecap:butt;stroke-linejoin:miter;stroke-miterlimit:4;stroke-dasharray:none;stroke-opacity:1"
             id="path108"
             inkscape:connector-curvature="0" /><g
             id="g110"
             transform="scale(10,10)"><text
               transform="matrix(1,0,0,-1,88.4848,30.4758)"
               style="font-variant:normal;font-weight:normal;font-size:12.80000019px;font-family:'DejaVu Sans';-inkscape-font-specification:DejaVuSans;writing-mode:lr-tb;fill:#000000;fill-opacity:1;fill-rule:nonzero;stroke:none"
               id="text112"><tspan
                 x="0 7.3728905 17.446491 27.52009 34.176048"
                 y="0"
                 sodipodi:role="line"
                 id="tspan114">FOOT-</tspan></text>
</g><path
             d="m 897.66,399.598 54.371,0 0,-10.938 -41.562,0 0,-27.812 37.5,0 0,-10.778 -37.5,0 0,-45.32 -12.809,0 0,94.848 z m 112.18,-8.75 c -9.37,0 -16.828,-3.52 -22.34,-10.469 -5.43,-6.879 -8.121,-16.328 -8.121,-28.281 0,-11.989 2.691,-21.489 8.121,-28.438 5.512,-6.871 12.97,-10.312 22.34,-10.312 9.26,0 16.61,3.441 22.04,10.312 5.5,6.949 8.28,16.449 8.28,28.438 0,11.953 -2.78,21.402 -8.28,28.281 -5.43,6.949 -12.78,10.469 -22.04,10.469 z m 0,10.472 c 13.21,0 23.79,-4.5 31.72,-13.441 8.01,-8.988 12.03,-20.899 12.03,-35.781 0,-15 -4.02,-26.989 -12.03,-35.938 -7.93,-8.871 -18.51,-13.281 -31.72,-13.281 -13.36,0 -24.02,4.41 -32.031,13.281 -7.93,8.949 -11.868,20.938 -11.868,35.938 0,14.882 3.938,26.793 11.868,35.781 8.011,8.941 18.671,13.441 32.031,13.441 z m 100.75,-10.472 c -9.38,0 -16.84,-3.52 -22.35,-10.469 -5.43,-6.879 -8.12,-16.328 -8.12,-28.281 0,-11.989 2.69,-21.489 8.12,-28.438 5.51,-6.871 12.97,-10.312 22.35,-10.312 9.25,0 16.6,3.441 22.03,10.312 5.5,6.949 8.28,16.449 8.28,28.438 0,11.953 -2.78,21.402 -8.28,28.281 -5.43,6.949 -12.78,10.469 -22.03,10.469 z m 0,10.472 c 13.2,0 23.79,-4.5 31.71,-13.441 8.01,-8.988 12.04,-20.899 12.04,-35.781 0,-15 -4.03,-26.989 -12.04,-35.938 -7.92,-8.871 -18.51,-13.281 -31.71,-13.281 -13.36,0 -24.03,4.41 -32.04,13.281 -7.93,8.949 -11.87,20.938 -11.87,35.938 0,14.882 3.94,26.793 11.87,35.781 8.01,8.941 18.68,13.441 32.04,13.441 z m 49.21,-1.722 80.16,0 0,-10.938 -33.75,0 0,-83.91 -12.81,0 0,83.91 -33.6,0 0,10.938 z m 73.21,-54.067 34.22,0 0,-10.312 -34.22,0 0,10.312 z"
             style="fill:none;stroke:#ffffff;stroke-width:2.31288004;stroke-linecap:butt;stroke-linejoin:miter;stroke-miterlimit:4;stroke-dasharray:none;stroke-opacity:1"
             id="path116"
             inkscape:connector-curvature="0" /><g
             id="g118"
             transform="scale(10,10)"><text
               transform="matrix(1,0,0,-1,88.9848,14.4758)"
               style="font-variant:normal;font-weight:normal;font-size:12.80000019px;font-family:'DejaVu Sans';-inkscape-font-specification:DejaVuSans;writing-mode:lr-tb;fill:#000000;fill-opacity:1;fill-rule:nonzero;stroke:none"
               id="text120"><tspan
                 x="0 7.7184 16.614401 20.3904 29.9648"
                 y="0"
                 sodipodi:role="line"
                 id="tspan122">PRINT</tspan></text>
</g><path
             d="m 915.469,228.969 0,-35.621 16.09,0 c 5.941,0 10.511,1.562 13.75,4.683 3.32,3.129 5,7.5 5,13.129 0,5.699 -1.68,10.078 -5,13.129 -3.239,3.121 -7.809,4.68 -13.75,4.68 l -16.09,0 z m -12.809,10.629 28.899,0 c 10.632,0 18.64,-2.457 24.062,-7.348 5.399,-4.801 8.129,-11.832 8.129,-21.09 0,-9.301 -2.73,-16.332 -8.129,-21.09 -5.422,-4.812 -13.43,-7.191 -24.062,-7.191 l -16.09,0 0,-38.129 -12.809,0 0,94.848 z m 122.11,-50.469 c 2.81,-0.941 5.5,-2.93 8.12,-5.941 2.58,-3.047 5.2,-7.188 7.81,-12.5 l 12.97,-25.938 -13.75,0 -12.19,24.379 c -3.12,6.332 -6.17,10.512 -9.06,12.5 -2.93,2.07 -6.95,3.121 -12.03,3.121 l -13.91,0 0,-40 -12.808,0 0,94.848 28.908,0 c 10.82,0 18.9,-2.309 24.22,-6.879 5.31,-4.489 7.97,-11.328 7.97,-20.469 0,-5.93 -1.41,-10.891 -4.22,-14.84 -2.74,-3.98 -6.72,-6.722 -12.03,-8.281 z m -32.04,39.84 0,-33.59 16.1,0 c 6.13,0 10.78,1.41 13.9,4.219 3.21,2.89 4.85,7.113 4.85,12.652 0,5.508 -1.64,9.688 -4.85,12.5 -3.12,2.82 -7.77,4.219 -13.9,4.219 l -16.1,0 z m 76.18,10.629 12.81,0 0,-94.848 -12.81,0 0,94.848 z m 37.77,0 17.19,0 42.03,-79.379 0,79.379 12.5,0 0,-94.848 -17.35,0 -42.03,79.219 0,-79.219 -12.34,0 0,94.848 z m 82.62,0 80.15,0 0,-10.938 -33.75,0 0,-83.91 -12.81,0 0,83.91 -33.59,0 0,10.938 z"
             style="fill:none;stroke:#ffffff;stroke-width:2.31288004;stroke-linecap:butt;stroke-linejoin:miter;stroke-miterlimit:4;stroke-dasharray:none;stroke-opacity:1"
             id="path124"
             inkscape:connector-curvature="0" /><path
             d="m 579.77,1744.52 169.96,0"
             style="fill:none;stroke:#000000;stroke-width:38.23910141;stroke-linecap:butt;stroke-linejoin:miter;stroke-miterlimit:4;stroke-dasharray:none;stroke-opacity:1"
             id="path126"
             inkscape:connector-curvature="0" /><path
             d="m 676.09,1790.81 125.359,-46.1 -125.359,-46.09 c 20.039,27.19 19.93,64.45 0,92.19 z"
             style="fill:#000000;fill-opacity:1;fill-rule:evenodd;stroke:none"
             id="path128"
             inkscape:connector-curvature="0" /><path
             d="m 1353.71,1744.52 169.96,0"
             style="fill:none;stroke:#000000;stroke-width:38.23910141;stroke-linecap:butt;stroke-linejoin:miter;stroke-miterlimit:4;stroke-dasharray:none;stroke-opacity:1"
             id="path130"
             inkscape:connector-curvature="0" /><path
             d="m 1450.04,1790.81 125.31,-46.1 -125.31,-46.09 c 20,27.19 19.88,64.45 0,92.19 z"
             style="fill:#000000;fill-opacity:1;fill-rule:evenodd;stroke:none"
             id="path132"
             inkscape:connector-curvature="0" /><path
             d="m 799.262,999.789 -169.961,0"
             style="fill:none;stroke:#000000;stroke-width:38.23910141;stroke-linecap:butt;stroke-linejoin:miter;stroke-miterlimit:4;stroke-dasharray:none;stroke-opacity:1"
             id="path134"
             inkscape:connector-curvature="0" /><path
             d="m 702.93,953.539 -125.309,46.063 125.309,46.088 c -20,-27.19 -19.879,-64.409 0,-92.151 z"
             style="fill:#000000;fill-opacity:1;fill-rule:evenodd;stroke:none"
             id="path136"
             inkscape:connector-curvature="0" /><path
             d="m 1574.92,999.789 -169.92,0"
             style="fill:none;stroke:#000000;stroke-width:38.23910141;stroke-linecap:butt;stroke-linejoin:miter;stroke-miterlimit:4;stroke-dasharray:none;stroke-opacity:1"
             id="path138"
             inkscape:connector-curvature="0" /><path
             d="m 1478.59,953.539 -125.31,46.063 125.31,46.088 c -20,-27.19 -19.88,-64.409 0,-92.151 z"
             style="fill:#000000;fill-opacity:1;fill-rule:evenodd;stroke:none"
             id="path140"
             inkscape:connector-curvature="0" /><path
             d="m 12.7305,1431.12 2857.23,0 0,623.672 -2857.23,0 0,-623.672 z"
             style="fill:none;stroke:#969696;stroke-width:25.30290031;stroke-linecap:butt;stroke-linejoin:miter;stroke-miterlimit:4;stroke-dasharray:50.6058, 50.6058;stroke-dashoffset:0;stroke-opacity:1"
             id="path142"
             inkscape:connector-curvature="0" /><path
             d="m 12.7305,690.891 2857.23,0 0,623.668 -2857.23,0 0,-623.668 z"
             style="fill:none;stroke:#969696;stroke-width:25.30330086;stroke-linecap:butt;stroke-linejoin:miter;stroke-miterlimit:4;stroke-dasharray:50.6065, 50.6065;stroke-dashoffset:0;stroke-opacity:1"
             id="path144"
             inkscape:connector-curvature="0" /><g
             id="g146"
             transform="scale(10,10)"><text
               transform="matrix(1,0,0,-1,224.33,177.561)"
               style="font-variant:normal;font-weight:bold;font-size:12.9520998px;font-family:'DejaVu Sans';-inkscape-font-specification:DejaVuSans-Bold;writing-mode:lr-tb;fill:#969696;fill-opacity:1;fill-rule:nonzero;stroke:none"
               id="text148"><tspan
                 x="0 10.853823 15.309479 23.015978 29.219997 38.118092 47.352936"
                 y="0"
                 sodipodi:role="line"
                 id="tspan150">Histone</tspan><tspan
                 x="8.7148399 16.965328 25.746851 34.19162 42.973145"
                 y="16.1898"
                 sodipodi:role="line"
                 id="tspan152">Level</tspan><tspan
                 x="4.64218 15.392423 26.246147 35.001766 42.708267"
                 y="73.8246"
                 sodipodi:role="line"
                 id="tspan154">DNase</tspan><tspan
                 x="8.7148399 16.965328 25.746851 34.19162 42.973145"
                 y="90.014801"
                 sodipodi:role="line"
                 id="tspan156">Level</tspan></text>
</g><path
             d="M 800.98,2365.03 470.738,2034.75"
             style="fill:none;stroke:#000000;stroke-width:40.86700058;stroke-linecap:butt;stroke-linejoin:miter;stroke-miterlimit:4;stroke-dasharray:none;stroke-opacity:1"
             id="path158"
             inkscape:connector-curvature="0" /><path
             d="m 561.328,2055.46 -129.527,-59.89 59.879,129.53 c 5.429,-35.7 33.672,-63.75 69.648,-69.64 z"
             style="fill:#000000;fill-opacity:1;fill-rule:evenodd;stroke:none"
             id="path160"
             inkscape:connector-curvature="0" /><path
             d="m 1706.45,1998.31 -330.24,330.27"
             style="fill:none;stroke:#000000;stroke-width:40.86700058;stroke-linecap:butt;stroke-linejoin:miter;stroke-miterlimit:4;stroke-dasharray:none;stroke-opacity:1"
             id="path162"
             inkscape:connector-curvature="0" /><path
             d="m 1396.88,2237.96 -59.89,129.57 129.53,-59.93 c -35.66,-5.43 -63.75,-33.63 -69.64,-69.64 z"
             style="fill:#000000;fill-opacity:1;fill-rule:evenodd;stroke:none"
             id="path164"
             inkscape:connector-curvature="0" /><path
             d="m 303.672,1285.53 0,126.92"
             style="fill:none;stroke:#000000;stroke-width:35.90219879;stroke-linecap:butt;stroke-linejoin:miter;stroke-miterlimit:4;stroke-dasharray:none;stroke-opacity:1"
             id="path166"
             inkscape:connector-curvature="0" /><path
             d="m 260.23,1343.31 43.29,117.69 43.281,-117.69 c -25.59,18.83 -60.512,18.71 -86.571,0 z"
             style="fill:#000000;fill-opacity:1;fill-rule:evenodd;stroke:none"
             id="path168"
             inkscape:connector-curvature="0" /><path
             d="m 1852.34,1457.06 0,-126.92"
             style="fill:none;stroke:#000000;stroke-width:35.90219879;stroke-linecap:butt;stroke-linejoin:miter;stroke-miterlimit:4;stroke-dasharray:none;stroke-opacity:1"
             id="path170"
             inkscape:connector-curvature="0" /><path
             d="m 1895.78,1399.24 -43.28,-117.65 -43.28,117.65 c 25.55,-18.78 60.51,-18.67 86.56,0 z"
             style="fill:#000000;fill-opacity:1;fill-rule:evenodd;stroke:none"
             id="path172"
             inkscape:connector-curvature="0" /><path
             d="M 452.07,749.289 782.34,419.008"
             style="fill:none;stroke:#000000;stroke-width:40.86700058;stroke-linecap:butt;stroke-linejoin:miter;stroke-miterlimit:4;stroke-dasharray:none;stroke-opacity:1"
             id="path174"
             inkscape:connector-curvature="0" /><path
             d="m 761.68,509.641 59.879,-129.539 -129.571,59.886 c 35.711,5.434 63.75,33.633 69.692,69.653 z"
             style="fill:#000000;fill-opacity:1;fill-rule:evenodd;stroke:none"
             id="path176"
             inkscape:connector-curvature="0" /><path
             d="m 1357.58,377.18 330.23,330.23"
             style="fill:none;stroke:#000000;stroke-width:40.86700058;stroke-linecap:butt;stroke-linejoin:miter;stroke-miterlimit:4;stroke-dasharray:none;stroke-opacity:1"
             id="path178"
             inkscape:connector-curvature="0" /><path
             d="m 1597.19,686.738 129.57,59.891 -59.88,-129.527 c -5.43,35.66 -33.68,63.707 -69.69,69.636 z"
             style="fill:#000000;fill-opacity:1;fill-rule:evenodd;stroke:none"
             id="path180"
             inkscape:connector-curvature="0" /><path
             d="m 4619.73,2470.34 c 0,-132.89 -107.74,-240.63 -240.63,-240.63 -132.89,0 -240.66,107.74 -240.66,240.63 0,132.89 107.77,240.66 240.66,240.66 132.89,0 240.63,-107.77 240.63,-240.66 z"
             style="fill:#ffffff;fill-opacity:1;fill-rule:nonzero;stroke:none"
             id="path182"
             inkscape:connector-curvature="0" /><path
             d="m 4619.73,2470.34 c 0,-132.89 -107.74,-240.63 -240.63,-240.63 -132.89,0 -240.66,107.74 -240.66,240.63 0,132.89 107.77,240.66 240.66,240.66 132.89,0 240.63,-107.77 240.63,-240.66 z"
             style="fill:none;stroke:#323232;stroke-width:46.25759888;stroke-linecap:butt;stroke-linejoin:miter;stroke-miterlimit:4;stroke-dasharray:none;stroke-opacity:1"
             id="path184"
             inkscape:connector-curvature="0" /><g
             id="g186"
             transform="scale(10,10)"><text
               transform="matrix(1,0,0,-1,419.826,242.375)"
               style="font-variant:normal;font-weight:normal;font-size:12.80000019px;font-family:'DejaVu Sans';-inkscape-font-specification:DejaVuSans;writing-mode:lr-tb;fill:#000000;fill-opacity:1;fill-rule:nonzero;stroke:none"
               id="text188"><tspan
                 x="0 8.7807999 17.292641 26.239931"
                 y="0"
                 sodipodi:role="line"
                 id="tspan190">BACK</tspan></text>
</g><path
             d="m 4223.87,2469.05 0,-34.84 20.47,0 c 6.95,0 12.07,1.4 15.31,4.22 3.32,2.89 5,7.34 5,13.28 0,5.93 -1.68,10.31 -5,13.12 -3.24,2.81 -8.36,4.22 -15.31,4.22 l -20.47,0 z m 0,38.91 0,-28.6 18.9,0 c 6.25,0 10.86,1.14 13.91,3.44 3.12,2.38 4.69,6.02 4.69,10.94 0,4.76 -1.57,8.32 -4.69,10.62 -3.05,2.39 -7.66,3.6 -13.91,3.6 l -18.9,0 z m -12.82,10.62 32.66,0 c 9.77,0 17.34,-2.03 22.66,-6.09 5.31,-4.06 7.97,-9.85 7.97,-17.35 0,-5.85 -1.37,-10.46 -4.07,-13.9 -2.73,-3.44 -6.72,-5.59 -12.03,-6.41 6.33,-1.37 11.25,-4.18 14.69,-8.44 3.52,-4.29 5.31,-9.64 5.31,-16.09 0,-8.44 -2.93,-15 -8.75,-19.69 -5.74,-4.61 -13.9,-6.87 -24.53,-6.87 l -33.91,0 0,94.84 z m 119.34,-12.65 -17.34,-47.19 34.84,0 -17.5,47.19 z m -7.19,12.65 14.53,0 36.1,-94.84 -13.28,0 -8.6,24.37 -42.81,0 -8.59,-24.37 -13.44,0 36.09,94.84 z m 131.8,-7.34 0,-13.6 c -4.38,4.07 -9.02,7.07 -13.91,9.07 -4.8,1.95 -9.96,2.97 -15.47,2.97 -10.85,0 -19.17,-3.36 -25,-10 -5.74,-6.57 -8.59,-16.1 -8.59,-28.6 0,-12.5 2.85,-22.11 8.59,-28.75 5.83,-6.56 14.15,-9.84 25,-9.84 5.51,0 10.67,0.97 15.47,2.97 4.89,1.95 9.53,4.92 13.91,8.9 l 0,-13.28 c -4.49,-3.12 -9.22,-5.47 -14.22,-7.03 -5,-1.44 -10.31,-2.19 -15.94,-2.19 -14.37,0 -25.7,4.38 -33.9,13.13 -8.24,8.83 -12.35,20.86 -12.35,36.09 0,15.2 4.11,27.19 12.35,35.94 8.2,8.83 19.53,13.28 33.9,13.28 5.63,0 10.94,-0.78 15.94,-2.34 5.08,-1.49 9.84,-3.71 14.22,-6.72 z m 18.55,7.34 12.82,0 0,-40.15 42.5,40.15 16.56,0 -47.03,-44.22 50.31,-50.62 -16.87,0 -45.47,45.62 0,-45.62 -12.82,0 0,94.84 z"
             style="fill:none;stroke:#ffffff;stroke-width:2.31288004;stroke-linecap:butt;stroke-linejoin:miter;stroke-miterlimit:4;stroke-dasharray:none;stroke-opacity:1"
             id="path192"
             inkscape:connector-curvature="0" /><path
             d="m 3845.16,1738.15 c 0,-132.89 -107.74,-240.62 -240.63,-240.62 -132.93,0 -240.66,107.73 -240.66,240.62 0,132.89 107.73,240.67 240.66,240.67 132.89,0 240.63,-107.78 240.63,-240.67 z"
             style="fill:#ffffff;fill-opacity:1;fill-rule:nonzero;stroke:none"
             id="path194"
             inkscape:connector-curvature="0" /><path
             d="m 3845.16,1738.15 c 0,-132.89 -107.74,-240.62 -240.63,-240.62 -132.93,0 -240.66,107.73 -240.66,240.62 0,132.89 107.73,240.67 240.66,240.67 132.89,0 240.63,-107.78 240.63,-240.67 z"
             style="fill:none;stroke:#6efa6e;stroke-width:46.25759888;stroke-linecap:butt;stroke-linejoin:miter;stroke-miterlimit:4;stroke-dasharray:none;stroke-opacity:1"
             id="path196"
             inkscape:connector-curvature="0" /><g
             id="g198"
             transform="scale(10,10)"><text
               transform="matrix(1,0,0,-1,351.567,169.24)"
               style="font-variant:normal;font-weight:normal;font-size:12.80000019px;font-family:'DejaVu Sans';-inkscape-font-specification:DejaVuSans;writing-mode:lr-tb;fill:#000000;fill-opacity:1;fill-rule:nonzero;stroke:none"
               id="text200"><tspan
                 x="0 9.3696003"
                 y="0"
                 sodipodi:role="line"
                 id="tspan202">UP</tspan></text>
</g><path
             d="m 3526.91,1787.25 12.97,0 0,-57.65 c 0,-10.12 1.8,-17.42 5.47,-21.88 3.63,-4.49 9.61,-6.72 17.97,-6.72 8.2,0 14.14,2.23 17.81,6.72 3.64,4.46 5.47,11.76 5.47,21.88 l 0,57.65 12.97,0 0,-59.22 c 0,-12.42 -3.09,-21.79 -9.22,-28.12 -6.17,-6.25 -15.15,-9.38 -27.03,-9.38 -11.99,0 -21.05,3.13 -27.19,9.38 -6.17,6.33 -9.22,15.7 -9.22,28.12 l 0,59.22 z m 108.13,-10.62 0,-35.63 16.09,0 c 5.94,0 10.51,1.57 13.75,4.69 3.32,3.13 5,7.5 5,13.13 0,5.7 -1.68,10.07 -5,13.12 -3.24,3.13 -7.81,4.69 -13.75,4.69 l -16.09,0 z m -12.81,10.62 28.9,0 c 10.63,0 18.64,-2.46 24.07,-7.34 5.39,-4.8 8.12,-11.84 8.12,-21.09 0,-9.3 -2.73,-16.33 -8.12,-21.1 -5.43,-4.8 -13.44,-7.19 -24.07,-7.19 l -16.09,0 0,-38.12 -12.81,0 0,94.84 z"
             style="fill:none;stroke:#ffffff;stroke-width:2.31288004;stroke-linecap:butt;stroke-linejoin:miter;stroke-miterlimit:4;stroke-dasharray:none;stroke-opacity:1"
             id="path204"
             inkscape:connector-curvature="0" /><path
             d="m 4619.96,1738.15 c 0,-132.89 -107.73,-240.62 -240.62,-240.62 -132.93,0 -240.67,107.73 -240.67,240.62 0,132.89 107.74,240.67 240.67,240.67 132.89,0 240.62,-107.78 240.62,-240.67 z"
             style="fill:#ffffff;fill-opacity:1;fill-rule:nonzero;stroke:none"
             id="path206"
             inkscape:connector-curvature="0" /><path
             d="m 4619.96,1738.15 c 0,-132.89 -107.73,-240.62 -240.62,-240.62 -132.93,0 -240.67,107.73 -240.67,240.62 0,132.89 107.74,240.67 240.67,240.67 132.89,0 240.62,-107.78 240.62,-240.67 z"
             style="fill:none;stroke:#5ab4f0;stroke-width:46.25759888;stroke-linecap:butt;stroke-linejoin:miter;stroke-miterlimit:4;stroke-dasharray:none;stroke-opacity:1"
             id="path208"
             inkscape:connector-curvature="0" /><g
             id="g210"
             transform="scale(10,10)"><text
               transform="matrix(1,0,0,-1,425.361,169.156)"
               style="font-variant:normal;font-weight:normal;font-size:12.80000019px;font-family:'DejaVu Sans';-inkscape-font-specification:DejaVuSans;writing-mode:lr-tb;fill:#000000;fill-opacity:1;fill-rule:nonzero;stroke:none"
               id="text212"><tspan
                 x="0 7.8207998 17.8944"
                 y="0"
                 sodipodi:role="line"
                 id="tspan214">TOP</tspan></text>
</g><path
             d="m 4253.28,1786.39 80.16,0 0,-10.93 -33.75,0 0,-83.91 -12.81,0 0,83.91 -33.6,0 0,10.93 z m 129.84,-8.75 c -9.37,0 -16.83,-3.51 -22.34,-10.46 -5.43,-6.88 -8.12,-16.33 -8.12,-28.29 0,-11.99 2.69,-21.48 8.12,-28.43 5.51,-6.88 12.97,-10.32 22.34,-10.32 9.26,0 16.61,3.44 22.04,10.32 5.5,6.95 8.28,16.44 8.28,28.43 0,11.96 -2.78,21.41 -8.28,28.29 -5.43,6.95 -12.78,10.46 -22.04,10.46 z m 0,10.47 c 13.21,0 23.79,-4.49 31.72,-13.43 8.01,-8.99 12.04,-20.9 12.04,-35.79 0,-15 -4.03,-26.99 -12.04,-35.93 -7.93,-8.87 -18.51,-13.28 -31.72,-13.28 -13.35,0 -24.02,4.41 -32.03,13.28 -7.93,8.94 -11.87,20.93 -11.87,35.93 0,14.89 3.94,26.8 11.87,35.79 8.01,8.94 18.68,13.43 32.03,13.43 z m 75.12,-12.34 0,-35.63 16.1,0 c 5.93,0 10.5,1.57 13.75,4.69 3.32,3.13 5,7.5 5,13.13 0,5.7 -1.68,10.07 -5,13.12 -3.25,3.13 -7.82,4.69 -13.75,4.69 l -16.1,0 z m -12.81,10.62 28.91,0 c 10.62,0 18.63,-2.46 24.06,-7.34 5.39,-4.8 8.12,-11.84 8.12,-21.09 0,-9.3 -2.73,-16.33 -8.12,-21.1 -5.43,-4.8 -13.44,-7.18 -24.06,-7.18 l -16.1,0 0,-38.13 -12.81,0 0,94.84 z"
             style="fill:none;stroke:#ffffff;stroke-width:2.31288004;stroke-linecap:butt;stroke-linejoin:miter;stroke-miterlimit:4;stroke-dasharray:none;stroke-opacity:1"
             id="path216"
             inkscape:connector-curvature="0" /><path
             d="m 5394.8,1738.15 c 0,-132.89 -107.77,-240.62 -240.66,-240.62 -132.89,0 -240.62,107.73 -240.62,240.62 0,132.89 107.73,240.67 240.62,240.67 132.89,0 240.66,-107.78 240.66,-240.67 z"
             style="fill:#ffffff;fill-opacity:1;fill-rule:nonzero;stroke:none"
             id="path218"
             inkscape:connector-curvature="0" /><path
             d="m 5394.8,1738.15 c 0,-132.89 -107.77,-240.62 -240.66,-240.62 -132.89,0 -240.62,107.73 -240.62,240.62 0,132.89 107.73,240.67 240.62,240.67 132.89,0 240.66,-107.78 240.66,-240.67 z"
             style="fill:none;stroke:#ff505a;stroke-width:46.25759888;stroke-linecap:butt;stroke-linejoin:miter;stroke-miterlimit:4;stroke-dasharray:none;stroke-opacity:1"
             id="path220"
             inkscape:connector-curvature="0" /><g
             id="g222"
             transform="scale(10,10)"><text
               transform="matrix(1,0,0,-1,494.339,169.156)"
               style="font-variant:normal;font-weight:normal;font-size:12.80000019px;font-family:'DejaVu Sans';-inkscape-font-specification:DejaVuSans;writing-mode:lr-tb;fill:#000000;fill-opacity:1;fill-rule:nonzero;stroke:none"
               id="text224"><tspan
                 x="0 9.8559999 19.9296 32.588799"
                 y="0"
                 sodipodi:role="line"
                 id="tspan226">DOWN</tspan></text>
</g><path
             d="m 4969.02,1775.77 0,-73.75 15.47,0 c 13.01,0 22.54,2.97 28.6,8.91 6.13,5.93 9.21,15.31 9.21,28.12 0,12.7 -3.08,21.95 -9.21,27.81 -6.06,5.94 -15.59,8.91 -28.6,8.91 l -15.47,0 z m -12.81,10.62 26.25,0 c 18.44,0 31.92,-3.86 40.47,-11.56 8.63,-7.62 12.97,-19.53 12.97,-35.78 0,-16.37 -4.34,-28.4 -12.97,-36.09 -8.67,-7.62 -22.15,-11.41 -40.47,-11.41 l -26.25,0 0,94.84 z m 136.95,-8.75 c -9.37,0 -16.83,-3.51 -22.34,-10.46 -5.43,-6.88 -8.12,-16.33 -8.12,-28.29 0,-11.99 2.69,-21.48 8.12,-28.43 5.51,-6.88 12.97,-10.32 22.34,-10.32 9.26,0 16.61,3.44 22.04,10.32 5.5,6.95 8.28,16.44 8.28,28.43 0,11.96 -2.78,21.41 -8.28,28.29 -5.43,6.95 -12.78,10.46 -22.04,10.46 z m 0,10.47 c 13.21,0 23.79,-4.49 31.72,-13.43 8.01,-8.99 12.03,-20.9 12.03,-35.79 0,-15 -4.02,-26.99 -12.03,-35.93 -7.93,-8.87 -18.51,-13.28 -31.72,-13.28 -13.36,0 -24.02,4.41 -32.03,13.28 -7.93,8.94 -11.87,20.93 -11.87,35.93 0,14.89 3.94,26.8 11.87,35.79 8.01,8.94 18.67,13.43 32.03,13.43 z m 53.87,-1.72 12.97,0 19.84,-80.15 19.85,80.15 14.37,0 20,-80.15 19.85,80.15 12.97,0 -23.76,-94.84 -16.09,0 -20,82.34 -20.15,-82.34 -16.1,0 -23.75,94.84 z m 134.92,0 17.19,0 42.03,-79.37 0,79.37 12.5,0 0,-94.84 -17.34,0 -42.03,79.22 0,-79.22 -12.35,0 0,94.84 z"
             style="fill:none;stroke:#ffffff;stroke-width:2.31288004;stroke-linecap:butt;stroke-linejoin:miter;stroke-miterlimit:4;stroke-dasharray:none;stroke-opacity:1"
             id="path228"
             inkscape:connector-curvature="0" /><path
             d="m 3845.23,1005.96 c 0,-132.89 -107.73,-240.62 -240.62,-240.62 -132.93,0 -240.66,107.73 -240.66,240.62 0,132.89 107.73,240.67 240.66,240.67 132.89,0 240.62,-107.78 240.62,-240.67 z"
             style="fill:#ffffff;fill-opacity:1;fill-rule:nonzero;stroke:none"
             id="path230"
             inkscape:connector-curvature="0" /><path
             d="m 3845.23,1005.96 c 0,-132.89 -107.73,-240.62 -240.62,-240.62 -132.93,0 -240.66,107.73 -240.66,240.62 0,132.9 107.73,240.67 240.66,240.67 132.89,0 240.62,-107.77 240.62,-240.67 z"
             style="fill:none;stroke:#961428;stroke-width:46.25759888;stroke-linecap:butt;stroke-linejoin:miter;stroke-miterlimit:4;stroke-dasharray:none;stroke-opacity:1"
             id="path232"
             inkscape:connector-curvature="0" /><g
             id="g234"
             transform="scale(10,10)"><text
               transform="matrix(1,0,0,-1,339.385,95.9371)"
               style="font-variant:normal;font-weight:normal;font-size:12.80000019px;font-family:'DejaVu Sans';-inkscape-font-specification:DejaVuSans;writing-mode:lr-tb;fill:#000000;fill-opacity:1;fill-rule:nonzero;stroke:none"
               id="text236"><tspan
                 x="0 9.8559999 19.9296 32.588799"
                 y="0"
                 sodipodi:role="line"
                 id="tspan238">DOWN</tspan></text>
</g><path
             d="m 3419.49,1043.58 0,-73.752 15.47,0 c 13.01,0 22.54,2.973 28.59,8.91 6.14,5.942 9.22,15.313 9.22,28.122 0,12.7 -3.08,21.96 -9.22,27.82 -6.05,5.93 -15.58,8.9 -28.59,8.9 l -15.47,0 z m -12.81,10.63 26.25,0 c 18.44,0 31.91,-3.87 40.47,-11.57 8.63,-7.61 12.97,-19.53 12.97,-35.78 0,-16.36 -4.34,-28.399 -12.97,-36.09 -8.67,-7.622 -22.15,-11.411 -40.47,-11.411 l -26.25,0 0,94.851 z m 136.91,-8.75 c -9.37,0 -16.83,-3.52 -22.34,-10.47 -5.43,-6.88 -8.13,-16.33 -8.13,-28.28 0,-11.999 2.7,-21.491 8.13,-28.44 5.51,-6.879 12.97,-10.309 22.34,-10.309 9.26,0 16.61,3.43 22.03,10.309 5.51,6.949 8.29,16.441 8.29,28.44 0,11.95 -2.78,21.4 -8.29,28.28 -5.42,6.95 -12.77,10.47 -22.03,10.47 z m 0,10.47 c 13.21,0 23.79,-4.5 31.72,-13.44 8.01,-8.99 12.03,-20.9 12.03,-35.78 0,-14.999 -4.02,-26.999 -12.03,-35.94 -7.93,-8.872 -18.51,-13.282 -31.72,-13.282 -13.36,0 -24.02,4.41 -32.03,13.282 -7.93,8.941 -11.87,20.941 -11.87,35.94 0,14.88 3.94,26.79 11.87,35.78 8.01,8.94 18.67,13.44 32.03,13.44 z m 53.87,-1.72 12.97,0 19.84,-80.159 19.85,80.159 14.37,0 20,-80.159 19.85,80.159 12.96,0 -23.75,-94.851 -16.09,0 -20,82.351 -20.16,-82.351 -16.09,0 -23.75,94.851 z m 134.96,0 17.19,0 42.03,-79.382 0,79.382 12.5,0 0,-94.851 -17.34,0 -42.03,79.221 0,-79.221 -12.35,0 0,94.851 z"
             style="fill:none;stroke:#ffffff;stroke-width:2.31288004;stroke-linecap:butt;stroke-linejoin:miter;stroke-miterlimit:4;stroke-dasharray:none;stroke-opacity:1"
             id="path240"
             inkscape:connector-curvature="0" /><path
             d="m 4620.08,1005.96 c 0,-132.89 -107.78,-240.62 -240.67,-240.62 -132.89,0 -240.62,107.73 -240.62,240.62 0,132.89 107.73,240.67 240.62,240.67 132.89,0 240.67,-107.78 240.67,-240.67 z"
             style="fill:#ffffff;fill-opacity:1;fill-rule:nonzero;stroke:none"
             id="path242"
             inkscape:connector-curvature="0" /><path
             d="m 4620.08,1005.96 c 0,-132.89 -107.78,-240.62 -240.67,-240.62 -132.89,0 -240.62,107.73 -240.62,240.62 0,132.9 107.73,240.67 240.62,240.67 132.89,0 240.67,-107.77 240.67,-240.67 z"
             style="fill:none;stroke:#142896;stroke-width:46.25759888;stroke-linecap:butt;stroke-linejoin:miter;stroke-miterlimit:4;stroke-dasharray:none;stroke-opacity:1"
             id="path244"
             inkscape:connector-curvature="0" /><g
             id="g246"
             transform="scale(10,10)"><text
               transform="matrix(1,0,0,-1,425.37,95.9371)"
               style="font-variant:normal;font-weight:normal;font-size:12.80000019px;font-family:'DejaVu Sans';-inkscape-font-specification:DejaVuSans;writing-mode:lr-tb;fill:#000000;fill-opacity:1;fill-rule:nonzero;stroke:none"
               id="text248"><tspan
                 x="0 7.8207998 17.8944"
                 y="0"
                 sodipodi:role="line"
                 id="tspan250">TOP</tspan></text>
</g><path
             d="m 4253.4,1054.21 80.15,0 0,-10.94 -33.75,0 0,-83.911 -12.81,0 0,83.911 -33.59,0 0,10.94 z m 129.8,-8.75 c -9.37,0 -16.83,-3.52 -22.34,-10.47 -5.43,-6.88 -8.13,-16.33 -8.13,-28.28 0,-11.999 2.7,-21.491 8.13,-28.44 5.51,-6.879 12.97,-10.309 22.34,-10.309 9.26,0 16.6,3.43 22.03,10.309 5.51,6.949 8.29,16.441 8.29,28.44 0,11.95 -2.78,21.4 -8.29,28.28 -5.43,6.95 -12.77,10.47 -22.03,10.47 z m 0,10.47 c 13.21,0 23.79,-4.5 31.72,-13.44 8.01,-8.99 12.03,-20.9 12.03,-35.78 0,-14.999 -4.02,-26.999 -12.03,-35.94 -7.93,-8.872 -18.51,-13.282 -31.72,-13.282 -13.36,0 -24.02,4.41 -32.03,13.282 -7.93,8.941 -11.87,20.941 -11.87,35.94 0,14.88 3.94,26.79 11.87,35.78 8.01,8.94 18.67,13.44 32.03,13.44 z m 75.12,-12.35 0,-35.62 16.09,0 c 5.94,0 10.51,1.56 13.75,4.68 3.32,3.13 5,7.5 5,13.13 0,5.7 -1.68,10.08 -5,13.12 -3.24,3.13 -7.81,4.69 -13.75,4.69 l -16.09,0 z m -12.81,10.63 28.9,0 c 10.63,0 18.64,-2.46 24.07,-7.35 5.39,-4.8 8.12,-11.83 8.12,-21.09 0,-9.3 -2.73,-16.33 -8.12,-21.09 -5.43,-4.809 -13.44,-7.192 -24.07,-7.192 l -16.09,0 0,-38.129 -12.81,0 0,94.851 z"
             style="fill:none;stroke:#ffffff;stroke-width:2.31288004;stroke-linecap:butt;stroke-linejoin:miter;stroke-miterlimit:4;stroke-dasharray:none;stroke-opacity:1"
             id="path252"
             inkscape:connector-curvature="0" /><path
             d="m 5394.88,1005.96 c 0,-132.89 -107.73,-240.62 -240.66,-240.62 -132.89,0 -240.63,107.73 -240.63,240.62 0,132.89 107.74,240.67 240.63,240.67 132.93,0 240.66,-107.78 240.66,-240.67 z"
             style="fill:#ffffff;fill-opacity:1;fill-rule:nonzero;stroke:none"
             id="path254"
             inkscape:connector-curvature="0" /><path
             d="m 5394.88,1005.96 c 0,-132.89 -107.73,-240.62 -240.66,-240.62 -132.89,0 -240.63,107.73 -240.63,240.62 0,132.9 107.74,240.67 240.63,240.67 132.93,0 240.66,-107.77 240.66,-240.67 z"
             style="fill:none;stroke:#0a5000;stroke-width:46.25759888;stroke-linecap:butt;stroke-linejoin:miter;stroke-miterlimit:4;stroke-dasharray:none;stroke-opacity:1"
             id="path256"
             inkscape:connector-curvature="0" /><g
             id="g258"
             transform="scale(10,10)"><text
               transform="matrix(1,0,0,-1,506.539,96.0215)"
               style="font-variant:normal;font-weight:normal;font-size:12.80000019px;font-family:'DejaVu Sans';-inkscape-font-specification:DejaVuSans;writing-mode:lr-tb;fill:#000000;fill-opacity:1;fill-rule:nonzero;stroke:none"
               id="text260"><tspan
                 x="0 9.3696003"
                 y="0"
                 sodipodi:role="line"
                 id="tspan262">UP</tspan></text>
</g><path
             d="m 5076.64,1055.07 12.97,0 0,-57.66 c 0,-10.121 1.8,-17.422 5.47,-21.883 3.63,-4.488 9.61,-6.707 17.97,-6.707 8.2,0 14.14,2.219 17.81,6.707 3.63,4.461 5.47,11.762 5.47,21.883 l 0,57.66 12.97,0 0,-59.222 c 0,-12.418 -3.09,-21.797 -9.22,-28.129 -6.17,-6.25 -15.16,-9.371 -27.03,-9.371 -12,0 -21.06,3.121 -27.19,9.371 -6.17,6.332 -9.22,15.711 -9.22,28.129 l 0,59.222 z m 108.13,-10.63 0,-35.62 16.09,0 c 5.94,0 10.51,1.56 13.75,4.68 3.32,3.13 5,7.5 5,13.13 0,5.7 -1.68,10.08 -5,13.12 -3.24,3.13 -7.81,4.69 -13.75,4.69 l -16.09,0 z m -12.82,10.63 28.91,0 c 10.62,0 18.63,-2.46 24.06,-7.35 5.39,-4.8 8.13,-11.83 8.13,-21.09 0,-9.3 -2.74,-16.33 -8.13,-21.1 -5.43,-4.8 -13.44,-7.182 -24.06,-7.182 l -16.09,0 0,-38.129 -12.82,0 0,94.851 z"
             style="fill:none;stroke:#ffffff;stroke-width:2.31288004;stroke-linecap:butt;stroke-linejoin:miter;stroke-miterlimit:4;stroke-dasharray:none;stroke-opacity:1"
             id="path264"
             inkscape:connector-curvature="0" /><path
             d="m 4615.16,273.781 c 0,-132.89 -107.74,-240.6716 -240.63,-240.6716 -132.93,0 -240.66,107.7816 -240.66,240.6716 0,132.891 107.73,240.66 240.66,240.66 132.89,0 240.63,-107.769 240.63,-240.66 z"
             style="fill:#ffffff;fill-opacity:1;fill-rule:nonzero;stroke:none"
             id="path266"
             inkscape:connector-curvature="0" /><path
             d="m 4615.16,273.777 c 0,-132.886 -107.74,-240.6676 -240.63,-240.6676 -132.93,0 -240.66,107.7816 -240.66,240.6676 0,132.891 107.73,240.661 240.66,240.661 132.89,0 240.63,-107.77 240.63,-240.661 z"
             style="fill:none;stroke:#c69600;stroke-width:46.25759888;stroke-linecap:butt;stroke-linejoin:miter;stroke-miterlimit:4;stroke-dasharray:none;stroke-opacity:1"
             id="path268"
             inkscape:connector-curvature="0" /><g
             id="g270"
             transform="scale(10,10)"><text
               transform="matrix(1,0,0,-1,418.436,30.4156)"
               style="font-variant:normal;font-weight:normal;font-size:12.80000019px;font-family:'DejaVu Sans';-inkscape-font-specification:DejaVuSans;writing-mode:lr-tb;fill:#000000;fill-opacity:1;fill-rule:nonzero;stroke:none"
               id="text272"><tspan
                 x="0 7.3728905 17.446491 27.52009 34.176048"
                 y="0"
                 sodipodi:role="line"
                 id="tspan274">FOOT-</tspan></text>
</g><path
             d="m 4197.15,399.008 54.37,0 0,-10.938 -41.56,0 0,-27.812 37.5,0 0,-10.778 -37.5,0 0,-45.312 -12.81,0 0,94.84 z m 112.19,-8.75 c -9.38,0 -16.84,-3.508 -22.35,-10.469 -5.43,-6.871 -8.12,-16.328 -8.12,-28.281 0,-11.988 2.69,-21.481 8.12,-28.438 5.51,-6.871 12.97,-10.312 22.35,-10.312 9.25,0 16.6,3.441 22.03,10.312 5.51,6.957 8.28,16.45 8.28,28.438 0,11.953 -2.77,21.41 -8.28,28.281 -5.43,6.961 -12.78,10.469 -22.03,10.469 z m 0,10.472 c 13.2,0 23.78,-4.492 31.71,-13.441 8.01,-8.98 12.04,-20.898 12.04,-35.781 0,-15 -4.03,-26.988 -12.04,-35.938 -7.93,-8.859 -18.51,-13.281 -31.71,-13.281 -13.36,0 -24.03,4.422 -32.04,13.281 -7.92,8.95 -11.87,20.938 -11.87,35.938 0,14.883 3.95,26.801 11.87,35.781 8.01,8.949 18.68,13.441 32.04,13.441 z m 100.78,-10.472 c -9.38,0 -16.84,-3.508 -22.35,-10.469 -5.43,-6.871 -8.12,-16.328 -8.12,-28.281 0,-11.988 2.69,-21.481 8.12,-28.438 5.51,-6.871 12.97,-10.312 22.35,-10.312 9.26,0 16.6,3.441 22.03,10.312 5.51,6.957 8.28,16.45 8.28,28.438 0,11.953 -2.77,21.41 -8.28,28.281 -5.43,6.961 -12.77,10.469 -22.03,10.469 z m 0,10.472 c 13.2,0 23.79,-4.492 31.72,-13.441 8,-8.98 12.03,-20.898 12.03,-35.781 0,-15 -4.03,-26.988 -12.03,-35.938 -7.93,-8.859 -18.52,-13.281 -31.72,-13.281 -13.36,0 -24.03,4.422 -32.03,13.281 -7.93,8.95 -11.88,20.938 -11.88,35.938 0,14.883 3.95,26.801 11.88,35.781 8,8.949 18.67,13.441 32.03,13.441 z m 49.18,-1.722 80.15,0 0,-10.938 -33.75,0 0,-83.902 -12.81,0 0,83.902 -33.59,0 0,10.938 z m 73.2,-54.059 34.22,0 0,-10.308 -34.22,0 0,10.308 z"
             style="fill:none;stroke:#ffffff;stroke-width:2.31288004;stroke-linecap:butt;stroke-linejoin:miter;stroke-miterlimit:4;stroke-dasharray:none;stroke-opacity:1"
             id="path276"
             inkscape:connector-curvature="0" /><g
             id="g278"
             transform="scale(10,10)"><text
               transform="matrix(1,0,0,-1,418.936,14.4156)"
               style="font-variant:normal;font-weight:normal;font-size:12.80000019px;font-family:'DejaVu Sans';-inkscape-font-specification:DejaVuSans;writing-mode:lr-tb;fill:#000000;fill-opacity:1;fill-rule:nonzero;stroke:none"
               id="text280"><tspan
                 x="0 7.7184 16.614401 20.3904 29.9648"
                 y="0"
                 sodipodi:role="line"
                 id="tspan282">PRINT</tspan></text>
</g><path
             d="m 4214.96,228.391 0,-35.633 16.09,0 c 5.94,0 10.51,1.562 13.75,4.691 3.32,3.121 5,7.5 5,13.121 0,5.707 -1.68,10.078 -5,13.129 -3.24,3.121 -7.81,4.692 -13.75,4.692 l -16.09,0 z m -12.81,10.617 28.9,0 c 10.63,0 18.64,-2.457 24.07,-7.34 5.39,-4.809 8.12,-11.84 8.12,-21.098 0,-9.293 -2.73,-16.32 -8.12,-21.09 -5.43,-4.8 -13.44,-7.191 -24.07,-7.191 l -16.09,0 0,-38.121 -12.81,0 0,94.84 z m 122.11,-50.469 c 2.81,-0.93 5.51,-2.93 8.12,-5.93 2.58,-3.05 5.2,-7.191 7.82,-12.5 l 12.96,-25.941 -13.75,0 -12.18,24.371 c -3.13,6.332 -6.18,10.512 -9.07,12.5 -2.93,2.07 -6.95,3.129 -12.03,3.129 l -13.9,0 0,-40 -12.82,0 0,94.84 28.91,0 c 10.82,0 18.91,-2.297 24.22,-6.867 5.31,-4.5 7.97,-11.332 7.97,-20.473 0,-5.938 -1.41,-10.898 -4.22,-14.848 -2.74,-3.98 -6.72,-6.711 -12.03,-8.281 z m -32.03,39.852 0,-33.602 16.09,0 c 6.13,0 10.78,1.41 13.91,4.219 3.2,2.89 4.84,7.113 4.84,12.66 0,5.512 -1.64,9.691 -4.84,12.5 -3.13,2.812 -7.78,4.223 -13.91,4.223 l -16.09,0 z m 76.17,10.617 12.81,0 0,-94.84 -12.81,0 0,94.84 z m 37.77,0 17.19,0 42.03,-79.367 0,79.367 12.5,0 0,-94.84 -17.34,0 -42.03,79.223 0,-79.223 -12.35,0 0,94.84 z m 82.62,0 80.16,0 0,-10.938 -33.75,0 0,-83.902 -12.82,0 0,83.902 -33.59,0 0,10.938 z"
             style="fill:none;stroke:#ffffff;stroke-width:2.31288004;stroke-linecap:butt;stroke-linejoin:miter;stroke-miterlimit:4;stroke-dasharray:none;stroke-opacity:1"
             id="path284"
             inkscape:connector-curvature="0" /><path
             d="m 3879.3,1743.93 169.92,0"
             style="fill:none;stroke:#000000;stroke-width:38.23910141;stroke-linecap:butt;stroke-linejoin:miter;stroke-miterlimit:4;stroke-dasharray:none;stroke-opacity:1"
             id="path286"
             inkscape:connector-curvature="0" /><path
             d="m 3975.62,1790.18 125.32,-46.09 -125.32,-46.1 c 20,27.23 19.89,64.46 0,92.19 z"
             style="fill:#000000;fill-opacity:1;fill-rule:evenodd;stroke:none"
             id="path288"
             inkscape:connector-curvature="0" /><path
             d="m 4653.2,1743.93 169.96,0"
             style="fill:none;stroke:#000000;stroke-width:38.23910141;stroke-linecap:butt;stroke-linejoin:miter;stroke-miterlimit:4;stroke-dasharray:none;stroke-opacity:1"
             id="path290"
             inkscape:connector-curvature="0" /><path
             d="m 4749.53,1790.18 125.35,-46.09 -125.35,-46.1 c 20.04,27.23 19.92,64.46 0,92.19 z"
             style="fill:#000000;fill-opacity:1;fill-rule:evenodd;stroke:none"
             id="path292"
             inkscape:connector-curvature="0" /><path
             d="m 4098.79,999.211 -169.96,0"
             style="fill:none;stroke:#000000;stroke-width:38.23910141;stroke-linecap:butt;stroke-linejoin:miter;stroke-miterlimit:4;stroke-dasharray:none;stroke-opacity:1"
             id="path294"
             inkscape:connector-curvature="0" /><path
             d="m 4002.46,952.922 -125.35,46.09 125.35,46.088 c -20.04,-27.22 -19.92,-64.452 0,-92.178 z"
             style="fill:#000000;fill-opacity:1;fill-rule:evenodd;stroke:none"
             id="path296"
             inkscape:connector-curvature="0" /><path
             d="m 4874.45,999.211 -169.96,0"
             style="fill:none;stroke:#000000;stroke-width:38.23910141;stroke-linecap:butt;stroke-linejoin:miter;stroke-miterlimit:4;stroke-dasharray:none;stroke-opacity:1"
             id="path298"
             inkscape:connector-curvature="0" /><path
             d="m 4778.12,952.922 -125.35,46.09 125.35,46.088 c -20.03,-27.22 -19.92,-64.452 0,-92.178 z"
             style="fill:#000000;fill-opacity:1;fill-rule:evenodd;stroke:none"
             id="path300"
             inkscape:connector-curvature="0" /><path
             d="m 3312.23,1430.5 2857.23,0 0,623.668 -2857.23,0 0,-623.668 z"
             style="fill:none;stroke:#969696;stroke-width:25.30290031;stroke-linecap:butt;stroke-linejoin:miter;stroke-miterlimit:4;stroke-dasharray:50.6058, 50.6058;stroke-dashoffset:0;stroke-opacity:1"
             id="path302"
             inkscape:connector-curvature="0" /><path
             d="m 3312.23,690.258 2857.23,0 0,623.672 -2857.23,0 0,-623.672 z"
             style="fill:none;stroke:#969696;stroke-width:25.30330086;stroke-linecap:butt;stroke-linejoin:miter;stroke-miterlimit:4;stroke-dasharray:50.6065, 50.6065;stroke-dashoffset:0;stroke-opacity:1"
             id="path304"
             inkscape:connector-curvature="0" /><g
             id="g306"
             transform="scale(10,10)"><text
               transform="matrix(1,0,0,-1,554.281,177.501)"
               style="font-variant:normal;font-weight:bold;font-size:12.9520998px;font-family:'DejaVu Sans';-inkscape-font-specification:DejaVuSans-Bold;writing-mode:lr-tb;fill:#969696;fill-opacity:1;fill-rule:nonzero;stroke:none"
               id="text308"><tspan
                 x="0 10.85386 15.309516 23.016016 29.220011 38.118103 47.352985"
                 y="0"
                 sodipodi:role="line"
                 id="tspan310">Histone</tspan><tspan
                 x="8.7148399 16.965328 25.746851 34.19162 42.973145"
                 y="16.190201"
                 sodipodi:role="line"
                 id="tspan312">Level</tspan><tspan
                 x="4.64218 15.392423 26.246124 35.001778 42.708279"
                 y="73.8246"
                 sodipodi:role="line"
                 id="tspan314">DNase</tspan><tspan
                 x="8.7148399 16.965328 25.746851 34.19162 42.973145"
                 y="90.014801"
                 sodipodi:role="line"
                 id="tspan316">Level</tspan></text>
</g><path
             d="M 4100.51,2364.44 3770.23,2034.17"
             style="fill:none;stroke:#000000;stroke-width:40.86700058;stroke-linecap:butt;stroke-linejoin:miter;stroke-miterlimit:4;stroke-dasharray:none;stroke-opacity:1"
             id="path318"
             inkscape:connector-curvature="0" /><path
             d="m 3860.86,2054.83 -129.57,-59.88 59.88,129.57 c 5.43,-35.7 33.67,-63.75 69.69,-69.69 z"
             style="fill:#000000;fill-opacity:1;fill-rule:evenodd;stroke:none"
             id="path320"
             inkscape:connector-curvature="0" /><path
             d="M 5005.98,1997.72 4675.7,2327.96"
             style="fill:none;stroke:#000000;stroke-width:40.86700058;stroke-linecap:butt;stroke-linejoin:miter;stroke-miterlimit:4;stroke-dasharray:none;stroke-opacity:1"
             id="path322"
             inkscape:connector-curvature="0" /><path
             d="m 4696.37,2237.37 -59.89,129.53 129.57,-59.88 c -35.7,-5.43 -63.75,-33.67 -69.68,-69.65 z"
             style="fill:#000000;fill-opacity:1;fill-rule:evenodd;stroke:none"
             id="path324"
             inkscape:connector-curvature="0" /><path
             d="m 3603.16,1284.91 0,126.95"
             style="fill:none;stroke:#000000;stroke-width:35.90219879;stroke-linecap:butt;stroke-linejoin:miter;stroke-miterlimit:4;stroke-dasharray:none;stroke-opacity:1"
             id="path326"
             inkscape:connector-curvature="0" /><path
             d="m 3559.73,1342.72 43.28,117.66 43.28,-117.66 c -25.55,18.79 -60.51,18.67 -86.56,0 z"
             style="fill:#000000;fill-opacity:1;fill-rule:evenodd;stroke:none"
             id="path328"
             inkscape:connector-curvature="0" /><path
             d="m 5151.84,1456.47 0,-126.95"
             style="fill:none;stroke:#000000;stroke-width:35.90219879;stroke-linecap:butt;stroke-linejoin:miter;stroke-miterlimit:4;stroke-dasharray:none;stroke-opacity:1"
             id="path330"
             inkscape:connector-curvature="0" /><path
             d="m 5195.27,1398.66 -43.28,-117.7 -43.24,117.7 c 25.55,-18.79 60.51,-18.67 86.52,0 z"
             style="fill:#000000;fill-opacity:1;fill-rule:evenodd;stroke:none"
             id="path332"
             inkscape:connector-curvature="0" /><path
             d="M 3751.6,748.699 4081.84,418.43"
             style="fill:none;stroke:#000000;stroke-width:40.86700058;stroke-linecap:butt;stroke-linejoin:miter;stroke-miterlimit:4;stroke-dasharray:none;stroke-opacity:1"
             id="path334"
             inkscape:connector-curvature="0" /><path
             d="m 4061.17,509.051 59.88,-129.571 -129.53,59.879 c 35.71,5.43 63.75,33.672 69.65,69.692 z"
             style="fill:#000000;fill-opacity:1;fill-rule:evenodd;stroke:none"
             id="path336"
             inkscape:connector-curvature="0" /><path
             d="M 4657.07,376.551 4987.3,706.82"
             style="fill:none;stroke:#000000;stroke-width:40.86700058;stroke-linecap:butt;stroke-linejoin:miter;stroke-miterlimit:4;stroke-dasharray:none;stroke-opacity:1"
             id="path338"
             inkscape:connector-curvature="0" /><path
             d="m 4896.72,686.121 129.53,59.918 -59.88,-129.57 c -5.43,35.703 -33.67,63.75 -69.65,69.652 z"
             style="fill:#000000;fill-opacity:1;fill-rule:evenodd;stroke:none"
             id="path340"
             inkscape:connector-curvature="0" /><path
             d="m 4693.71,2579.83 c 0,0 1329.34,-606.09 715.2,-1345.51"
             style="fill:none;stroke:#a50000;stroke-width:40.86399841;stroke-linecap:butt;stroke-linejoin:miter;stroke-miterlimit:4;stroke-dasharray:none;stroke-opacity:1"
             id="path342"
             inkscape:connector-curvature="0" /><path
             d="m 5497.19,1263.23 -123.44,-71.56 47.7,134.53 c 8.67,-35.04 39.37,-60.39 75.74,-62.97 z"
             style="fill:#a50000;fill-opacity:1;fill-rule:evenodd;stroke:none"
             id="path344"
             inkscape:connector-curvature="0" /><path
             d="m 5497.18,1263.23 -123.43,-71.56 47.69,134.53 c 8.68,-35.04 39.38,-60.39 75.74,-62.97 z"
             style="fill:none;stroke:#a50000;stroke-width:7.66199017;stroke-linecap:butt;stroke-linejoin:round;stroke-miterlimit:4;stroke-dasharray:none;stroke-opacity:1"
             id="path346"
             inkscape:connector-curvature="0" /><path
             d="m 4065.08,2579.83 c 0,0 -1329.38,-606.09 -715.2,-1345.51"
             style="fill:none;stroke:#a50000;stroke-width:40.86399841;stroke-linecap:butt;stroke-linejoin:miter;stroke-miterlimit:4;stroke-dasharray:none;stroke-opacity:1"
             id="path348"
             inkscape:connector-curvature="0" /><path
             d="m 3972.97,2592.17 142.3,10.75 -101.44,-100.35 c 7.42,35.31 -9.22,71.48 -40.86,89.6 z"
             style="fill:#a50000;fill-opacity:1;fill-rule:evenodd;stroke:none"
             id="path350"
             inkscape:connector-curvature="0" /><path
             d="m 3972.97,2592.17 142.3,10.74 -101.43,-100.35 c 7.41,35.32 -9.23,71.49 -40.87,89.61 z"
             style="fill:none;stroke:#a50000;stroke-width:7.66199017;stroke-linecap:butt;stroke-linejoin:round;stroke-miterlimit:4;stroke-dasharray:none;stroke-opacity:1"
             id="path352"
             inkscape:connector-curvature="0" /><path
             d="m 7344.53,2470.42 c 0,-132.89 -107.73,-240.63 -240.66,-240.63 -132.89,0 -240.63,107.74 -240.63,240.63 0,132.89 107.74,240.66 240.63,240.66 132.93,0 240.66,-107.77 240.66,-240.66 z"
             style="fill:#ffffff;fill-opacity:1;fill-rule:nonzero;stroke:none"
             id="path354"
             inkscape:connector-curvature="0" /><path
             d="m 7344.53,2470.42 c 0,-132.89 -107.73,-240.63 -240.66,-240.63 -132.89,0 -240.63,107.74 -240.63,240.63 0,132.89 107.74,240.66 240.63,240.66 132.93,0 240.66,-107.77 240.66,-240.66 z"
             style="fill:none;stroke:#323232;stroke-width:46.25759888;stroke-linecap:butt;stroke-linejoin:miter;stroke-miterlimit:4;stroke-dasharray:none;stroke-opacity:1"
             id="path356"
             inkscape:connector-curvature="0" /><g
             id="g358"
             transform="scale(10,10)"><text
               transform="matrix(1,0,0,-1,692.304,242.382)"
               style="font-variant:normal;font-weight:normal;font-size:12.80000019px;font-family:'DejaVu Sans';-inkscape-font-specification:DejaVuSans;writing-mode:lr-tb;fill:#000000;fill-opacity:1;fill-rule:nonzero;stroke:none"
               id="text360"><tspan
                 x="0 8.7807999 17.292641 26.239931"
                 y="0"
                 sodipodi:role="line"
                 id="tspan362">BACK</tspan></text>
</g><path
             d="m 6948.67,2469.13 0,-34.84 20.47,0 c 6.95,0 12.07,1.4 15.31,4.21 3.32,2.89 5,7.35 5,13.29 0,5.93 -1.68,10.31 -5,13.12 -3.24,2.81 -8.36,4.22 -15.31,4.22 l -20.47,0 z m 0,38.9 0,-28.59 18.91,0 c 6.25,0 10.86,1.13 13.9,3.44 3.13,2.38 4.69,6.01 4.69,10.94 0,4.76 -1.56,8.32 -4.69,10.62 -3.04,2.38 -7.65,3.59 -13.9,3.59 l -18.91,0 z m -12.81,10.63 32.66,0 c 9.76,0 17.34,-2.03 22.65,-6.09 5.31,-4.07 7.97,-9.85 7.97,-17.35 0,-5.86 -1.37,-10.47 -4.06,-13.9 -2.74,-3.44 -6.72,-5.59 -12.03,-6.41 6.33,-1.37 11.25,-4.18 14.68,-8.44 3.52,-4.29 5.32,-9.65 5.32,-16.09 0,-8.44 -2.93,-15 -8.75,-19.69 -5.75,-4.61 -13.91,-6.87 -24.53,-6.87 l -33.91,0 0,94.84 z m 119.3,-12.66 -17.35,-47.18 34.85,0 -17.5,47.18 z m -7.19,12.66 14.53,0 36.09,-94.84 -13.28,0 -8.59,24.37 -42.81,0 -8.6,-24.37 -13.43,0 36.09,94.84 z m 131.83,-7.34 0,-13.6 c -4.37,4.07 -9.02,7.07 -13.9,9.07 -4.81,1.95 -9.96,2.96 -15.47,2.96 -10.86,0 -19.18,-3.36 -25,-10 -5.74,-6.56 -8.59,-16.09 -8.59,-28.59 0,-12.5 2.85,-22.11 8.59,-28.75 5.82,-6.56 14.14,-9.84 25,-9.84 5.51,0 10.66,0.97 15.47,2.96 4.88,1.96 9.53,4.93 13.9,8.91 l 0,-13.28 c -4.49,-3.13 -9.21,-5.47 -14.21,-7.03 -5,-1.45 -10.32,-2.19 -15.94,-2.19 -14.38,0 -25.7,4.38 -33.91,13.13 -8.24,8.82 -12.34,20.86 -12.34,36.09 0,15.2 4.1,27.19 12.34,35.94 8.21,8.83 19.53,13.28 33.91,13.28 5.62,0 10.94,-0.78 15.94,-2.35 5.07,-1.48 9.84,-3.71 14.21,-6.71 z m 18.56,7.34 12.81,0 0,-40.16 42.5,40.16 16.56,0 -47.03,-44.22 50.32,-50.62 -16.88,0 -45.47,45.62 0,-45.62 -12.81,0 0,94.84 z"
             style="fill:none;stroke:#ffffff;stroke-width:2.31288004;stroke-linecap:butt;stroke-linejoin:miter;stroke-miterlimit:4;stroke-dasharray:none;stroke-opacity:1"
             id="path364"
             inkscape:connector-curvature="0" /><path
             d="m 7344.77,1738.23 c 0,-132.89 -107.74,-240.66 -240.67,-240.66 -132.89,0 -240.62,107.77 -240.62,240.66 0,132.89 107.73,240.62 240.62,240.62 132.93,0 240.67,-107.73 240.67,-240.62 z"
             style="fill:#ffffff;fill-opacity:1;fill-rule:nonzero;stroke:none"
             id="path366"
             inkscape:connector-curvature="0" /><path
             d="m 7344.77,1738.23 c 0,-132.89 -107.74,-240.66 -240.67,-240.66 -132.89,0 -240.62,107.77 -240.62,240.66 0,132.89 107.73,240.63 240.62,240.63 132.93,0 240.67,-107.74 240.67,-240.63 z"
             style="fill:none;stroke:#5ab4f0;stroke-width:46.25759888;stroke-linecap:butt;stroke-linejoin:miter;stroke-miterlimit:4;stroke-dasharray:none;stroke-opacity:1"
             id="path368"
             inkscape:connector-curvature="0" /><path
             d="m 7344.84,1006.04 c 0,-132.892 -107.73,-240.661 -240.66,-240.661 -132.89,0 -240.63,107.769 -240.63,240.661 0,132.89 107.74,240.63 240.63,240.63 132.93,0 240.66,-107.74 240.66,-240.63 z"
             style="fill:#ffffff;fill-opacity:1;fill-rule:nonzero;stroke:none"
             id="path370"
             inkscape:connector-curvature="0" /><path
             d="m 7344.84,1006.04 c 0,-132.892 -107.73,-240.661 -240.66,-240.661 -132.89,0 -240.63,107.769 -240.63,240.661 0,132.89 107.74,240.63 240.63,240.63 132.93,0 240.66,-107.74 240.66,-240.63 z"
             style="fill:none;stroke:#142896;stroke-width:46.25759888;stroke-linecap:butt;stroke-linejoin:miter;stroke-miterlimit:4;stroke-dasharray:none;stroke-opacity:1"
             id="path372"
             inkscape:connector-curvature="0" /><path
             d="m 7339.92,273.852 c 0,-132.891 -107.73,-240.6606 -240.62,-240.6606 -132.89,0 -240.67,107.7696 -240.67,240.6606 0,132.886 107.78,240.628 240.67,240.628 132.89,0 240.62,-107.742 240.62,-240.628 z"
             style="fill:#ffffff;fill-opacity:1;fill-rule:nonzero;stroke:none"
             id="path374"
             inkscape:connector-curvature="0" /><path
             d="m 7339.92,273.859 c 0,-132.898 -107.73,-240.6715 -240.62,-240.6715 -132.89,0 -240.67,107.7735 -240.67,240.6715 0,132.891 107.78,240.621 240.67,240.621 132.89,0 240.62,-107.73 240.62,-240.621 z"
             style="fill:none;stroke:#c69600;stroke-width:46.25759888;stroke-linecap:butt;stroke-linejoin:miter;stroke-miterlimit:4;stroke-dasharray:none;stroke-opacity:1"
             id="path376"
             inkscape:connector-curvature="0" /><g
             id="g378"
             transform="scale(10,10)"><text
               transform="matrix(1,0,0,-1,690.913,30.423)"
               style="font-variant:normal;font-weight:normal;font-size:12.80000019px;font-family:'DejaVu Sans';-inkscape-font-specification:DejaVuSans;writing-mode:lr-tb;fill:#000000;fill-opacity:1;fill-rule:nonzero;stroke:none"
               id="text380"><tspan
                 x="0 7.3728905 17.446491 27.52009 34.176048"
                 y="0"
                 sodipodi:role="line"
                 id="tspan382">FOOT-</tspan></text>
</g><path
             d="m 6921.95,399.09 54.38,0 0,-10.942 -41.56,0 0,-27.808 37.5,0 0,-10.781 -37.5,0 0,-45.309 -12.82,0 0,94.84 z m 112.19,-8.75 c -9.37,0 -16.84,-3.52 -22.34,-10.469 -5.43,-6.871 -8.13,-16.332 -8.13,-28.281 0,-11.992 2.7,-21.481 8.13,-28.442 5.5,-6.871 12.97,-10.308 22.34,-10.308 9.26,0 16.6,3.437 22.03,10.308 5.51,6.961 8.28,16.45 8.28,28.442 0,11.949 -2.77,21.41 -8.28,28.281 -5.43,6.949 -12.77,10.469 -22.03,10.469 z m 0,10.469 c 13.2,0 23.79,-4.489 31.72,-13.438 8.01,-8.98 12.03,-20.902 12.03,-35.781 0,-15 -4.02,-26.992 -12.03,-35.942 -7.93,-8.859 -18.52,-13.277 -31.72,-13.277 -13.36,0 -24.02,4.418 -32.03,13.277 -7.93,8.95 -11.88,20.942 -11.88,35.942 0,14.879 3.95,26.801 11.88,35.781 8.01,8.949 18.67,13.438 32.03,13.438 z m 100.74,-10.469 c -9.37,0 -16.83,-3.52 -22.34,-10.469 -5.43,-6.871 -8.13,-16.332 -8.13,-28.281 0,-11.992 2.7,-21.481 8.13,-28.442 5.51,-6.871 12.97,-10.308 22.34,-10.308 9.26,0 16.6,3.437 22.03,10.308 5.51,6.961 8.29,16.45 8.29,28.442 0,11.949 -2.78,21.41 -8.29,28.281 -5.43,6.949 -12.77,10.469 -22.03,10.469 z m 0,10.469 c 13.21,0 23.79,-4.489 31.72,-13.438 8.01,-8.98 12.03,-20.902 12.03,-35.781 0,-15 -4.02,-26.992 -12.03,-35.942 -7.93,-8.859 -18.51,-13.277 -31.72,-13.277 -13.36,0 -24.02,4.418 -32.03,13.277 -7.93,8.95 -11.87,20.942 -11.87,35.942 0,14.879 3.94,26.801 11.87,35.781 8.01,8.949 18.67,13.438 32.03,13.438 z m 49.18,-1.719 80.16,0 0,-10.942 -33.75,0 0,-83.898 -12.81,0 0,83.898 -33.6,0 0,10.942 z m 73.24,-54.063 34.22,0 0,-10.316 -34.22,0 0,10.316 z"
             style="fill:none;stroke:#ffffff;stroke-width:2.31288004;stroke-linecap:butt;stroke-linejoin:miter;stroke-miterlimit:4;stroke-dasharray:none;stroke-opacity:1"
             id="path384"
             inkscape:connector-curvature="0" /><g
             id="g386"
             transform="scale(10,10)"><text
               transform="matrix(1,0,0,-1,691.413,14.423)"
               style="font-variant:normal;font-weight:normal;font-size:12.80000019px;font-family:'DejaVu Sans';-inkscape-font-specification:DejaVuSans;writing-mode:lr-tb;fill:#000000;fill-opacity:1;fill-rule:nonzero;stroke:none"
               id="text388"><tspan
                 x="0 7.7184 16.614401 20.3904 29.9648"
                 y="0"
                 sodipodi:role="line"
                 id="tspan390">PRINT</tspan></text>
</g><path
             d="m 6939.77,228.461 0,-35.621 16.09,0 c 5.94,0 10.51,1.558 13.75,4.687 3.32,3.121 5,7.5 5,13.121 0,5.711 -1.68,10.082 -5,13.129 -3.24,3.121 -7.81,4.684 -13.75,4.684 l -16.09,0 z m -12.82,10.629 28.91,0 c 10.62,0 18.63,-2.461 24.06,-7.34 5.39,-4.812 8.13,-11.84 8.13,-21.102 0,-9.289 -2.74,-16.328 -8.13,-21.089 -5.43,-4.809 -13.44,-7.188 -24.06,-7.188 l -16.09,0 0,-38.121 -12.82,0 0,94.84 z m 122.07,-50.469 c 2.82,-0.941 5.51,-2.933 8.13,-5.941 2.58,-3.039 5.19,-7.18 7.81,-12.5 l 12.97,-25.93 -13.75,0 -12.19,24.371 c -3.12,6.328 -6.17,10.508 -9.06,12.5 -2.93,2.067 -6.95,3.129 -12.03,3.129 l -13.91,0 0,-40 -12.81,0 0,94.84 28.91,0 c 10.82,0 18.9,-2.301 24.21,-6.879 5.32,-4.492 7.97,-11.32 7.97,-20.461 0,-5.941 -1.4,-10.902 -4.22,-14.852 -2.73,-3.98 -6.71,-6.718 -12.03,-8.277 z m -32.03,39.84 0,-33.59 16.1,0 c 6.13,0 10.78,1.406 13.9,4.219 3.21,2.89 4.85,7.109 4.85,12.66 0,5.5 -1.64,9.68 -4.85,12.5 -3.12,2.809 -7.77,4.211 -13.9,4.211 l -16.1,0 z m 76.21,10.629 12.82,0 0,-94.84 -12.82,0 0,94.84 z m 37.74,0 17.18,0 42.04,-79.379 0,79.379 12.5,0 0,-94.84 -17.35,0 -42.03,79.211 0,-79.211 -12.34,0 0,94.84 z m 82.61,0 80.16,0 0,-10.942 -33.75,0 0,-83.898 -12.81,0 0,83.898 -33.6,0 0,10.942 z"
             style="fill:none;stroke:#ffffff;stroke-width:2.31288004;stroke-linecap:butt;stroke-linejoin:miter;stroke-miterlimit:4;stroke-dasharray:none;stroke-opacity:1"
             id="path392"
             inkscape:connector-curvature="0" /><path
             d="m 6771.8,1430.58 1178.44,0 0,623.672 -1178.44,0 0,-623.672 z"
             style="fill:none;stroke:#969696;stroke-width:25.30290031;stroke-linecap:butt;stroke-linejoin:miter;stroke-miterlimit:4;stroke-dasharray:50.6058, 50.6058;stroke-dashoffset:0;stroke-opacity:1"
             id="path394"
             inkscape:connector-curvature="0" /><g
             id="g396"
             transform="scale(10,10)"><text
               transform="matrix(1,0,0,-1,737.766,177.508)"
               style="font-variant:normal;font-weight:bold;font-size:12.9520998px;font-family:'DejaVu Sans';-inkscape-font-specification:DejaVuSans-Bold;writing-mode:lr-tb;fill:#969696;fill-opacity:1;fill-rule:nonzero;stroke:none"
               id="text398"><tspan
                 x="0 10.85386 15.309516 23.016016 29.220011 38.118103 47.352985"
                 y="0"
                 sodipodi:role="line"
                 id="tspan400">Histone</tspan><tspan
                 x="8.7148399 16.965328 25.746851 34.19162 42.973145"
                 y="16.190201"
                 sodipodi:role="line"
                 id="tspan402">Level</tspan><tspan
                 x="4.6484299 15.398673 26.252373 35.00803 42.714527"
                 y="73.8246"
                 sodipodi:role="line"
                 id="tspan404">DNase</tspan><tspan
                 x="8.7210903 16.971579 25.753101 34.197872 42.979393"
                 y="90.014801"
                 sodipodi:role="line"
                 id="tspan406">Level</tspan></text>
</g><path
             d="m 6771.8,688.469 1178.44,0 0,623.629 -1178.44,0 0,-623.629 z"
             style="fill:none;stroke:#969696;stroke-width:25.30290031;stroke-linecap:butt;stroke-linejoin:miter;stroke-miterlimit:4;stroke-dasharray:50.6058, 50.6058;stroke-dashoffset:0;stroke-opacity:1"
             id="path408"
             inkscape:connector-curvature="0" /><path
             d="m 7041.8,1292.92 0,126.95"
             style="fill:none;stroke:#000000;stroke-width:35.90219879;stroke-linecap:butt;stroke-linejoin:miter;stroke-miterlimit:4;stroke-dasharray:none;stroke-opacity:1"
             id="path410"
             inkscape:connector-curvature="0" /><path
             d="m 6998.32,1350.73 43.28,117.69 43.28,-117.69 c -25.54,18.79 -60.5,18.71 -86.56,0 z"
             style="fill:#000000;fill-opacity:1;fill-rule:evenodd;stroke:none"
             id="path412"
             inkscape:connector-curvature="0" /><path
             d="m 7166.45,1450.46 0,-126.92"
             style="fill:none;stroke:#000000;stroke-width:35.90219879;stroke-linecap:butt;stroke-linejoin:miter;stroke-miterlimit:4;stroke-dasharray:none;stroke-opacity:1"
             id="path414"
             inkscape:connector-curvature="0" /><path
             d="m 7209.88,1392.64 -43.28,-117.65 -43.28,117.65 c 25.55,-18.79 60.51,-18.67 86.56,0 z"
             style="fill:#000000;fill-opacity:1;fill-rule:evenodd;stroke:none"
             id="path416"
             inkscape:connector-curvature="0" /><path
             d="m 7041.8,2024.36 0,126.92"
             style="fill:none;stroke:#000000;stroke-width:35.90219879;stroke-linecap:butt;stroke-linejoin:miter;stroke-miterlimit:4;stroke-dasharray:none;stroke-opacity:1"
             id="path418"
             inkscape:connector-curvature="0" /><path
             d="m 6998.32,2082.14 43.28,117.69 43.28,-117.69 c -25.54,18.82 -60.5,18.71 -86.56,0 z"
             style="fill:#000000;fill-opacity:1;fill-rule:evenodd;stroke:none"
             id="path420"
             inkscape:connector-curvature="0" /><path
             d="m 7166.45,2181.86 0,-126.91"
             style="fill:none;stroke:#000000;stroke-width:35.90219879;stroke-linecap:butt;stroke-linejoin:miter;stroke-miterlimit:4;stroke-dasharray:none;stroke-opacity:1"
             id="path422"
             inkscape:connector-curvature="0" /><path
             d="m 7209.88,2124.09 -43.28,-117.7 -43.28,117.7 c 25.55,-18.83 60.51,-18.71 86.56,0 z"
             style="fill:#000000;fill-opacity:1;fill-rule:evenodd;stroke:none"
             id="path424"
             inkscape:connector-curvature="0" /><path
             d="m 7041.8,559.641 0,126.91"
             style="fill:none;stroke:#000000;stroke-width:35.90219879;stroke-linecap:butt;stroke-linejoin:miter;stroke-miterlimit:4;stroke-dasharray:none;stroke-opacity:1"
             id="path426"
             inkscape:connector-curvature="0" /><path
             d="m 6998.32,617.41 43.28,117.692 43.28,-117.692 c -25.54,18.828 -60.5,18.711 -86.56,0 z"
             style="fill:#000000;fill-opacity:1;fill-rule:evenodd;stroke:none"
             id="path428"
             inkscape:connector-curvature="0" /><path
             d="m 7166.45,717.141 0,-126.922"
             style="fill:none;stroke:#000000;stroke-width:35.90219879;stroke-linecap:butt;stroke-linejoin:miter;stroke-miterlimit:4;stroke-dasharray:none;stroke-opacity:1"
             id="path430"
             inkscape:connector-curvature="0" /><path
             d="m 7209.88,659.359 -43.28,-117.687 -43.28,117.687 c 25.55,-18.828 60.51,-18.711 86.56,0 z"
             style="fill:#000000;fill-opacity:1;fill-rule:evenodd;stroke:none"
             id="path432"
             inkscape:connector-curvature="0" /><g
             id="g434"
             transform="scale(10,10)"><text
               transform="matrix(1,0,0,-1,83.8734,287.313)"
               style="font-variant:normal;font-weight:normal;font-size:32px;font-family:'DejaVu Sans';-inkscape-font-specification:DejaVuSans;writing-mode:lr-tb;fill:#000000;fill-opacity:1;fill-rule:nonzero;stroke:none"
               id="text436"><tspan
                 x="0 27.615999"
                 y="0"
                 sodipodi:role="line"
                 id="tspan438">M1</tspan><tspan
                 x="330.07599 357.69199 602.23279 629.84882"
                 y="0.421875"
                 sodipodi:role="line"
                 id="tspan440">M2M3</tspan></text>
<text
               transform="matrix(1,0,0,-1,693.9364,169.16312)"
               style="font-variant:normal;font-weight:normal;font-size:12.80000019px;font-family:'DejaVu Sans';-inkscape-font-specification:DejaVuSans;writing-mode:lr-tb;fill:#000000;fill-opacity:1;fill-rule:nonzero;stroke:none"
               id="text442"><tspan
                 x="0 9.6255999 13.4016 23.3216"
                 y="0"
                 sodipodi:role="line"
                 id="tspan444">HIGH</tspan></text>
</g><path
             d="m 6952.19,1786.47 12.81,0 0,-38.9 46.56,0 0,38.9 12.82,0 0,-94.84 -12.82,0 0,45.16 -46.56,0 0,-45.16 -12.81,0 0,94.84 z m 96.25,0 12.81,0 0,-94.84 -12.81,0 0,94.84 z m 102.26,-81.25 0,25.31 -20.93,0 0,10.63 33.59,0 0,-40.78 c -4.92,-3.44 -10.39,-6.09 -16.41,-7.97 -5.93,-1.76 -12.3,-2.66 -19.06,-2.66 -14.8,0 -26.37,4.3 -34.69,12.97 -8.36,8.64 -12.5,20.71 -12.5,36.25 0,15.39 4.14,27.42 12.5,36.1 8.32,8.75 19.89,13.12 34.69,13.12 6.25,0 12.11,-0.78 17.66,-2.34 5.62,-1.56 10.78,-3.83 15.47,-6.72 l 0,-13.75 c -4.81,4.06 -9.85,7.07 -15.16,9.06 -5.31,2.07 -10.94,3.13 -16.88,3.13 -11.56,0 -20.27,-3.25 -26.09,-9.69 -5.86,-6.49 -8.75,-16.09 -8.75,-28.91 0,-12.81 2.89,-22.46 8.75,-28.9 5.82,-6.49 14.53,-9.69 26.09,-9.69 4.57,0 8.64,0.35 12.19,1.09 3.52,0.82 6.72,2.07 9.53,3.75 z m 34.73,81.25 12.81,0 0,-38.9 46.56,0 0,38.9 12.82,0 0,-94.84 -12.82,0 0,45.16 -46.56,0 0,-45.16 -12.81,0 0,94.84 z"
             style="fill:none;stroke:#ffffff;stroke-width:2.31288004;stroke-linecap:butt;stroke-linejoin:miter;stroke-miterlimit:4;stroke-dasharray:none;stroke-opacity:1"
             id="path446"
             inkscape:connector-curvature="0" /><g
             id="g448"
             transform="scale(10,10)"><text
               transform="matrix(1,0,0,-1,693.945,95.9445)"
               style="font-variant:normal;font-weight:normal;font-size:12.80000019px;font-family:'DejaVu Sans';-inkscape-font-specification:DejaVuSans;writing-mode:lr-tb;fill:#000000;fill-opacity:1;fill-rule:nonzero;stroke:none"
               id="text450"><tspan
                 x="0 9.6255999 13.4016 23.3216"
                 y="0"
                 sodipodi:role="line"
                 id="tspan452">HIGH</tspan></text>
</g><path
             d="m 6952.27,1054.29 12.81,0 0,-38.91 46.56,0 0,38.91 12.81,0 0,-94.852 -12.81,0 0,45.162 -46.56,0 0,-45.162 -12.81,0 0,94.852 z m 96.25,0 12.81,0 0,-94.852 -12.81,0 0,94.852 z m 102.26,-81.263 0,25.321 -20.94,0 0,10.622 33.6,0 0,-40.782 c -4.92,-3.438 -10.39,-6.09 -16.41,-7.969 -5.94,-1.758 -12.3,-2.649 -19.06,-2.649 -14.81,0 -26.37,4.289 -34.69,12.957 -8.36,8.641 -12.5,20.711 -12.5,36.263 0,15.39 4.14,27.42 12.5,36.09 8.32,8.75 19.88,13.12 34.69,13.12 6.25,0 12.11,-0.78 17.65,-2.34 5.63,-1.56 10.79,-3.83 15.47,-6.72 l 0,-13.75 c -4.8,4.06 -9.84,7.07 -15.15,9.06 -5.32,2.07 -10.94,3.13 -16.88,3.13 -11.56,0 -20.27,-3.24 -26.09,-9.69 -5.86,-6.48 -8.75,-16.09 -8.75,-28.9 0,-12.821 2.89,-22.47 8.75,-28.911 5.82,-6.488 14.53,-9.691 26.09,-9.691 4.57,0 8.64,0.351 12.19,1.101 3.52,0.82 6.72,2.07 9.53,3.738 z m 34.73,81.263 12.81,0 0,-38.91 46.56,0 0,38.91 12.82,0 0,-94.852 -12.82,0 0,45.162 -46.56,0 0,-45.162 -12.81,0 0,94.852 z"
             style="fill:none;stroke:#ffffff;stroke-width:2.31288004;stroke-linecap:butt;stroke-linejoin:miter;stroke-miterlimit:4;stroke-dasharray:none;stroke-opacity:1"
             id="path454"
             inkscape:connector-curvature="0" /></g></g></g><text
       xml:space="preserve"
       style="font-style:normal;font-weight:normal;font-size:32px;line-height:125%;font-family:sans-serif;letter-spacing:0px;word-spacing:0px;fill:#000000;fill-opacity:1;stroke:none;stroke-width:1px;stroke-linecap:butt;stroke-linejoin:miter;stroke-opacity:1"
       x="4.8311131e-07"
       y="-312.74957"
       id="text4582"
       sodipodi:linespacing="125%"
       transform="scale(1,-1)"><tspan
         sodipodi:role="line"
         id="tspan4584"
         x="4.8311131e-07"
         y="-312.74957"
         style="font-style:normal;font-variant:normal;font-weight:bold;font-stretch:normal;font-family:sans-serif;-inkscape-font-specification:'sans-serif Bold'">a</tspan></text>
<text
       xml:space="preserve"
       style="font-style:normal;font-weight:normal;font-size:32px;line-height:125%;font-family:sans-serif;letter-spacing:0px;word-spacing:0px;fill:#000000;fill-opacity:1;stroke:none;stroke-width:1px;stroke-linecap:butt;stroke-linejoin:miter;stroke-opacity:1"
       x="319.6265"
       y="-312.74957"
       id="text4582-6"
       sodipodi:linespacing="125%"
       transform="scale(1,-1)"><tspan
         sodipodi:role="line"
         id="tspan4584-3"
         x="319.6265"
         y="-312.74957"
         style="font-style:normal;font-variant:normal;font-weight:bold;font-stretch:normal;font-family:sans-serif;-inkscape-font-specification:'sans-serif Bold'">b</tspan></text>
<text
       xml:space="preserve"
       style="font-style:normal;font-weight:normal;font-size:32px;line-height:125%;font-family:sans-serif;letter-spacing:0px;word-spacing:0px;fill:#000000;fill-opacity:1;stroke:none;stroke-width:1px;stroke-linecap:butt;stroke-linejoin:miter;stroke-opacity:1"
       x="650.59839"
       y="-312.74957"
       id="text4582-6-8"
       sodipodi:linespacing="125%"
       transform="scale(1,-1)"><tspan
         sodipodi:role="line"
         id="tspan4584-3-5"
         x="650.59839"
         y="-312.74957"
         style="font-style:normal;font-variant:normal;font-weight:bold;font-stretch:normal;font-family:sans-serif;-inkscape-font-specification:'sans-serif Bold'">c</tspan></text>
</g></svg>