<?xml version="1.0" encoding="UTF-8" standalone="no"?>
<!-- Created with Inkscape (http://www.inkscape.org/) -->

<svg
   xmlns:dc="http://purl.org/dc/elements/1.1/"
   xmlns:cc="http://creativecommons.org/ns#"
   xmlns:rdf="http://www.w3.org/1999/02/22-rdf-syntax-ns#"
   xmlns:svg="http://www.w3.org/2000/svg"
   xmlns="http://www.w3.org/2000/svg"
   xmlns:sodipodi="http://sodipodi.sourceforge.net/DTD/sodipodi-0.dtd"
   xmlns:inkscape="http://www.inkscape.org/namespaces/inkscape"
   id="svg2"
   version="1.1"
   inkscape:version="0.91 r13725"
   xml:space="preserve"
   width="450"
   height="540"
   viewBox="0 0 450 540"
   sodipodi:docname="gusmao_alternative_topologies_results.svg"><metadata
     id="metadata8"><rdf:RDF><cc:Work
         rdf:about=""><dc:format>image/svg+xml</dc:format><dc:type
           rdf:resource="http://purl.org/dc/dcmitype/StillImage" /><dc:title></dc:title></cc:Work></rdf:RDF></metadata><defs
     id="defs6"><clipPath
       clipPathUnits="userSpaceOnUse"
       id="clipPath42"><path
         d="m 585.699,408.301 2780.901,0 0,3618.299 -2780.901,0 0,-3618.299 z"
         id="path44"
         inkscape:connector-curvature="0" /></clipPath></defs><sodipodi:namedview
     pagecolor="#ffffff"
     bordercolor="#666666"
     borderopacity="1"
     objecttolerance="10"
     gridtolerance="10"
     guidetolerance="10"
     inkscape:pageopacity="0"
     inkscape:pageshadow="2"
     inkscape:window-width="668"
     inkscape:window-height="480"
     id="namedview4"
     showgrid="false"
     inkscape:zoom="0.43703704"
     inkscape:cx="225"
     inkscape:cy="270"
     inkscape:window-x="65"
     inkscape:window-y="24"
     inkscape:window-maximized="0"
     inkscape:current-layer="g10" /><g
     id="g10"
     inkscape:groupmode="layer"
     inkscape:label="gusmao_alternative_topologies_results"
     transform="matrix(1.25,0,0,-1.25,0,540)"><g
       id="g12"
       transform="scale(0.1,0.1)"><g
         id="g14"
         transform="scale(10,10)"><text
           transform="matrix(0,1,1,0,17.4898,96.3801)"
           style="font-variant:normal;font-weight:normal;font-size:16px;font-family:Helvetica;-inkscape-font-specification:Helvetica;writing-mode:lr-tb;fill:#000000;fill-opacity:1;fill-rule:nonzero;stroke:none"
           id="text16"><tspan
             x="0 11.552 15.104 23.104 27.552 33.119915 36.671917 45.248043 54.144043 58.592045 62.144043 71.040047 79.936043 84.384041 93.280045 97.728043 102.17604 112.04804 123.60004 135.15204 139.60004 151.15204 154.70404 159.15204 163.11992 172.01591 177.34392 186.23991 195.13591 203.13591 212.03192 220.03192 224.47992 229.80792 244.03192"
             y="0"
             sodipodi:role="line"
             id="tspan18">Distribution of AUC Differences (%)</tspan></text>
<text
           transform="matrix(1,0,0,-1,29.1562,58.4199)"
           style="font-variant:normal;font-weight:normal;font-size:14px;font-family:Helvetica;-inkscape-font-specification:Helvetica;writing-mode:lr-tb;fill:#000000;fill-opacity:1;fill-rule:nonzero;stroke:none"
           id="text20"><tspan
             x="0 8.1759996 15.96"
             y="0"
             sodipodi:role="line"
             id="tspan22">−10</tspan><tspan
             x="7.7839799 15.95998"
             y="-56.530102"
             sodipodi:role="line"
             id="tspan24">−5</tspan><tspan
             x="15.95976"
             y="-113.0699"
             id="tspan26">0</tspan><tspan
             x="15.95976"
             y="-169.61011"
             id="tspan28">5</tspan><tspan
             x="8.1757803 15.95978"
             y="-226.1402"
             sodipodi:role="line"
             id="tspan30">10</tspan><tspan
             x="8.1757803 15.95978"
             y="-282.67999"
             sodipodi:role="line"
             id="tspan32">15</tspan></text>
<text
           transform="matrix(1,0,0,-1,83.81478,23.6699)"
           style="font-variant:normal;font-weight:normal;font-size:16px;font-family:Helvetica;-inkscape-font-specification:Helvetica;writing-mode:lr-tb;fill:#000000;fill-opacity:1;fill-rule:nonzero;stroke:none"
           id="text34"><tspan
             x="0 13.328 22.224001 31.568001 44.896 86.90976 100.23776 109.13376 118.47776 131.80576 173.80975 187.13776 196.03375 205.37776 218.70576"
             y="0"
             sodipodi:role="line"
             id="tspan36">M1−M2M1−M3M2−M3</tspan></text>
</g><g
         id="g38"><g
           id="g40"
           clip-path="url(#clipPath42)"><path
             d="m 585.699,634.398 2780.901,0"
             style="fill:none;stroke:#afc0db;stroke-width:7.5;stroke-linecap:round;stroke-linejoin:round;stroke-miterlimit:10;stroke-dasharray:22.5, 37.5;stroke-dashoffset:0;stroke-opacity:1"
             id="path46"
             inkscape:connector-curvature="0" /><path
             d="m 585.699,1199.8 2780.901,0"
             style="fill:none;stroke:#afc0db;stroke-width:7.5;stroke-linecap:round;stroke-linejoin:round;stroke-miterlimit:10;stroke-dasharray:22.5, 37.5;stroke-dashoffset:0;stroke-opacity:1"
             id="path48"
             inkscape:connector-curvature="0" /><path
             d="m 585.699,1765.1 2780.901,0"
             style="fill:none;stroke:#afc0db;stroke-width:7.5;stroke-linecap:round;stroke-linejoin:round;stroke-miterlimit:10;stroke-dasharray:22.5, 37.5;stroke-dashoffset:0;stroke-opacity:1"
             id="path50"
             inkscape:connector-curvature="0" /><path
             d="m 585.699,2330.5 2780.901,0"
             style="fill:none;stroke:#afc0db;stroke-width:7.5;stroke-linecap:round;stroke-linejoin:round;stroke-miterlimit:10;stroke-dasharray:22.5, 37.5;stroke-dashoffset:0;stroke-opacity:1"
             id="path52"
             inkscape:connector-curvature="0" /><path
             d="m 585.699,2895.9 2780.901,0"
             style="fill:none;stroke:#afc0db;stroke-width:7.5;stroke-linecap:round;stroke-linejoin:round;stroke-miterlimit:10;stroke-dasharray:22.5, 37.5;stroke-dashoffset:0;stroke-opacity:1"
             id="path54"
             inkscape:connector-curvature="0" /><path
             d="m 585.699,3461.2 2780.901,0"
             style="fill:none;stroke:#afc0db;stroke-width:7.5;stroke-linecap:round;stroke-linejoin:round;stroke-miterlimit:10;stroke-dasharray:22.5, 37.5;stroke-dashoffset:0;stroke-opacity:1"
             id="path56"
             inkscape:connector-curvature="0" /><path
             d="m 889.898,1876.9 0,168.4 434.502,0 0,-246.1 -434.502,0 0,77.7"
             style="fill:none;stroke:#000000;stroke-width:7.5;stroke-linecap:round;stroke-linejoin:round;stroke-miterlimit:10;stroke-dasharray:none;stroke-opacity:1"
             id="path58"
             inkscape:connector-curvature="0" /><path
             d="m 1758.9,2259.4 0,395.2 434.5,0 0,-744.1 -434.5,0 0,348.9"
             style="fill:none;stroke:#000000;stroke-width:7.5;stroke-linecap:round;stroke-linejoin:round;stroke-miterlimit:10;stroke-dasharray:none;stroke-opacity:1"
             id="path60"
             inkscape:connector-curvature="0" /><path
             d="m 2627.9,2079.2 0,305.2 434.6,0 0,-554.5 -434.6,0 0,249.3"
             style="fill:none;stroke:#000000;stroke-width:7.5;stroke-linecap:round;stroke-linejoin:round;stroke-miterlimit:10;stroke-dasharray:none;stroke-opacity:1"
             id="path62"
             inkscape:connector-curvature="0" /><path
             d="m 1107.1,1799.2 0,-177.5"
             style="fill:none;stroke:#000000;stroke-width:7.5;stroke-linecap:round;stroke-linejoin:round;stroke-miterlimit:10;stroke-dasharray:none;stroke-opacity:1"
             id="path64"
             inkscape:connector-curvature="0" /><path
             d="m 1976.2,1910.5 0,-948.602"
             style="fill:none;stroke:#000000;stroke-width:7.5;stroke-linecap:round;stroke-linejoin:round;stroke-miterlimit:10;stroke-dasharray:none;stroke-opacity:1"
             id="path66"
             inkscape:connector-curvature="0" /><path
             d="m 2845.2,1829.9 0,-716.9"
             style="fill:none;stroke:#000000;stroke-width:7.5;stroke-linecap:round;stroke-linejoin:round;stroke-miterlimit:10;stroke-dasharray:none;stroke-opacity:1"
             id="path68"
             inkscape:connector-curvature="0" /><path
             d="m 1107.1,2045.3 0,366.1"
             style="fill:none;stroke:#000000;stroke-width:7.5;stroke-linecap:round;stroke-linejoin:round;stroke-miterlimit:10;stroke-dasharray:none;stroke-opacity:1"
             id="path70"
             inkscape:connector-curvature="0" /><path
             d="m 1976.2,2654.6 0,1106.2"
             style="fill:none;stroke:#000000;stroke-width:7.5;stroke-linecap:round;stroke-linejoin:round;stroke-miterlimit:10;stroke-dasharray:none;stroke-opacity:1"
             id="path72"
             inkscape:connector-curvature="0" /><path
             d="m 2845.2,2384.4 0,828"
             style="fill:none;stroke:#000000;stroke-width:7.5;stroke-linecap:round;stroke-linejoin:round;stroke-miterlimit:10;stroke-dasharray:none;stroke-opacity:1"
             id="path74"
             inkscape:connector-curvature="0" /><path
             d="m 889.898,1621.7 434.502,0"
             style="fill:none;stroke:#000000;stroke-width:7.5;stroke-linecap:round;stroke-linejoin:round;stroke-miterlimit:10;stroke-dasharray:none;stroke-opacity:1"
             id="path76"
             inkscape:connector-curvature="0" /><path
             d="m 1758.9,961.898 434.5,0"
             style="fill:none;stroke:#000000;stroke-width:7.5;stroke-linecap:round;stroke-linejoin:round;stroke-miterlimit:10;stroke-dasharray:none;stroke-opacity:1"
             id="path78"
             inkscape:connector-curvature="0" /><path
             d="m 2627.9,1113 434.6,0"
             style="fill:none;stroke:#000000;stroke-width:7.5;stroke-linecap:round;stroke-linejoin:round;stroke-miterlimit:10;stroke-dasharray:none;stroke-opacity:1"
             id="path80"
             inkscape:connector-curvature="0" /><path
             d="m 889.898,2411.4 434.502,0"
             style="fill:none;stroke:#000000;stroke-width:7.5;stroke-linecap:round;stroke-linejoin:round;stroke-miterlimit:10;stroke-dasharray:none;stroke-opacity:1"
             id="path82"
             inkscape:connector-curvature="0" /><path
             d="m 1758.9,3760.8 434.5,0"
             style="fill:none;stroke:#000000;stroke-width:7.5;stroke-linecap:round;stroke-linejoin:round;stroke-miterlimit:10;stroke-dasharray:none;stroke-opacity:1"
             id="path84"
             inkscape:connector-curvature="0" /><path
             d="m 2627.9,3212.4 434.6,0"
             style="fill:none;stroke:#000000;stroke-width:7.5;stroke-linecap:round;stroke-linejoin:round;stroke-miterlimit:10;stroke-dasharray:none;stroke-opacity:1"
             id="path86"
             inkscape:connector-curvature="0" /><path
             d="m 1137.1,1876.9 c 0,16.56 -13.43,30 -30,30 -16.56,0 -30,-13.44 -30,-30 0,-16.57 13.44,-30 30,-30 16.57,0 30,13.43 30,30"
             style="fill:#000000;fill-opacity:1;fill-rule:nonzero;stroke:none"
             id="path88"
             inkscape:connector-curvature="0" /><path
             d="m 2006.2,2259.4 c 0,16.56 -13.43,30 -30,30 -16.57,0 -30,-13.44 -30,-30 0,-16.57 13.43,-30 30,-30 16.57,0 30,13.43 30,30"
             style="fill:#000000;fill-opacity:1;fill-rule:nonzero;stroke:none"
             id="path90"
             inkscape:connector-curvature="0" /><path
             d="m 2875.2,2079.2 c 0,16.57 -13.43,30 -30,30 -16.57,0 -30,-13.43 -30,-30 0,-16.57 13.43,-30 30,-30 16.57,0 30,13.43 30,30"
             style="fill:#000000;fill-opacity:1;fill-rule:nonzero;stroke:none"
             id="path92"
             inkscape:connector-curvature="0" /><path
             d="m 1131.1,836.199 c 0,13.254 -10.74,24 -24,24 -13.25,0 -24,-10.746 -24,-24 0,-13.254 10.75,-24 24,-24 13.26,0 24,10.746 24,24"
             style="fill:none;stroke:#000000;stroke-width:7.5;stroke-linecap:round;stroke-linejoin:round;stroke-miterlimit:10;stroke-dasharray:none;stroke-opacity:1"
             id="path94"
             inkscape:connector-curvature="0" /><path
             d="m 1131.1,2469 c 0,13.25 -10.74,24 -24,24 -13.25,0 -24,-10.75 -24,-24 0,-13.25 10.75,-24 24,-24 13.26,0 24,10.75 24,24"
             style="fill:none;stroke:#000000;stroke-width:7.5;stroke-linecap:round;stroke-linejoin:round;stroke-miterlimit:10;stroke-dasharray:none;stroke-opacity:1"
             id="path96"
             inkscape:connector-curvature="0" /><path
             d="m 1131.1,2681.2 c 0,13.25 -10.74,24 -24,24 -13.25,0 -24,-10.75 -24,-24 0,-13.25 10.75,-24 24,-24 13.26,0 24,10.75 24,24"
             style="fill:none;stroke:#000000;stroke-width:7.5;stroke-linecap:round;stroke-linejoin:round;stroke-miterlimit:10;stroke-dasharray:none;stroke-opacity:1"
             id="path98"
             inkscape:connector-curvature="0" /><path
             d="m 1131.1,2605.3 c 0,13.25 -10.74,24 -24,24 -13.25,0 -24,-10.75 -24,-24 0,-13.25 10.75,-24 24,-24 13.26,0 24,10.75 24,24"
             style="fill:none;stroke:#000000;stroke-width:7.5;stroke-linecap:round;stroke-linejoin:round;stroke-miterlimit:10;stroke-dasharray:none;stroke-opacity:1"
             id="path100"
             inkscape:connector-curvature="0" /><path
             d="m 1131.1,2418.1 c 0,13.26 -10.74,24 -24,24 -13.25,0 -24,-10.74 -24,-24 0,-13.25 10.75,-24 24,-24 13.26,0 24,10.75 24,24"
             style="fill:none;stroke:#000000;stroke-width:7.5;stroke-linecap:round;stroke-linejoin:round;stroke-miterlimit:10;stroke-dasharray:none;stroke-opacity:1"
             id="path102"
             inkscape:connector-curvature="0" /><path
             d="m 1131.1,2564.2 c 0,13.25 -10.74,24 -24,24 -13.25,0 -24,-10.75 -24,-24 0,-13.25 10.75,-24 24,-24 13.26,0 24,10.75 24,24"
             style="fill:none;stroke:#000000;stroke-width:7.5;stroke-linecap:round;stroke-linejoin:round;stroke-miterlimit:10;stroke-dasharray:none;stroke-opacity:1"
             id="path104"
             inkscape:connector-curvature="0" /><path
             d="m 1131.1,2443.7 c 0,13.25 -10.74,24 -24,24 -13.25,0 -24,-10.75 -24,-24 0,-13.25 10.75,-24 24,-24 13.26,0 24,10.75 24,24"
             style="fill:none;stroke:#000000;stroke-width:7.5;stroke-linecap:round;stroke-linejoin:round;stroke-miterlimit:10;stroke-dasharray:none;stroke-opacity:1"
             id="path106"
             inkscape:connector-curvature="0" /><path
             d="m 1131.1,2673.8 c 0,13.25 -10.74,24 -24,24 -13.25,0 -24,-10.75 -24,-24 0,-13.25 10.75,-24 24,-24 13.26,0 24,10.75 24,24"
             style="fill:none;stroke:#000000;stroke-width:7.5;stroke-linecap:round;stroke-linejoin:round;stroke-miterlimit:10;stroke-dasharray:none;stroke-opacity:1"
             id="path108"
             inkscape:connector-curvature="0" /><path
             d="m 1131.1,2735.5 c 0,13.25 -10.74,24 -24,24 -13.25,0 -24,-10.75 -24,-24 0,-13.25 10.75,-24 24,-24 13.26,0 24,10.75 24,24"
             style="fill:none;stroke:#000000;stroke-width:7.5;stroke-linecap:round;stroke-linejoin:round;stroke-miterlimit:10;stroke-dasharray:none;stroke-opacity:1"
             id="path110"
             inkscape:connector-curvature="0" /><path
             d="m 1131.1,3343.2 c 0,13.25 -10.74,24 -24,24 -13.25,0 -24,-10.75 -24,-24 0,-13.25 10.75,-24 24,-24 13.26,0 24,10.75 24,24"
             style="fill:none;stroke:#000000;stroke-width:7.5;stroke-linecap:round;stroke-linejoin:round;stroke-miterlimit:10;stroke-dasharray:none;stroke-opacity:1"
             id="path112"
             inkscape:connector-curvature="0" /><path
             d="m 1131.1,2752.1 c 0,13.26 -10.74,24 -24,24 -13.25,0 -24,-10.74 -24,-24 0,-13.25 10.75,-24 24,-24 13.26,0 24,10.75 24,24"
             style="fill:none;stroke:#000000;stroke-width:7.5;stroke-linecap:round;stroke-linejoin:round;stroke-miterlimit:10;stroke-dasharray:none;stroke-opacity:1"
             id="path114"
             inkscape:connector-curvature="0" /><path
             d="m 1131.1,2424.7 c 0,13.25 -10.74,24 -24,24 -13.25,0 -24,-10.75 -24,-24 0,-13.25 10.75,-24 24,-24 13.26,0 24,10.75 24,24"
             style="fill:none;stroke:#000000;stroke-width:7.5;stroke-linecap:round;stroke-linejoin:round;stroke-miterlimit:10;stroke-dasharray:none;stroke-opacity:1"
             id="path116"
             inkscape:connector-curvature="0" /><path
             d="m 1131.1,2520.3 c 0,13.25 -10.74,24 -24,24 -13.25,0 -24,-10.75 -24,-24 0,-13.25 10.75,-24 24,-24 13.26,0 24,10.75 24,24"
             style="fill:none;stroke:#000000;stroke-width:7.5;stroke-linecap:round;stroke-linejoin:round;stroke-miterlimit:10;stroke-dasharray:none;stroke-opacity:1"
             id="path118"
             inkscape:connector-curvature="0" /><path
             d="m 1131.1,2902.9 c 0,13.25 -10.74,24 -24,24 -13.25,0 -24,-10.75 -24,-24 0,-13.26 10.75,-24 24,-24 13.26,0 24,10.74 24,24"
             style="fill:none;stroke:#000000;stroke-width:7.5;stroke-linecap:round;stroke-linejoin:round;stroke-miterlimit:10;stroke-dasharray:none;stroke-opacity:1"
             id="path120"
             inkscape:connector-curvature="0" /><path
             d="m 1131.1,2470 c 0,13.25 -10.74,24 -24,24 -13.25,0 -24,-10.75 -24,-24 0,-13.25 10.75,-24 24,-24 13.26,0 24,10.75 24,24"
             style="fill:none;stroke:#000000;stroke-width:7.5;stroke-linecap:round;stroke-linejoin:round;stroke-miterlimit:10;stroke-dasharray:none;stroke-opacity:1"
             id="path122"
             inkscape:connector-curvature="0" /><path
             d="m 1131.1,2425.9 c 0,13.25 -10.74,24 -24,24 -13.25,0 -24,-10.75 -24,-24 0,-13.26 10.75,-24 24,-24 13.26,0 24,10.74 24,24"
             style="fill:none;stroke:#000000;stroke-width:7.5;stroke-linecap:round;stroke-linejoin:round;stroke-miterlimit:10;stroke-dasharray:none;stroke-opacity:1"
             id="path124"
             inkscape:connector-curvature="0" /><path
             d="m 1131.1,3455 c 0,13.25 -10.74,24 -24,24 -13.25,0 -24,-10.75 -24,-24 0,-13.25 10.75,-24 24,-24 13.26,0 24,10.75 24,24"
             style="fill:none;stroke:#000000;stroke-width:7.5;stroke-linecap:round;stroke-linejoin:round;stroke-miterlimit:10;stroke-dasharray:none;stroke-opacity:1"
             id="path126"
             inkscape:connector-curvature="0" /><path
             d="m 1131.1,2549.7 c 0,13.25 -10.74,24 -24,24 -13.25,0 -24,-10.75 -24,-24 0,-13.25 10.75,-24 24,-24 13.26,0 24,10.75 24,24"
             style="fill:none;stroke:#000000;stroke-width:7.5;stroke-linecap:round;stroke-linejoin:round;stroke-miterlimit:10;stroke-dasharray:none;stroke-opacity:1"
             id="path128"
             inkscape:connector-curvature="0" /><path
             d="m 1131.1,2921 c 0,13.25 -10.74,24 -24,24 -13.25,0 -24,-10.75 -24,-24 0,-13.25 10.75,-24 24,-24 13.26,0 24,10.75 24,24"
             style="fill:none;stroke:#000000;stroke-width:7.5;stroke-linecap:round;stroke-linejoin:round;stroke-miterlimit:10;stroke-dasharray:none;stroke-opacity:1"
             id="path130"
             inkscape:connector-curvature="0" /><path
             d="m 1131.1,3049.6 c 0,13.26 -10.74,24 -24,24 -13.25,0 -24,-10.74 -24,-24 0,-13.25 10.75,-24 24,-24 13.26,0 24,10.75 24,24"
             style="fill:none;stroke:#000000;stroke-width:7.5;stroke-linecap:round;stroke-linejoin:round;stroke-miterlimit:10;stroke-dasharray:none;stroke-opacity:1"
             id="path132"
             inkscape:connector-curvature="0" /><path
             d="m 1131.1,2444.6 c 0,13.26 -10.74,24 -24,24 -13.25,0 -24,-10.74 -24,-24 0,-13.25 10.75,-24 24,-24 13.26,0 24,10.75 24,24"
             style="fill:none;stroke:#000000;stroke-width:7.5;stroke-linecap:round;stroke-linejoin:round;stroke-miterlimit:10;stroke-dasharray:none;stroke-opacity:1"
             id="path134"
             inkscape:connector-curvature="0" /><path
             d="m 1131.1,2622.8 c 0,13.25 -10.74,24 -24,24 -13.25,0 -24,-10.75 -24,-24 0,-13.25 10.75,-24 24,-24 13.26,0 24,10.75 24,24"
             style="fill:none;stroke:#000000;stroke-width:7.5;stroke-linecap:round;stroke-linejoin:round;stroke-miterlimit:10;stroke-dasharray:none;stroke-opacity:1"
             id="path136"
             inkscape:connector-curvature="0" /><path
             d="m 1131.1,2432.2 c 0,13.25 -10.74,24 -24,24 -13.25,0 -24,-10.75 -24,-24 0,-13.25 10.75,-24 24,-24 13.26,0 24,10.75 24,24"
             style="fill:none;stroke:#000000;stroke-width:7.5;stroke-linecap:round;stroke-linejoin:round;stroke-miterlimit:10;stroke-dasharray:none;stroke-opacity:1"
             id="path138"
             inkscape:connector-curvature="0" /><path
             d="m 1131.1,3310.5 c 0,13.25 -10.74,24 -24,24 -13.25,0 -24,-10.75 -24,-24 0,-13.25 10.75,-24 24,-24 13.26,0 24,10.75 24,24"
             style="fill:none;stroke:#000000;stroke-width:7.5;stroke-linecap:round;stroke-linejoin:round;stroke-miterlimit:10;stroke-dasharray:none;stroke-opacity:1"
             id="path140"
             inkscape:connector-curvature="0" /><path
             d="m 1131.1,3242.6 c 0,13.26 -10.74,24 -24,24 -13.25,0 -24,-10.74 -24,-24 0,-13.25 10.75,-24 24,-24 13.26,0 24,10.75 24,24"
             style="fill:none;stroke:#000000;stroke-width:7.5;stroke-linecap:round;stroke-linejoin:round;stroke-miterlimit:10;stroke-dasharray:none;stroke-opacity:1"
             id="path142"
             inkscape:connector-curvature="0" /><path
             d="m 1131.1,2418.9 c 0,13.25 -10.74,24 -24,24 -13.25,0 -24,-10.75 -24,-24 0,-13.26 10.75,-24 24,-24 13.26,0 24,10.74 24,24"
             style="fill:none;stroke:#000000;stroke-width:7.5;stroke-linecap:round;stroke-linejoin:round;stroke-miterlimit:10;stroke-dasharray:none;stroke-opacity:1"
             id="path144"
             inkscape:connector-curvature="0" /><path
             d="m 1131.1,2565.3 c 0,13.25 -10.74,24 -24,24 -13.25,0 -24,-10.75 -24,-24 0,-13.25 10.75,-24 24,-24 13.26,0 24,10.75 24,24"
             style="fill:none;stroke:#000000;stroke-width:7.5;stroke-linecap:round;stroke-linejoin:round;stroke-miterlimit:10;stroke-dasharray:none;stroke-opacity:1"
             id="path146"
             inkscape:connector-curvature="0" /><path
             d="m 1131.1,3762.8 c 0,13.25 -10.74,24 -24,24 -13.25,0 -24,-10.75 -24,-24 0,-13.25 10.75,-24 24,-24 13.26,0 24,10.75 24,24"
             style="fill:none;stroke:#000000;stroke-width:7.5;stroke-linecap:round;stroke-linejoin:round;stroke-miterlimit:10;stroke-dasharray:none;stroke-opacity:1"
             id="path148"
             inkscape:connector-curvature="0" /><path
             d="m 1131.1,2946.2 c 0,13.25 -10.74,24 -24,24 -13.25,0 -24,-10.75 -24,-24 0,-13.25 10.75,-24 24,-24 13.26,0 24,10.75 24,24"
             style="fill:none;stroke:#000000;stroke-width:7.5;stroke-linecap:round;stroke-linejoin:round;stroke-miterlimit:10;stroke-dasharray:none;stroke-opacity:1"
             id="path150"
             inkscape:connector-curvature="0" /><path
             d="m 1131.1,2974.7 c 0,13.25 -10.74,24 -24,24 -13.25,0 -24,-10.75 -24,-24 0,-13.25 10.75,-24 24,-24 13.26,0 24,10.75 24,24"
             style="fill:none;stroke:#000000;stroke-width:7.5;stroke-linecap:round;stroke-linejoin:round;stroke-miterlimit:10;stroke-dasharray:none;stroke-opacity:1"
             id="path152"
             inkscape:connector-curvature="0" /><path
             d="m 1131.1,2888.3 c 0,13.25 -10.74,24 -24,24 -13.25,0 -24,-10.75 -24,-24 0,-13.25 10.75,-24 24,-24 13.26,0 24,10.75 24,24"
             style="fill:none;stroke:#000000;stroke-width:7.5;stroke-linecap:round;stroke-linejoin:round;stroke-miterlimit:10;stroke-dasharray:none;stroke-opacity:1"
             id="path154"
             inkscape:connector-curvature="0" /><path
             d="m 1131.1,2426 c 0,13.25 -10.74,24 -24,24 -13.25,0 -24,-10.75 -24,-24 0,-13.25 10.75,-24 24,-24 13.26,0 24,10.75 24,24"
             style="fill:none;stroke:#000000;stroke-width:7.5;stroke-linecap:round;stroke-linejoin:round;stroke-miterlimit:10;stroke-dasharray:none;stroke-opacity:1"
             id="path156"
             inkscape:connector-curvature="0" /><path
             d="m 1131.1,2516.7 c 0,13.25 -10.74,24 -24,24 -13.25,0 -24,-10.75 -24,-24 0,-13.25 10.75,-24 24,-24 13.26,0 24,10.75 24,24"
             style="fill:none;stroke:#000000;stroke-width:7.5;stroke-linecap:round;stroke-linejoin:round;stroke-miterlimit:10;stroke-dasharray:none;stroke-opacity:1"
             id="path158"
             inkscape:connector-curvature="0" /><path
             d="m 1131.1,2583.8 c 0,13.25 -10.74,24 -24,24 -13.25,0 -24,-10.75 -24,-24 0,-13.25 10.75,-24 24,-24 13.26,0 24,10.75 24,24"
             style="fill:none;stroke:#000000;stroke-width:7.5;stroke-linecap:round;stroke-linejoin:round;stroke-miterlimit:10;stroke-dasharray:none;stroke-opacity:1"
             id="path160"
             inkscape:connector-curvature="0" /><path
             d="m 1131.1,2614.5 c 0,13.25 -10.74,24 -24,24 -13.25,0 -24,-10.75 -24,-24 0,-13.25 10.75,-24 24,-24 13.26,0 24,10.75 24,24"
             style="fill:none;stroke:#000000;stroke-width:7.5;stroke-linecap:round;stroke-linejoin:round;stroke-miterlimit:10;stroke-dasharray:none;stroke-opacity:1"
             id="path162"
             inkscape:connector-curvature="0" /><path
             d="m 1131.1,3261.6 c 0,13.26 -10.74,24 -24,24 -13.25,0 -24,-10.74 -24,-24 0,-13.25 10.75,-24 24,-24 13.26,0 24,10.75 24,24"
             style="fill:none;stroke:#000000;stroke-width:7.5;stroke-linecap:round;stroke-linejoin:round;stroke-miterlimit:10;stroke-dasharray:none;stroke-opacity:1"
             id="path164"
             inkscape:connector-curvature="0" /><path
             d="m 1131.1,2935.6 c 0,13.26 -10.74,24 -24,24 -13.25,0 -24,-10.74 -24,-24 0,-13.25 10.75,-24 24,-24 13.26,0 24,10.75 24,24"
             style="fill:none;stroke:#000000;stroke-width:7.5;stroke-linecap:round;stroke-linejoin:round;stroke-miterlimit:10;stroke-dasharray:none;stroke-opacity:1"
             id="path166"
             inkscape:connector-curvature="0" /><path
             d="m 1131.1,3564.8 c 0,13.25 -10.74,24 -24,24 -13.25,0 -24,-10.75 -24,-24 0,-13.25 10.75,-24 24,-24 13.26,0 24,10.75 24,24"
             style="fill:none;stroke:#000000;stroke-width:7.5;stroke-linecap:round;stroke-linejoin:round;stroke-miterlimit:10;stroke-dasharray:none;stroke-opacity:1"
             id="path168"
             inkscape:connector-curvature="0" /><path
             d="m 1131.1,3376.4 c 0,13.25 -10.74,24 -24,24 -13.25,0 -24,-10.75 -24,-24 0,-13.26 10.75,-24 24,-24 13.26,0 24,10.74 24,24"
             style="fill:none;stroke:#000000;stroke-width:7.5;stroke-linecap:round;stroke-linejoin:round;stroke-miterlimit:10;stroke-dasharray:none;stroke-opacity:1"
             id="path170"
             inkscape:connector-curvature="0" /><path
             d="m 1131.1,2579.3 c 0,13.25 -10.74,24 -24,24 -13.25,0 -24,-10.75 -24,-24 0,-13.25 10.75,-24 24,-24 13.26,0 24,10.75 24,24"
             style="fill:none;stroke:#000000;stroke-width:7.5;stroke-linecap:round;stroke-linejoin:round;stroke-miterlimit:10;stroke-dasharray:none;stroke-opacity:1"
             id="path172"
             inkscape:connector-curvature="0" /><path
             d="m 1131.1,1349.4 c 0,13.25 -10.74,24 -24,24 -13.25,0 -24,-10.75 -24,-24 0,-13.26 10.75,-24 24,-24 13.26,0 24,10.74 24,24"
             style="fill:none;stroke:#000000;stroke-width:7.5;stroke-linecap:round;stroke-linejoin:round;stroke-miterlimit:10;stroke-dasharray:none;stroke-opacity:1"
             id="path174"
             inkscape:connector-curvature="0" /><path
             d="m 1131.1,2693.3 c 0,13.25 -10.74,24 -24,24 -13.25,0 -24,-10.75 -24,-24 0,-13.25 10.75,-24 24,-24 13.26,0 24,10.75 24,24"
             style="fill:none;stroke:#000000;stroke-width:7.5;stroke-linecap:round;stroke-linejoin:round;stroke-miterlimit:10;stroke-dasharray:none;stroke-opacity:1"
             id="path176"
             inkscape:connector-curvature="0" /><path
             d="m 1131.1,4049.5 c 0,13.25 -10.74,24 -24,24 -13.25,0 -24,-10.75 -24,-24 0,-13.25 10.75,-24 24,-24 13.26,0 24,10.75 24,24"
             style="fill:none;stroke:#000000;stroke-width:7.5;stroke-linecap:round;stroke-linejoin:round;stroke-miterlimit:10;stroke-dasharray:none;stroke-opacity:1"
             id="path178"
             inkscape:connector-curvature="0" /><path
             d="m 1131.1,3250.6 c 0,13.26 -10.74,24 -24,24 -13.25,0 -24,-10.74 -24,-24 0,-13.25 10.75,-24 24,-24 13.26,0 24,10.75 24,24"
             style="fill:none;stroke:#000000;stroke-width:7.5;stroke-linecap:round;stroke-linejoin:round;stroke-miterlimit:10;stroke-dasharray:none;stroke-opacity:1"
             id="path180"
             inkscape:connector-curvature="0" /><path
             d="m 1131.1,2543.1 c 0,13.26 -10.74,24 -24,24 -13.25,0 -24,-10.74 -24,-24 0,-13.25 10.75,-24 24,-24 13.26,0 24,10.75 24,24"
             style="fill:none;stroke:#000000;stroke-width:7.5;stroke-linecap:round;stroke-linejoin:round;stroke-miterlimit:10;stroke-dasharray:none;stroke-opacity:1"
             id="path182"
             inkscape:connector-curvature="0" /><path
             d="m 1131.1,2463.6 c 0,13.26 -10.74,24 -24,24 -13.25,0 -24,-10.74 -24,-24 0,-13.25 10.75,-24 24,-24 13.26,0 24,10.75 24,24"
             style="fill:none;stroke:#000000;stroke-width:7.5;stroke-linecap:round;stroke-linejoin:round;stroke-miterlimit:10;stroke-dasharray:none;stroke-opacity:1"
             id="path184"
             inkscape:connector-curvature="0" /><path
             d="m 1131.1,2613 c 0,13.25 -10.74,24 -24,24 -13.25,0 -24,-10.75 -24,-24 0,-13.25 10.75,-24 24,-24 13.26,0 24,10.75 24,24"
             style="fill:none;stroke:#000000;stroke-width:7.5;stroke-linecap:round;stroke-linejoin:round;stroke-miterlimit:10;stroke-dasharray:none;stroke-opacity:1"
             id="path186"
             inkscape:connector-curvature="0" /><path
             d="m 2000.2,3808.3 c 0,13.25 -10.75,24 -24,24 -13.25,0 -24,-10.75 -24,-24 0,-13.25 10.75,-24 24,-24 13.25,0 24,10.75 24,24"
             style="fill:none;stroke:#000000;stroke-width:7.5;stroke-linecap:round;stroke-linejoin:round;stroke-miterlimit:10;stroke-dasharray:none;stroke-opacity:1"
             id="path188"
             inkscape:connector-curvature="0" /><path
             d="m 2000.2,3781.2 c 0,13.25 -10.75,24 -24,24 -13.25,0 -24,-10.75 -24,-24 0,-13.25 10.75,-24 24,-24 13.25,0 24,10.75 24,24"
             style="fill:none;stroke:#000000;stroke-width:7.5;stroke-linecap:round;stroke-linejoin:round;stroke-miterlimit:10;stroke-dasharray:none;stroke-opacity:1"
             id="path190"
             inkscape:connector-curvature="0" /><path
             d="m 2000.2,3839.6 c 0,13.26 -10.75,24 -24,24 -13.25,0 -24,-10.74 -24,-24 0,-13.25 10.75,-24 24,-24 13.25,0 24,10.75 24,24"
             style="fill:none;stroke:#000000;stroke-width:7.5;stroke-linecap:round;stroke-linejoin:round;stroke-miterlimit:10;stroke-dasharray:none;stroke-opacity:1"
             id="path192"
             inkscape:connector-curvature="0" /><path
             d="m 2000.2,3869.1 c 0,13.26 -10.75,24 -24,24 -13.25,0 -24,-10.74 -24,-24 0,-13.25 10.75,-24 24,-24 13.25,0 24,10.75 24,24"
             style="fill:none;stroke:#000000;stroke-width:7.5;stroke-linecap:round;stroke-linejoin:round;stroke-miterlimit:10;stroke-dasharray:none;stroke-opacity:1"
             id="path194"
             inkscape:connector-curvature="0" /><path
             d="m 2000.2,3974.2 c 0,13.25 -10.75,24 -24,24 -13.25,0 -24,-10.75 -24,-24 0,-13.25 10.75,-24 24,-24 13.25,0 24,10.75 24,24"
             style="fill:none;stroke:#000000;stroke-width:7.5;stroke-linecap:round;stroke-linejoin:round;stroke-miterlimit:10;stroke-dasharray:none;stroke-opacity:1"
             id="path196"
             inkscape:connector-curvature="0" /><path
             d="m 2869.2,981.199 c 0,13.254 -10.75,24.001 -24,24.001 -13.25,0 -24,-10.747 -24,-24.001 0,-13.254 10.75,-24 24,-24 13.25,0 24,10.746 24,24"
             style="fill:none;stroke:#000000;stroke-width:7.5;stroke-linecap:round;stroke-linejoin:round;stroke-miterlimit:10;stroke-dasharray:none;stroke-opacity:1"
             id="path198"
             inkscape:connector-curvature="0" /><path
             d="m 2869.2,3276.2 c 0,13.25 -10.75,24 -24,24 -13.25,0 -24,-10.75 -24,-24 0,-13.25 10.75,-24 24,-24 13.25,0 24,10.75 24,24"
             style="fill:none;stroke:#000000;stroke-width:7.5;stroke-linecap:round;stroke-linejoin:round;stroke-miterlimit:10;stroke-dasharray:none;stroke-opacity:1"
             id="path200"
             inkscape:connector-curvature="0" /><path
             d="m 2869.2,3697.7 c 0,13.25 -10.75,24 -24,24 -13.25,0 -24,-10.75 -24,-24 0,-13.25 10.75,-24 24,-24 13.25,0 24,10.75 24,24"
             style="fill:none;stroke:#000000;stroke-width:7.5;stroke-linecap:round;stroke-linejoin:round;stroke-miterlimit:10;stroke-dasharray:none;stroke-opacity:1"
             id="path202"
             inkscape:connector-curvature="0" /><path
             d="m 2869.2,3754.5 c 0,13.25 -10.75,24 -24,24 -13.25,0 -24,-10.75 -24,-24 0,-13.25 10.75,-24 24,-24 13.25,0 24,10.75 24,24"
             style="fill:none;stroke:#000000;stroke-width:7.5;stroke-linecap:round;stroke-linejoin:round;stroke-miterlimit:10;stroke-dasharray:none;stroke-opacity:1"
             id="path204"
             inkscape:connector-curvature="0" /><path
             d="m 2869.2,3693 c 0,13.25 -10.75,24 -24,24 -13.25,0 -24,-10.75 -24,-24 0,-13.25 10.75,-24 24,-24 13.25,0 24,10.75 24,24"
             style="fill:none;stroke:#000000;stroke-width:7.5;stroke-linecap:round;stroke-linejoin:round;stroke-miterlimit:10;stroke-dasharray:none;stroke-opacity:1"
             id="path206"
             inkscape:connector-curvature="0" /><path
             d="m 2869.2,3531.9 c 0,13.25 -10.75,24 -24,24 -13.25,0 -24,-10.75 -24,-24 0,-13.26 10.75,-24 24,-24 13.25,0 24,10.74 24,24"
             style="fill:none;stroke:#000000;stroke-width:7.5;stroke-linecap:round;stroke-linejoin:round;stroke-miterlimit:10;stroke-dasharray:none;stroke-opacity:1"
             id="path208"
             inkscape:connector-curvature="0" /><path
             d="m 2869.2,3752.9 c 0,13.25 -10.75,24 -24,24 -13.25,0 -24,-10.75 -24,-24 0,-13.26 10.75,-24 24,-24 13.25,0 24,10.74 24,24"
             style="fill:none;stroke:#000000;stroke-width:7.5;stroke-linecap:round;stroke-linejoin:round;stroke-miterlimit:10;stroke-dasharray:none;stroke-opacity:1"
             id="path210"
             inkscape:connector-curvature="0" /><path
             d="m 2869.2,3856.3 c 0,13.25 -10.75,24 -24,24 -13.25,0 -24,-10.75 -24,-24 0,-13.25 10.75,-24 24,-24 13.25,0 24,10.75 24,24"
             style="fill:none;stroke:#000000;stroke-width:7.5;stroke-linecap:round;stroke-linejoin:round;stroke-miterlimit:10;stroke-dasharray:none;stroke-opacity:1"
             id="path212"
             inkscape:connector-curvature="0" /><path
             d="m 2869.2,3780.5 c 0,13.25 -10.75,24 -24,24 -13.25,0 -24,-10.75 -24,-24 0,-13.25 10.75,-24 24,-24 13.25,0 24,10.75 24,24"
             style="fill:none;stroke:#000000;stroke-width:7.5;stroke-linecap:round;stroke-linejoin:round;stroke-miterlimit:10;stroke-dasharray:none;stroke-opacity:1"
             id="path214"
             inkscape:connector-curvature="0" /><path
             d="m 2869.2,3254.6 c 0,13.26 -10.75,24 -24,24 -13.25,0 -24,-10.74 -24,-24 0,-13.25 10.75,-24 24,-24 13.25,0 24,10.75 24,24"
             style="fill:none;stroke:#000000;stroke-width:7.5;stroke-linecap:round;stroke-linejoin:round;stroke-miterlimit:10;stroke-dasharray:none;stroke-opacity:1"
             id="path216"
             inkscape:connector-curvature="0" /><path
             d="m 2869.2,3718.6 c 0,13.26 -10.75,24 -24,24 -13.25,0 -24,-10.74 -24,-24 0,-13.25 10.75,-24 24,-24 13.25,0 24,10.75 24,24"
             style="fill:none;stroke:#000000;stroke-width:7.5;stroke-linecap:round;stroke-linejoin:round;stroke-miterlimit:10;stroke-dasharray:none;stroke-opacity:1"
             id="path218"
             inkscape:connector-curvature="0" /><path
             d="m 2869.2,3259.2 c 0,13.25 -10.75,24 -24,24 -13.25,0 -24,-10.75 -24,-24 0,-13.25 10.75,-24 24,-24 13.25,0 24,10.75 24,24"
             style="fill:none;stroke:#000000;stroke-width:7.5;stroke-linecap:round;stroke-linejoin:round;stroke-miterlimit:10;stroke-dasharray:none;stroke-opacity:1"
             id="path220"
             inkscape:connector-curvature="0" /><path
             d="m 2869.2,3321.2 c 0,13.25 -10.75,24 -24,24 -13.25,0 -24,-10.75 -24,-24 0,-13.25 10.75,-24 24,-24 13.25,0 24,10.75 24,24"
             style="fill:none;stroke:#000000;stroke-width:7.5;stroke-linecap:round;stroke-linejoin:round;stroke-miterlimit:10;stroke-dasharray:none;stroke-opacity:1"
             id="path222"
             inkscape:connector-curvature="0" /><path
             d="m 2869.2,3218.5 c 0,13.25 -10.75,24 -24,24 -13.25,0 -24,-10.75 -24,-24 0,-13.25 10.75,-24 24,-24 13.25,0 24,10.75 24,24"
             style="fill:none;stroke:#000000;stroke-width:7.5;stroke-linecap:round;stroke-linejoin:round;stroke-miterlimit:10;stroke-dasharray:none;stroke-opacity:1"
             id="path224"
             inkscape:connector-curvature="0" /><path
             d="m 2869.2,3408.8 c 0,13.25 -10.75,24 -24,24 -13.25,0 -24,-10.75 -24,-24 0,-13.25 10.75,-24 24,-24 13.25,0 24,10.75 24,24"
             style="fill:none;stroke:#000000;stroke-width:7.5;stroke-linecap:round;stroke-linejoin:round;stroke-miterlimit:10;stroke-dasharray:none;stroke-opacity:1"
             id="path226"
             inkscape:connector-curvature="0" /><path
             d="m 2869.2,3256.9 c 0,13.25 -10.75,24 -24,24 -13.25,0 -24,-10.75 -24,-24 0,-13.26 10.75,-24 24,-24 13.25,0 24,10.74 24,24"
             style="fill:none;stroke:#000000;stroke-width:7.5;stroke-linecap:round;stroke-linejoin:round;stroke-miterlimit:10;stroke-dasharray:none;stroke-opacity:1"
             id="path228"
             inkscape:connector-curvature="0" /><path
             d="m 2869.2,3339.3 c 0,13.25 -10.75,24 -24,24 -13.25,0 -24,-10.75 -24,-24 0,-13.25 10.75,-24 24,-24 13.25,0 24,10.75 24,24"
             style="fill:none;stroke:#000000;stroke-width:7.5;stroke-linecap:round;stroke-linejoin:round;stroke-miterlimit:10;stroke-dasharray:none;stroke-opacity:1"
             id="path230"
             inkscape:connector-curvature="0" /></g></g><path
         d="m 585.699,408.301 2780.9,0 0,3618.3 -2780.9,0 0,-3618.3 z"
         style="fill:none;stroke:#000000;stroke-width:7.5;stroke-linecap:round;stroke-linejoin:round;stroke-miterlimit:10;stroke-dasharray:none;stroke-opacity:1"
         id="path232"
         inkscape:connector-curvature="0" /></g></g></svg>