<?xml version="1.0" encoding="UTF-8" standalone="no"?>
<!-- Created with Inkscape (http://www.inkscape.org/) -->

<svg
   xmlns:dc="http://purl.org/dc/elements/1.1/"
   xmlns:cc="http://creativecommons.org/ns#"
   xmlns:rdf="http://www.w3.org/1999/02/22-rdf-syntax-ns#"
   xmlns:svg="http://www.w3.org/2000/svg"
   xmlns="http://www.w3.org/2000/svg"
   xmlns:sodipodi="http://sodipodi.sourceforge.net/DTD/sodipodi-0.dtd"
   xmlns:inkscape="http://www.inkscape.org/namespaces/inkscape"
   id="svg2"
   version="1.1"
   inkscape:version="0.91 r13725"
   xml:space="preserve"
   width="384.88568"
   height="257.69901"
   viewBox="0 0 384.88569 257.699"
   sodipodi:docname="gusmao_HINT_fpexp_rank.svg"><metadata
     id="metadata8"><rdf:RDF><cc:Work
         rdf:about=""><dc:format>image/svg+xml</dc:format><dc:type
           rdf:resource="http://purl.org/dc/dcmitype/StillImage" /><dc:title /></cc:Work></rdf:RDF></metadata><defs
     id="defs6"><clipPath
       clipPathUnits="userSpaceOnUse"
       id="clipPath18"><path
         d="m 0,0 2880,0 0,2880 L 0,2880 0,0 Z"
         id="path20"
         inkscape:connector-curvature="0" /></clipPath><clipPath
       clipPathUnits="userSpaceOnUse"
       id="clipPath48"><path
         d="m 519.699,379.5 2126.9,0 0,2207.1 -2126.9,0 0,-2207.1 z"
         id="path50"
         inkscape:connector-curvature="0" /></clipPath><clipPath
       clipPathUnits="userSpaceOnUse"
       id="clipPath122"><path
         d="m 0,0 2880,0 0,2880 L 0,2880 0,0 Z"
         id="path124"
         inkscape:connector-curvature="0" /></clipPath></defs><sodipodi:namedview
     pagecolor="#ffffff"
     bordercolor="#666666"
     borderopacity="1"
     objecttolerance="10"
     gridtolerance="10"
     guidetolerance="10"
     inkscape:pageopacity="0"
     inkscape:pageshadow="2"
     inkscape:window-width="1855"
     inkscape:window-height="1056"
     id="namedview4"
     showgrid="false"
     fit-margin-top="1"
     fit-margin-right="1"
     fit-margin-bottom="1"
     fit-margin-left="1"
     inkscape:zoom="1.3485026"
     inkscape:cx="181.25154"
     inkscape:cy="87.122146"
     inkscape:window-x="65"
     inkscape:window-y="24"
     inkscape:window-maximized="1"
     inkscape:current-layer="g10"
     showguides="true"
     inkscape:guide-bbox="true" /><g
     id="g10"
     inkscape:groupmode="layer"
     inkscape:label="ink_ext_XXXXXX"
     transform="matrix(1.25,0,0,-1.25,-7.5155065,265.13778)"><text
       transform="matrix(0,1,1,0,0,0)"
       style="font-variant:normal;font-weight:normal;font-size:12px;font-family:Helvetica;-inkscape-font-specification:Helvetica;writing-mode:lr-tb;fill:#000000;fill-opacity:1;fill-rule:nonzero;stroke:none"
       id="text24"
       x="60.196568"
       y="15.752405"><tspan
         x="60.196568 67.528572 75.532578 82.540573 90.544579 96.544579 103.21658 106.55257 115.21658 117.88056 123.88056 127.21658 131.39267 134.05667 140.48877 147.16077 150.49677 153.16077 159.83276 166.50476 169.84077 173.83676 184.50476"
         y="15.752405"
         sodipodi:role="line"
         id="tspan26"
         style="font-style:normal;font-variant:normal;font-weight:normal;font-stretch:normal;font-size:12px;font-family:Helvetica;-inkscape-font-specification:Helvetica">FP−Exp Distribution (%)</tspan></text>
<path
       inkscape:connector-curvature="0"
       id="path52"
       style="fill:none;stroke:#bebebe;stroke-width:0.80000001;stroke-linecap:round;stroke-linejoin:round;stroke-miterlimit:10;stroke-dasharray:2.40000007, 4.00000014;stroke-dashoffset:0;stroke-opacity:1"
       d="m 51.935544,46.398718 259.625616,0" /><path
       inkscape:connector-curvature="0"
       id="path54"
       style="fill:none;stroke:#bebebe;stroke-width:0.80000001;stroke-linecap:round;stroke-linejoin:round;stroke-miterlimit:10;stroke-dasharray:2.40000007, 4.00000014;stroke-dashoffset:0;stroke-opacity:1"
       d="m 51.935544,73.305536 259.625616,0" /><path
       inkscape:connector-curvature="0"
       id="path56"
       style="fill:none;stroke:#bebebe;stroke-width:0.80000001;stroke-linecap:round;stroke-linejoin:round;stroke-miterlimit:10;stroke-dasharray:2.40000007, 4.00000014;stroke-dashoffset:0;stroke-opacity:1"
       d="m 51.935544,100.20587 259.625616,0" /><path
       inkscape:connector-curvature="0"
       id="path58"
       style="fill:none;stroke:#bebebe;stroke-width:0.80000001;stroke-linecap:round;stroke-linejoin:round;stroke-miterlimit:10;stroke-dasharray:2.40000007, 4.00000014;stroke-dashoffset:0;stroke-opacity:1"
       d="m 51.935544,127.11289 259.625616,0" /><path
       inkscape:connector-curvature="0"
       id="path60"
       style="fill:none;stroke:#bebebe;stroke-width:0.80000001;stroke-linecap:round;stroke-linejoin:round;stroke-miterlimit:10;stroke-dasharray:2.40000007, 4.00000014;stroke-dashoffset:0;stroke-opacity:1"
       d="m 51.935544,154.01991 259.625616,0" /><path
       inkscape:connector-curvature="0"
       id="path62"
       style="fill:none;stroke:#bebebe;stroke-width:0.80000001;stroke-linecap:round;stroke-linejoin:round;stroke-miterlimit:10;stroke-dasharray:2.40000007, 4.00000014;stroke-dashoffset:0;stroke-opacity:1"
       d="m 51.935544,180.92693 259.625616,0" /><path
       inkscape:connector-curvature="0"
       id="path126"
       style="fill:none;stroke:#000000;stroke-width:0.80000001;stroke-linecap:round;stroke-linejoin:round;stroke-miterlimit:10;stroke-dasharray:none;stroke-opacity:1"
       d="m 51.962151,37.943112 260.758799,0 0,172.967108 -260.758799,0 0,-172.967108 z" /><text
       id="text82"
       style="font-variant:normal;font-weight:bold;font-size:12px;font-family:'DejaVu Sans';-inkscape-font-specification:DejaVuSans-Bold;writing-mode:lr-tb;fill:#000000;fill-opacity:1;fill-rule:nonzero;stroke:none"
       x="71.637978"
       y="-9.340867"
       transform="scale(1,-1)"><tspan
         id="tspan84"
         sodipodi:role="line"
         x="108.56197 116.25396 124.49797 132.74199 138.478 147.09399 153.00999 157.11398 165.68199 171.418"
         style="font-style:normal;font-variant:normal;font-weight:normal;font-stretch:normal;font-size:12px;font-family:'DejaVu Sans';-inkscape-font-specification:'DejaVu Sans'">Footprint Quality Score</tspan></text>
<text
       xml:space="preserve"
       style="font-style:normal;font-weight:normal;font-size:20px;line-height:125%;font-family:sans-serif;letter-spacing:0px;word-spacing:0px;fill:#000000;fill-opacity:1;stroke:none;stroke-width:1px;stroke-linecap:butt;stroke-linejoin:miter;stroke-opacity:1"
       x="26.306599"
       y="-176.96942"
       id="text4355-4"
       sodipodi:linespacing="125%"
       transform="scale(1,-1)"><tspan
         sodipodi:role="line"
         id="tspan4357-3"
         x="26.306599"
         y="-176.96942"
         style="font-size:12px">100</tspan></text>
<text
       xml:space="preserve"
       style="font-style:normal;font-weight:normal;font-size:20px;line-height:125%;font-family:sans-serif;letter-spacing:0px;word-spacing:0px;fill:#000000;fill-opacity:1;stroke:none;stroke-width:1px;stroke-linecap:butt;stroke-linejoin:miter;stroke-opacity:1"
       x="33.947227"
       y="-150.01305"
       id="text4355-1"
       sodipodi:linespacing="125%"
       transform="scale(1,-1)"><tspan
         sodipodi:role="line"
         id="tspan4357-8"
         x="33.947227"
         y="-150.01305"
         style="font-size:12px">80</tspan></text>
<text
       xml:space="preserve"
       style="font-style:normal;font-weight:normal;font-size:20px;line-height:125%;font-family:sans-serif;letter-spacing:0px;word-spacing:0px;fill:#000000;fill-opacity:1;stroke:none;stroke-width:1px;stroke-linecap:butt;stroke-linejoin:miter;stroke-opacity:1"
       x="33.947227"
       y="-123.05668"
       id="text4355-44"
       sodipodi:linespacing="125%"
       transform="scale(1,-1)"><tspan
         sodipodi:role="line"
         id="tspan4357-88"
         x="33.947227"
         y="-123.05668"
         style="font-size:12px">60</tspan></text>
<text
       xml:space="preserve"
       style="font-style:normal;font-weight:normal;font-size:20px;line-height:125%;font-family:sans-serif;letter-spacing:0px;word-spacing:0px;fill:#000000;fill-opacity:1;stroke:none;stroke-width:1px;stroke-linecap:butt;stroke-linejoin:miter;stroke-opacity:1"
       x="33.947227"
       y="-96.100304"
       id="text4355-0"
       sodipodi:linespacing="125%"
       transform="scale(1,-1)"><tspan
         sodipodi:role="line"
         id="tspan4357-0"
         x="33.947227"
         y="-96.100304"
         style="font-size:12px">40</tspan></text>
<text
       xml:space="preserve"
       style="font-style:normal;font-weight:normal;font-size:20px;line-height:125%;font-family:sans-serif;letter-spacing:0px;word-spacing:0px;fill:#000000;fill-opacity:1;stroke:none;stroke-width:1px;stroke-linecap:butt;stroke-linejoin:miter;stroke-opacity:1"
       x="33.947227"
       y="-69.143929"
       id="text4355-98"
       sodipodi:linespacing="125%"
       transform="scale(1,-1)"><tspan
         sodipodi:role="line"
         id="tspan4357-08"
         x="33.947227"
         y="-69.143929"
         style="font-size:12px">20</tspan></text>
<text
       xml:space="preserve"
       style="font-style:normal;font-weight:normal;font-size:20px;line-height:125%;font-family:sans-serif;letter-spacing:0px;word-spacing:0px;fill:#000000;fill-opacity:1;stroke:none;stroke-width:1px;stroke-linecap:butt;stroke-linejoin:miter;stroke-opacity:1"
       x="41.587852"
       y="-42.187557"
       id="text4355-8"
       sodipodi:linespacing="125%"
       transform="scale(1,-1)"><tspan
         sodipodi:role="line"
         id="tspan4357-4"
         x="41.587852"
         y="-42.187557"
         style="font-size:12px">0</tspan></text>
<g
       id="g4546"
       transform="translate(43.2,0)"><path
         d="m 208.20153,94.125536 0,21.125354 33.25099,0 0,-39.684205 -33.25099,0 0,18.558851"
         style="fill:none;stroke:#000000;stroke-width:0.61654818;stroke-linecap:round;stroke-linejoin:round;stroke-miterlimit:10;stroke-dasharray:none;stroke-opacity:1"
         id="path68"
         inkscape:connector-curvature="0" /><path
         d="m 224.82701,75.566685 0,-30.965389"
         style="fill:none;stroke:#000000;stroke-width:0.61654818;stroke-linecap:round;stroke-linejoin:round;stroke-miterlimit:10;stroke-dasharray:none;stroke-opacity:1"
         id="path74"
         inkscape:connector-curvature="0" /><path
         d="m 224.82701,115.25089 0,43.4596"
         style="fill:none;stroke:#000000;stroke-width:0.61654818;stroke-linecap:round;stroke-linejoin:round;stroke-miterlimit:10;stroke-dasharray:none;stroke-opacity:1"
         id="path80"
         inkscape:connector-curvature="0" /><path
         d="m 208.20151,44.601296 33.25099,0"
         style="fill:none;stroke:#000000;stroke-width:0.61654818;stroke-linecap:round;stroke-linejoin:round;stroke-miterlimit:10;stroke-dasharray:none;stroke-opacity:1"
         id="path86"
         inkscape:connector-curvature="0" /><path
         d="m 208.20151,158.71049 33.25099,0"
         style="fill:none;stroke:#000000;stroke-width:0.61654818;stroke-linecap:round;stroke-linejoin:round;stroke-miterlimit:10;stroke-dasharray:none;stroke-opacity:1"
         id="path92"
         inkscape:connector-curvature="0" /><text
         transform="scale(1,-1)"
         sodipodi:linespacing="125%"
         id="text4355-9"
         y="-23.527266"
         x="217.66393"
         style="font-style:normal;font-weight:normal;font-size:20px;line-height:125%;font-family:sans-serif;letter-spacing:0px;word-spacing:0px;fill:#000000;fill-opacity:1;stroke:none;stroke-width:1px;stroke-linecap:butt;stroke-linejoin:miter;stroke-opacity:1"
         xml:space="preserve"><tspan
           style="font-size:12px"
           y="-23.527266"
           x="217.66393"
           id="tspan4357-9"
           sodipodi:role="line">TC</tspan></text>
<path
         d="m 227.82701,94.050275 c 0,1.656 -1.343,3 -3,3 -1.65701,0 -3,-1.344 -3,-3 0,-1.657 1.34299,-3 3,-3 1.657,0 3,1.343 3,3"
         style="fill:#000000;fill-opacity:1;fill-rule:nonzero;stroke:none"
         id="path98-7-4"
         inkscape:connector-curvature="0" /></g><g
       id="g4517"
       transform="translate(3.2,0)"><path
         d="m 75.226591,155.13133 0,9.50522 33.162959,0 0,-24.82783 -33.162959,0 0,15.32261"
         style="fill:none;stroke:#000000;stroke-width:0.61687702;stroke-linecap:round;stroke-linejoin:round;stroke-miterlimit:10;stroke-dasharray:none;stroke-opacity:1"
         id="path64"
         inkscape:connector-curvature="0" /><path
         d="m 91.808055,139.77566 0,-24.59671"
         style="fill:none;stroke:#000000;stroke-width:0.61654818;stroke-linecap:round;stroke-linejoin:round;stroke-miterlimit:10;stroke-dasharray:none;stroke-opacity:1"
         id="path70"
         inkscape:connector-curvature="0" /><path
         sodipodi:nodetypes="cc"
         d="m 91.808055,164.92826 0,13.54348"
         style="fill:none;stroke:#000000;stroke-width:0.61654818;stroke-linecap:round;stroke-linejoin:round;stroke-miterlimit:10;stroke-dasharray:none;stroke-opacity:1"
         id="path76"
         inkscape:connector-curvature="0" /><path
         d="m 75.177601,115.17895 33.260909,0"
         style="fill:none;stroke:#000000;stroke-width:0.61654818;stroke-linecap:round;stroke-linejoin:round;stroke-miterlimit:10;stroke-dasharray:none;stroke-opacity:1"
         id="path82"
         inkscape:connector-curvature="0" /><path
         d="m 75.177601,178.87242 33.260909,0"
         style="fill:none;stroke:#000000;stroke-width:0.61654818;stroke-linecap:round;stroke-linejoin:round;stroke-miterlimit:10;stroke-dasharray:none;stroke-opacity:1"
         id="path88"
         inkscape:connector-curvature="0" /><path
         d="m 94.808055,151.81651 c 0,1.656 -1.343,3 -3,3 -1.657,0 -3,-1.344 -3,-3 0,-1.657 1.343,-3 3,-3 1.657,0 3,1.343 3,3"
         style="fill:#000000;fill-opacity:1;fill-rule:nonzero;stroke:none"
         id="path98-7"
         inkscape:connector-curvature="0" /><text
         transform="scale(1,-1)"
         sodipodi:linespacing="125%"
         id="text4355"
         y="-23.155277"
         x="80.426216"
         style="font-style:normal;font-weight:normal;font-size:20px;line-height:125%;font-family:sans-serif;letter-spacing:0px;word-spacing:0px;fill:#000000;fill-opacity:1;stroke:none;stroke-width:1px;stroke-linecap:butt;stroke-linejoin:miter;stroke-opacity:1"
         xml:space="preserve"><tspan
           style="font-size:12px"
           y="-23.155277"
           x="80.426216"
           id="tspan4357"
           sodipodi:role="line">FLR</tspan></text>
<path
         d="m 94.208037,108.72644 c 0,1.325 -1.0746,2.4 -2.4,2.4 -1.3254,0 -2.4,-1.075 -2.4,-2.4 0,-1.325 1.0746,-2.4 2.4,-2.4 1.3254,0 2.4,1.075 2.4,2.4"
         style="fill:none;stroke:#000000;stroke-width:0.75;stroke-linecap:round;stroke-linejoin:round;stroke-miterlimit:10;stroke-dasharray:none;stroke-opacity:1"
         id="path100-7"
         inkscape:connector-curvature="0" /><path
         d="m 94.208037,101.17559 c 0,1.325 -1.0746,2.4 -2.4,2.4 -1.3254,0 -2.4,-1.075 -2.4,-2.4 0,-1.324996 1.0746,-2.399996 2.4,-2.399996 1.3254,0 2.4,1.075 2.4,2.399996"
         style="fill:none;stroke:#000000;stroke-width:0.75;stroke-linecap:round;stroke-linejoin:round;stroke-miterlimit:10;stroke-dasharray:none;stroke-opacity:1"
         id="path100-7-1"
         inkscape:connector-curvature="0" /><path
         d="m 94.208037,98.763518 c 0,1.325002 -1.074601,2.400002 -2.400001,2.400002 -1.3254,0 -2.4,-1.075 -2.4,-2.400002 0,-1.325 1.0746,-2.4 2.4,-2.4 1.3254,0 2.400001,1.075 2.400001,2.4"
         style="fill:none;stroke:#000000;stroke-width:0.75;stroke-linecap:round;stroke-linejoin:round;stroke-miterlimit:10;stroke-dasharray:none;stroke-opacity:1"
         id="path100-7-9"
         inkscape:connector-curvature="0" /><path
         d="m 94.208037,92.156526 c 0,1.325 -1.0746,2.4 -2.4,2.4 -1.3254,0 -2.4,-1.075 -2.4,-2.4 0,-1.325 1.0746,-2.4 2.4,-2.4 1.3254,0 2.4,1.075 2.4,2.4"
         style="fill:none;stroke:#000000;stroke-width:0.75;stroke-linecap:round;stroke-linejoin:round;stroke-miterlimit:10;stroke-dasharray:none;stroke-opacity:1"
         id="path100-7-96"
         inkscape:connector-curvature="0" /></g><g
       id="g4531"
       transform="translate(23.202527,0)"><path
         d="m 141.68952,145.80058 0,11.54195 33.251,0 0,-27.92626 -33.251,0 0,16.38431"
         style="fill:none;stroke:#000000;stroke-width:0.61687702;stroke-linecap:round;stroke-linejoin:round;stroke-miterlimit:10;stroke-dasharray:none;stroke-opacity:1"
         id="path66"
         inkscape:connector-curvature="0" /><path
         d="m 158.315,129.41627 0,-14.21639"
         style="fill:none;stroke:#000000;stroke-width:0.61654818;stroke-linecap:round;stroke-linejoin:round;stroke-miterlimit:10;stroke-dasharray:none;stroke-opacity:1"
         id="path72"
         inkscape:connector-curvature="0" /><path
         d="m 158.315,157.34253 0,10.96114"
         style="fill:none;stroke:#000000;stroke-width:0.61654818;stroke-linecap:round;stroke-linejoin:round;stroke-miterlimit:10;stroke-dasharray:none;stroke-opacity:1"
         id="path78"
         inkscape:connector-curvature="0" /><path
         d="m 141.6895,115.19988 33.251,0"
         style="fill:none;stroke:#000000;stroke-width:0.61654818;stroke-linecap:round;stroke-linejoin:round;stroke-miterlimit:10;stroke-dasharray:none;stroke-opacity:1"
         id="path84"
         inkscape:connector-curvature="0" /><path
         d="m 141.6895,168.30367 33.251,0"
         style="fill:none;stroke:#000000;stroke-width:0.61654818;stroke-linecap:round;stroke-linejoin:round;stroke-miterlimit:10;stroke-dasharray:none;stroke-opacity:1"
         id="path90"
         inkscape:connector-curvature="0" /><text
         transform="scale(1,-1)"
         sodipodi:linespacing="125%"
         id="text4355-5"
         y="-25.307016"
         x="150.89996"
         style="font-style:normal;font-weight:normal;font-size:20px;line-height:125%;font-family:sans-serif;letter-spacing:0px;word-spacing:0px;fill:#000000;fill-opacity:1;stroke:none;stroke-width:1px;stroke-linecap:butt;stroke-linejoin:miter;stroke-opacity:1"
         xml:space="preserve"><tspan
           style="font-size:12px"
           y="-25.307016"
           x="150.89996"
           id="tspan4357-6"
           sodipodi:role="line">FS</tspan></text>
<path
         d="m 161.315,145.7357 c 0,1.656 -1.343,3 -3,3 -1.657,0 -3,-1.344 -3,-3 0,-1.657 1.343,-3 3,-3 1.657,0 3,1.343 3,3"
         style="fill:#000000;fill-opacity:1;fill-rule:nonzero;stroke:none"
         id="path98-7-2"
         inkscape:connector-curvature="0" /><path
         d="m 160.71498,80.255656 c 0,1.325 -1.0746,2.4 -2.4,2.4 -1.3254,0 -2.4,-1.075 -2.4,-2.4 0,-1.325 1.0746,-2.4 2.4,-2.4 1.3254,0 2.4,1.075 2.4,2.4"
         style="fill:none;stroke:#000000;stroke-width:0.75;stroke-linecap:round;stroke-linejoin:round;stroke-miterlimit:10;stroke-dasharray:none;stroke-opacity:1"
         id="path100-7-0"
         inkscape:connector-curvature="0" /><path
         d="m 160.71498,74.842244 c 0,1.325 -1.0746,2.4 -2.4,2.4 -1.3254,0 -2.4,-1.075 -2.4,-2.4 0,-1.325 1.0746,-2.4 2.4,-2.4 1.3254,0 2.4,1.075 2.4,2.4"
         style="fill:none;stroke:#000000;stroke-width:0.75;stroke-linecap:round;stroke-linejoin:round;stroke-miterlimit:10;stroke-dasharray:none;stroke-opacity:1"
         id="path100-7-93"
         inkscape:connector-curvature="0" /><path
         d="m 160.71498,66.981673 c 0,1.325 -1.0746,2.4 -2.4,2.4 -1.3254,0 -2.4,-1.075 -2.4,-2.4 0,-1.325 1.0746,-2.4 2.4,-2.4 1.3254,0 2.4,1.075 2.4,2.4"
         style="fill:none;stroke:#000000;stroke-width:0.75;stroke-linecap:round;stroke-linejoin:round;stroke-miterlimit:10;stroke-dasharray:none;stroke-opacity:1"
         id="path100-7-7"
         inkscape:connector-curvature="0" /><path
         d="m 160.71498,60.010978 c 0,1.325 -1.0746,2.4 -2.4,2.4 -1.3254,0 -2.4,-1.075 -2.4,-2.4 0,-1.325 1.0746,-2.4 2.4,-2.4 1.3254,0 2.4,1.075 2.4,2.4"
         style="fill:none;stroke:#000000;stroke-width:0.75;stroke-linecap:round;stroke-linejoin:round;stroke-miterlimit:10;stroke-dasharray:none;stroke-opacity:1"
         id="path100-7-8"
         inkscape:connector-curvature="0" /><path
         d="m 160.71498,59.046946 c 0,1.325 -1.0746,2.4 -2.4,2.4 -1.3254,0 -2.4,-1.075 -2.4,-2.4 0,-1.325 1.0746,-2.4 2.4,-2.4 1.3254,0 2.4,1.075 2.4,2.4"
         style="fill:none;stroke:#000000;stroke-width:0.75;stroke-linecap:round;stroke-linejoin:round;stroke-miterlimit:10;stroke-dasharray:none;stroke-opacity:1"
         id="path100-7-85"
         inkscape:connector-curvature="0" /></g><path
       style="fill:none;fill-rule:evenodd;stroke:#000000;stroke-width:0.80000001;stroke-linecap:butt;stroke-linejoin:miter;stroke-miterlimit:4;stroke-dasharray:none;stroke-opacity:1"
       d="m 93.46032,180.80718 0,6.10212 84.24985,0 0,-6.41775"
       id="path4558"
       inkscape:connector-curvature="0" /><path
       style="fill:none;fill-rule:evenodd;stroke:#000000;stroke-width:0.80000001;stroke-linecap:butt;stroke-linejoin:miter;stroke-miterlimit:4;stroke-dasharray:none;stroke-opacity:1"
       d="m 93.684933,193.76156 0,5.88225 174.448777,0 0,-6.1865"
       id="path4558-9"
       inkscape:connector-curvature="0" /><path
       style="fill:none;fill-rule:evenodd;stroke:#000000;stroke-width:0.80000001;stroke-linecap:butt;stroke-linejoin:miter;stroke-miterlimit:4;stroke-dasharray:none;stroke-opacity:1"
       d="m 184.00122,180.80718 0,6.10212 84.24985,0 0,-6.41775"
       id="path4558-8"
       inkscape:connector-curvature="0" /><text
       xml:space="preserve"
       style="font-style:normal;font-weight:normal;font-size:10px;line-height:125%;font-family:sans-serif;letter-spacing:0px;word-spacing:0px;fill:#000000;fill-opacity:1;stroke:none;stroke-width:1px;stroke-linecap:butt;stroke-linejoin:miter;stroke-opacity:1"
       x="147.08119"
       y="-201.47946"
       id="text4355-4-0"
       sodipodi:linespacing="125%"
       transform="scale(1,-1)"><tspan
         sodipodi:role="line"
         id="tspan4357-3-3"
         x="147.08119"
         y="-201.47946"
         style="font-size:10px">p-value&lt;0.01</tspan></text>
<text
       xml:space="preserve"
       style="font-style:normal;font-weight:normal;font-size:10px;line-height:125%;font-family:sans-serif;letter-spacing:0px;word-spacing:0px;fill:#000000;fill-opacity:1;stroke:none;stroke-width:1px;stroke-linecap:butt;stroke-linejoin:miter;stroke-opacity:1"
       x="101.7327"
       y="-188.47522"
       id="text4355-4-0-9"
       sodipodi:linespacing="125%"
       transform="scale(1,-1)"><tspan
         sodipodi:role="line"
         id="tspan4357-3-3-8"
         x="101.7327"
         y="-188.47522"
         style="font-size:10px">p-value&lt;0.05</tspan></text>
<text
       xml:space="preserve"
       style="font-style:normal;font-weight:normal;font-size:10px;line-height:125%;font-family:sans-serif;letter-spacing:0px;word-spacing:0px;fill:#000000;fill-opacity:1;stroke:none;stroke-width:1px;stroke-linecap:butt;stroke-linejoin:miter;stroke-opacity:1"
       x="192.29802"
       y="-188.47522"
       id="text4355-4-0-95"
       sodipodi:linespacing="125%"
       transform="scale(1,-1)"><tspan
         sodipodi:role="line"
         id="tspan4357-3-3-6"
         x="192.29802"
         y="-188.47522"
         style="font-size:10px">p-value&lt;0.01</tspan></text>
</g></svg>