<?xml version="1.0" encoding="UTF-8" standalone="no"?>
<!-- Created with Inkscape (http://www.inkscape.org/) -->

<svg
   xmlns:dc="http://purl.org/dc/elements/1.1/"
   xmlns:cc="http://creativecommons.org/ns#"
   xmlns:rdf="http://www.w3.org/1999/02/22-rdf-syntax-ns#"
   xmlns:svg="http://www.w3.org/2000/svg"
   xmlns="http://www.w3.org/2000/svg"
   xmlns:sodipodi="http://sodipodi.sourceforge.net/DTD/sodipodi-0.dtd"
   xmlns:inkscape="http://www.inkscape.org/namespaces/inkscape"
   id="svg2"
   version="1.1"
   inkscape:version="0.91 r13725"
   xml:space="preserve"
   width="420.01788"
   height="282.69821"
   viewBox="0 0 420.0179 282.69822"
   sodipodi:docname="gusmao_HINT_chipseq_rank.svg"><metadata
     id="metadata8"><rdf:RDF><cc:Work
         rdf:about=""><dc:format>image/svg+xml</dc:format><dc:type
           rdf:resource="http://purl.org/dc/dcmitype/StillImage" /><dc:title /></cc:Work></rdf:RDF></metadata><defs
     id="defs6"><clipPath
       clipPathUnits="userSpaceOnUse"
       id="clipPath70-72"><path
         d="m 658.199,1369.1 4868.401,0 0,1217.5 -4868.401,0 0,-1217.5 z"
         id="path72-8"
         inkscape:connector-curvature="0" /></clipPath></defs><sodipodi:namedview
     pagecolor="#ffffff"
     bordercolor="#666666"
     borderopacity="1"
     objecttolerance="10"
     gridtolerance="10"
     guidetolerance="10"
     inkscape:pageopacity="0"
     inkscape:pageshadow="2"
     inkscape:window-width="1855"
     inkscape:window-height="1056"
     id="namedview4"
     showgrid="false"
     inkscape:zoom="1.4513176"
     inkscape:cx="198.65433"
     inkscape:cy="120.90184"
     inkscape:window-x="65"
     inkscape:window-y="24"
     inkscape:window-maximized="1"
     inkscape:current-layer="g10"
     fit-margin-top="1"
     fit-margin-right="1"
     fit-margin-bottom="1"
     fit-margin-left="1"
     showguides="true"
     inkscape:guide-bbox="true" /><g
     id="g10"
     inkscape:groupmode="layer"
     inkscape:label="gusmao_HINT_chipseq_rank"
     transform="matrix(1.25,0,0,-1.25,33.746592,13.957915)"><text
       id="text14-4"
       style="font-variant:normal;font-weight:normal;font-size:12px;font-family:TeXGyreHeros;-inkscape-font-specification:TeXGyreHeros-Regular;writing-mode:lr-tb;fill:#000000;fill-opacity:1;fill-rule:nonzero;stroke:none"
       x="18.331841"
       y="222.84987"
       transform="scale(1,-1)"><tspan
         id="tspan16-3"
         y="222.84987"
         x="18.331841" /><tspan
         id="tspan18-0"
         sodipodi:role="line"
         y="182.98967"
         x="11.659966 18.331963">20</tspan><tspan
         id="tspan20-7"
         sodipodi:role="line"
         y="143.12987"
         x="11.659966 18.331963">40</tspan><tspan
         id="tspan22-4"
         sodipodi:role="line"
         y="103.27987"
         x="11.659966 18.331963">60</tspan><tspan
         id="tspan24-7"
         sodipodi:role="line"
         y="63.419636"
         x="11.659966 18.331963">80</tspan><tspan
         id="tspan26-4"
         sodipodi:role="line"
         y="23.559866"
         x="4.9880304 11.660028 18.332024">100</tspan></text>
<path
       inkscape:connector-curvature="0"
       id="path30-8"
       style="fill:none;stroke:#808080;stroke-width:0.80000001;stroke-linecap:round;stroke-linejoin:round;stroke-miterlimit:10;stroke-dasharray:2.4, 4;stroke-dashoffset:0;stroke-opacity:1"
       d="m 30.728229,-178.62642 276.522661,0" /><path
       inkscape:connector-curvature="0"
       id="path32-0"
       style="fill:none;stroke:#808080;stroke-width:0.80000001;stroke-linecap:round;stroke-linejoin:round;stroke-miterlimit:10;stroke-dasharray:2.4, 4;stroke-dashoffset:0;stroke-opacity:1"
       d="m 30.728229,-138.80182 276.522661,0" /><path
       inkscape:connector-curvature="0"
       id="path34-2"
       style="fill:none;stroke:#808080;stroke-width:0.80000001;stroke-linecap:round;stroke-linejoin:round;stroke-miterlimit:10;stroke-dasharray:2.4, 4;stroke-dashoffset:0;stroke-opacity:1"
       d="m 30.728229,-98.969233 276.522661,0" /><path
       inkscape:connector-curvature="0"
       id="path36-7"
       style="fill:none;stroke:#808080;stroke-width:0.80000001;stroke-linecap:round;stroke-linejoin:round;stroke-miterlimit:10;stroke-dasharray:2.4, 4;stroke-dashoffset:0;stroke-opacity:1"
       d="m 30.728229,-59.135646 276.522661,0" /><path
       inkscape:connector-curvature="0"
       id="path38-3"
       style="fill:none;stroke:#808080;stroke-width:0.80000001;stroke-linecap:round;stroke-linejoin:round;stroke-miterlimit:10;stroke-dasharray:2.4, 4;stroke-dashoffset:0;stroke-opacity:1"
       d="m 30.728229,-19.303058 276.522661,0" /><path
       inkscape:connector-curvature="0"
       id="path68-3"
       style="fill:none;stroke:#000000;stroke-width:0.80000001;stroke-linecap:round;stroke-linejoin:round;stroke-miterlimit:10;stroke-dasharray:none;stroke-opacity:1"
       d="m 30.713303,9.9663317 277.103727,0 0,-192.5212317 -277.103727,0 0,192.5212317 z" /><text
       id="text78-3"
       style="font-variant:normal;font-weight:bold;font-size:12px;line-height:100%;font-family:'DejaVu Sans';-inkscape-font-specification:DejaVuSans-Bold;writing-mode:lr-tb;fill:#000000;fill-opacity:1;fill-rule:nonzero;stroke:none"
       transform="matrix(0,1,1,0,0,0)"
       x="-85.822601"
       y="-17.080086"
       sodipodi:linespacing="100%"><tspan
         id="tspan80-9"
         sodipodi:role="line"
         x="-85.822601"
         y="-17.080086"
         style="font-style:normal;font-variant:normal;font-weight:normal;font-stretch:normal;line-height:100%;font-family:'DejaVu Sans';-inkscape-font-specification:'DejaVu Sans';text-align:center;text-anchor:middle">Distribution of</tspan><tspan
         sodipodi:role="line"
         x="-85.822601"
         y="-5.0800858"
         id="tspan4186-5"
         style="font-style:normal;font-variant:normal;font-weight:normal;font-stretch:normal;line-height:100%;font-family:'DejaVu Sans';-inkscape-font-specification:'DejaVu Sans';text-align:center;text-anchor:middle">AUC at 10% FPR (%)</tspan></text>
<text
       id="text82-8"
       style="font-variant:normal;font-weight:bold;font-size:12px;font-family:'DejaVu Sans';-inkscape-font-specification:DejaVuSans-Bold;writing-mode:lr-tb;fill:#000000;fill-opacity:1;fill-rule:nonzero;stroke:none"
       x="66.203522"
       y="211.6024"
       transform="scale(1,-1)"><tspan
         id="tspan84-0"
         sodipodi:role="line"
         y="211.6024"
         x="66.203522 76.235535 80.699524 90.767548 98.951538 103.12753 110.81955 119.06355 127.30755 133.04353 141.65955 147.57555 151.67955 160.24754 165.98354 170.15956 179.39955 187.48753 196.01955 203.99956 208.13954 216.67155 225.25154 229.42754 241.40355 249.53954 255.27556 261.19159 265.29556"
         style="font-style:normal;font-variant:normal;font-weight:normal;font-stretch:normal;font-family:'DejaVu Sans';-inkscape-font-specification:'DejaVu Sans'">HINT Footprint Ranking Metric</tspan></text>
<path
       inkscape:connector-curvature="0"
       id="path40-9"
       style="fill:none;stroke:#000000;stroke-width:0.50637913;stroke-linecap:round;stroke-linejoin:round;stroke-miterlimit:10;stroke-dasharray:none;stroke-opacity:1"
       d="m 63.28461,-43.630836 0,13.57169 33.23603,0 0,-32.83578 -33.23603,0 0,19.26409" /><path
       inkscape:connector-curvature="0"
       id="path42-4"
       style="fill:none;stroke:#000000;stroke-width:0.75;stroke-linecap:round;stroke-linejoin:round;stroke-miterlimit:10;stroke-dasharray:none;stroke-opacity:1"
       d="m 79.9026,-63.278036 0,-43.253324"
       sodipodi:nodetypes="cc" /><path
       inkscape:connector-curvature="0"
       id="path44-9"
       style="fill:none;stroke:#000000;stroke-width:0.75;stroke-linecap:round;stroke-linejoin:round;stroke-miterlimit:10;stroke-dasharray:none;stroke-opacity:1"
       d="m 79.9026,-29.939616 0,6.53538"
       sodipodi:nodetypes="cc" /><path
       inkscape:connector-curvature="0"
       id="path46-6"
       style="fill:none;stroke:#000000;stroke-width:0.75;stroke-linecap:round;stroke-linejoin:round;stroke-miterlimit:10;stroke-dasharray:none;stroke-opacity:1"
       d="m 63.28761,-106.72804 33.22999,0" /><path
       inkscape:connector-curvature="0"
       id="path48-8"
       style="fill:none;stroke:#000000;stroke-width:0.75;stroke-linecap:round;stroke-linejoin:round;stroke-miterlimit:10;stroke-dasharray:none;stroke-opacity:1"
       d="m 63.28761,-22.973576 33.22999,0" /><path
       inkscape:connector-curvature="0"
       id="path50-6"
       style="fill:#000000;fill-opacity:1;fill-rule:nonzero;stroke:none"
       d="m 82.9026,-39.570836 c 0,1.66 -1.34,3 -3,3 -1.656,0 -3,-1.34 -3,-3 0,-1.656 1.344,-3 3,-3 1.66,0 3,1.344 3,3" /><text
       id="text70-2"
       style="font-variant:normal;font-weight:normal;font-size:12px;font-family:TeXGyreHeros;-inkscape-font-specification:TeXGyreHeros-Regular;writing-mode:lr-tb;fill:#000000;fill-opacity:1;fill-rule:nonzero;stroke:none"
       x="72.314537"
       y="195.42033"
       transform="scale(1,-1)"><tspan
         id="tspan76-1"
         sodipodi:role="line"
         y="195.42033"
         x="72.314537">TC</tspan></text>
<path
       inkscape:connector-curvature="0"
       id="path66-4-4"
       style="fill:none;stroke:#000000;stroke-width:0.75;stroke-linecap:round;stroke-linejoin:round;stroke-miterlimit:10;stroke-dasharray:none;stroke-opacity:1"
       d="m 82.30309,-114.55514 c 0,1.325 -1.074,2.399 -2.398,2.399 -1.325,0 -2.403,-1.074 -2.403,-2.399 0,-1.324 1.078,-2.398 2.403,-2.398 1.324,0 2.398,1.074 2.398,2.398" /><path
       inkscape:connector-curvature="0"
       id="path66-3-0"
       style="fill:none;stroke:#000000;stroke-width:0.75;stroke-linecap:round;stroke-linejoin:round;stroke-miterlimit:10;stroke-dasharray:none;stroke-opacity:1"
       d="m 82.30309,-125.37136 c 0,1.325 -1.074,2.399 -2.398,2.399 -1.325,0 -2.403,-1.074 -2.403,-2.399 0,-1.324 1.078,-2.398 2.403,-2.398 1.324,0 2.398,1.074 2.398,2.398" /><path
       inkscape:connector-curvature="0"
       id="path66-9-6"
       style="fill:none;stroke:#000000;stroke-width:0.75;stroke-linecap:round;stroke-linejoin:round;stroke-miterlimit:10;stroke-dasharray:none;stroke-opacity:1"
       d="m 82.30309,-134.82338 c 0,1.325 -1.074,2.399 -2.398,2.399 -1.325,0 -2.403,-1.074 -2.403,-2.399 0,-1.324 1.078,-2.398 2.403,-2.398 1.324,0 2.398,1.074 2.398,2.398" /><path
       inkscape:connector-curvature="0"
       id="path66-7-0"
       style="fill:none;stroke:#000000;stroke-width:0.75;stroke-linecap:round;stroke-linejoin:round;stroke-miterlimit:10;stroke-dasharray:none;stroke-opacity:1"
       d="m 82.30309,-138.42878 c 0,1.325 -1.074,2.399 -2.398,2.399 -1.325,0 -2.403,-1.074 -2.403,-2.399 0,-1.324 1.078,-2.398 2.403,-2.398 1.324,0 2.398,1.074 2.398,2.398" /><path
       inkscape:connector-curvature="0"
       id="path66-0-7"
       style="fill:none;stroke:#000000;stroke-width:0.75;stroke-linecap:round;stroke-linejoin:round;stroke-miterlimit:10;stroke-dasharray:none;stroke-opacity:1"
       d="m 82.30309,-145.24982 c 0,1.325 -1.074,2.399 -2.398,2.399 -1.325,0 -2.403,-1.074 -2.403,-2.399 0,-1.324 1.078,-2.398 2.403,-2.398 1.324,0 2.398,1.074 2.398,2.398" /><g
       id="g4190"
       transform="translate(2.8484863,0)"><path
         d="m 149.07846,-114.18164 0,25.445934 33.29633,0 0,-47.801644 -33.29633,0 0,22.35571"
         style="fill:none;stroke:#000000;stroke-width:0.63008022;stroke-linecap:round;stroke-linejoin:round;stroke-miterlimit:10;stroke-dasharray:none;stroke-opacity:1"
         id="path52-5"
         inkscape:connector-curvature="0" /><path
         d="m 165.72661,-137.15042 0,-20.469"
         style="fill:none;stroke:#000000;stroke-width:0.75;stroke-linecap:round;stroke-linejoin:round;stroke-miterlimit:10;stroke-dasharray:none;stroke-opacity:1"
         id="path54-0"
         inkscape:connector-curvature="0" /><path
         sodipodi:nodetypes="cc"
         d="m 165.72661,-88.627196 0,47.19796"
         style="fill:none;stroke:#000000;stroke-width:0.75;stroke-linecap:round;stroke-linejoin:round;stroke-miterlimit:10;stroke-dasharray:none;stroke-opacity:1"
         id="path56-0"
         inkscape:connector-curvature="0" /><path
         d="m 149.11161,-157.61942 33.23,0"
         style="fill:none;stroke:#000000;stroke-width:0.75;stroke-linecap:round;stroke-linejoin:round;stroke-miterlimit:10;stroke-dasharray:none;stroke-opacity:1"
         id="path58-1"
         inkscape:connector-curvature="0" /><path
         d="m 149.11161,-41.429236 33.23,0"
         style="fill:none;stroke:#000000;stroke-width:0.75;stroke-linecap:round;stroke-linejoin:round;stroke-miterlimit:10;stroke-dasharray:none;stroke-opacity:1"
         id="path60-0"
         inkscape:connector-curvature="0" /><path
         d="m 168.72661,-118.71924 c 0,1.657 -1.343,3 -3,3 -1.656,0 -3,-1.343 -3,-3 0,-1.656 1.344,-3 3,-3 1.657,0 3,1.344 3,3"
         style="fill:#000000;fill-opacity:1;fill-rule:nonzero;stroke:none"
         id="path62-9"
         inkscape:connector-curvature="0" /><path
         d="m 168.12709,-161.79542 c 0,1.325 -1.074,2.399 -2.398,2.399 -1.325,0 -2.403,-1.074 -2.403,-2.399 0,-1.324 1.078,-2.402 2.403,-2.402 1.324,0 2.398,1.078 2.398,2.402"
         style="fill:none;stroke:#000000;stroke-width:0.75;stroke-linecap:round;stroke-linejoin:round;stroke-miterlimit:10;stroke-dasharray:none;stroke-opacity:1"
         id="path64-8"
         inkscape:connector-curvature="0" /><path
         d="m 168.12709,-160.00642 c 0,1.325 -1.074,2.399 -2.398,2.399 -1.325,0 -2.403,-1.074 -2.403,-2.399 0,-1.324 1.078,-2.398 2.403,-2.398 1.324,0 2.398,1.074 2.398,2.398"
         style="fill:none;stroke:#000000;stroke-width:0.75;stroke-linecap:round;stroke-linejoin:round;stroke-miterlimit:10;stroke-dasharray:none;stroke-opacity:1"
         id="path66-2"
         inkscape:connector-curvature="0" /><text
         transform="scale(1,-1)"
         y="195.42033"
         x="157.79276"
         style="font-variant:normal;font-weight:normal;font-size:12px;font-family:TeXGyreHeros;-inkscape-font-specification:TeXGyreHeros-Regular;writing-mode:lr-tb;fill:#000000;fill-opacity:1;fill-rule:nonzero;stroke:none"
         id="text70-6-6"><tspan
           x="157.79276"
           y="195.42033"
           sodipodi:role="line"
           id="tspan76-8-3">FS</tspan></text>
</g><g
       id="g4202"
       transform="translate(1.6,0)"><path
         d="m 238.93661,-139.25424 0,16.148 33.422,0 0,-30.332 -33.422,0 0,14.184"
         style="fill:none;stroke:#000000;stroke-width:0.75040001;stroke-linecap:round;stroke-linejoin:round;stroke-miterlimit:10;stroke-dasharray:none;stroke-opacity:1"
         id="path86-4"
         inkscape:connector-curvature="0" /><path
         d="m 255.64759,-153.93024 0,-9.145"
         style="fill:none;stroke:#000000;stroke-width:0.75;stroke-linecap:round;stroke-linejoin:round;stroke-miterlimit:10;stroke-dasharray:none;stroke-opacity:1"
         id="path88-5"
         inkscape:connector-curvature="0" /><path
         d="m 255.64759,-122.76624 0,31.312004"
         style="fill:none;stroke:#000000;stroke-width:0.75;stroke-linecap:round;stroke-linejoin:round;stroke-miterlimit:10;stroke-dasharray:none;stroke-opacity:1"
         id="path90-9"
         inkscape:connector-curvature="0" /><path
         d="m 239.03259,-163.07524 33.23,0"
         style="fill:none;stroke:#000000;stroke-width:0.75;stroke-linecap:round;stroke-linejoin:round;stroke-miterlimit:10;stroke-dasharray:none;stroke-opacity:1"
         id="path92-93"
         inkscape:connector-curvature="0" /><path
         d="m 239.03259,-91.278236 33.23,0"
         style="fill:none;stroke:#000000;stroke-width:0.75;stroke-linecap:round;stroke-linejoin:round;stroke-miterlimit:10;stroke-dasharray:none;stroke-opacity:1"
         id="path94-9"
         inkscape:connector-curvature="0" /><path
         d="m 258.64759,-144.14524 c 0,1.656 -1.344,3 -3,3 -1.66,0 -3,-1.344 -3,-3 0,-1.656 1.34,-3 3,-3 1.656,0 3,1.344 3,3"
         style="fill:#000000;fill-opacity:1;fill-rule:nonzero;stroke:none"
         id="path96-3"
         inkscape:connector-curvature="0" /><path
         d="m 258.04607,-85.325236 c 0,1.324 -1.074,2.399 -2.398,2.399 -1.324,0 -2.399,-1.075 -2.399,-2.399 0,-1.328 1.075,-2.402 2.399,-2.402 1.324,0 2.398,1.074 2.398,2.402"
         style="fill:none;stroke:#000000;stroke-width:0.75;stroke-linecap:round;stroke-linejoin:round;stroke-miterlimit:10;stroke-dasharray:none;stroke-opacity:1"
         id="path98-0"
         inkscape:connector-curvature="0" /><path
         d="m 258.04607,-87.126236 c 0,1.325 -1.074,2.399 -2.398,2.399 -1.324,0 -2.399,-1.074 -2.399,-2.399 0,-1.324 1.075,-2.402 2.399,-2.402 1.324,0 2.398,1.078 2.398,2.402"
         style="fill:none;stroke:#000000;stroke-width:0.75;stroke-linecap:round;stroke-linejoin:round;stroke-miterlimit:10;stroke-dasharray:none;stroke-opacity:1"
         id="path100-3"
         inkscape:connector-curvature="0" /><path
         d="m 258.04607,-77.837236 c 0,1.325 -1.074,2.399 -2.398,2.399 -1.324,0 -2.399,-1.074 -2.399,-2.399 0,-1.324 1.075,-2.398 2.399,-2.398 1.324,0 2.398,1.074 2.398,2.398"
         style="fill:none;stroke:#000000;stroke-width:0.75;stroke-linecap:round;stroke-linejoin:round;stroke-miterlimit:10;stroke-dasharray:none;stroke-opacity:1"
         id="path102-4"
         inkscape:connector-curvature="0" /><path
         d="m 258.04607,-74.567236 c 0,1.324 -1.074,2.402 -2.398,2.402 -1.324,0 -2.399,-1.078 -2.399,-2.402 0,-1.324 1.075,-2.398 2.399,-2.398 1.324,0 2.398,1.074 2.398,2.398"
         style="fill:none;stroke:#000000;stroke-width:0.75;stroke-linecap:round;stroke-linejoin:round;stroke-miterlimit:10;stroke-dasharray:none;stroke-opacity:1"
         id="path104-6"
         inkscape:connector-curvature="0" /><text
         transform="scale(1,-1)"
         y="195.42033"
         x="240.86781"
         style="font-variant:normal;font-weight:normal;font-size:12px;font-family:TeXGyreHeros;-inkscape-font-specification:TeXGyreHeros-Regular;writing-mode:lr-tb;fill:#000000;fill-opacity:1;fill-rule:nonzero;stroke:none"
         id="text70-9-0"><tspan
           x="240.86781"
           y="195.42033"
           sodipodi:role="line"
           id="tspan76-7-8">PWM</tspan></text>
</g><path
       style="fill:none;fill-rule:evenodd;stroke:#000000;stroke-width:0.80000001;stroke-linecap:butt;stroke-linejoin:miter;stroke-miterlimit:4;stroke-dasharray:none;stroke-opacity:1"
       d="m 78.389557,-19.721274 0,3.878456 88.365503,-0.06925 0.0479,-3.832286"
       id="path4188"
       inkscape:connector-curvature="0"
       sodipodi:nodetypes="cccc" /><path
       style="fill:none;fill-rule:evenodd;stroke:#000000;stroke-width:0.80000001;stroke-linecap:butt;stroke-linejoin:miter;stroke-miterlimit:4;stroke-dasharray:none;stroke-opacity:1"
       d="m 78.618305,-5.3051562 0,3.6514114 179.845045,-0.065196 0.0975,-3.6079442"
       id="path4188-9"
       inkscape:connector-curvature="0"
       sodipodi:nodetypes="cccc" /><path
       style="fill:none;fill-rule:evenodd;stroke:#000000;stroke-width:0.80000001;stroke-linecap:butt;stroke-linejoin:miter;stroke-miterlimit:4;stroke-dasharray:none;stroke-opacity:1"
       d="m 170.32336,-19.721274 0,3.878456 88.36551,-0.06925 0.0479,-3.832286"
       id="path4188-5"
       inkscape:connector-curvature="0"
       sodipodi:nodetypes="cccc" /><text
       id="text70-2-7"
       style="font-variant:normal;font-weight:normal;font-size:10px;font-family:TeXGyreHeros;-inkscape-font-specification:TeXGyreHeros-Regular;writing-mode:lr-tb;fill:#000000;fill-opacity:1;fill-rule:nonzero;stroke:none"
       x="131.57779"
       y="-0.46448287"
       transform="scale(1,-1)"><tspan
         id="tspan76-1-4"
         sodipodi:role="line"
         y="-0.46448287"
         x="131.57779"
         style="font-style:normal;font-variant:normal;font-weight:normal;font-stretch:normal;font-size:10px;font-family:sans-serif;-inkscape-font-specification:sans-serif">p-value &lt; 0.01</tspan></text>
<text
       id="text70-2-7-5"
       style="font-variant:normal;font-weight:normal;font-size:10px;font-family:TeXGyreHeros;-inkscape-font-specification:TeXGyreHeros-Regular;writing-mode:lr-tb;fill:#000000;fill-opacity:1;fill-rule:nonzero;stroke:none"
       x="85.584526"
       y="13.74477"
       transform="scale(1,-1)"><tspan
         id="tspan76-1-4-8"
         sodipodi:role="line"
         y="13.74477"
         x="85.584526"
         style="font-style:normal;font-variant:normal;font-weight:normal;font-stretch:normal;font-size:10px;font-family:sans-serif;-inkscape-font-specification:sans-serif">p-value &lt; 0.01</tspan></text>
<text
       id="text70-2-7-5-0"
       style="font-variant:normal;font-weight:normal;font-size:10px;font-family:TeXGyreHeros;-inkscape-font-specification:TeXGyreHeros-Regular;writing-mode:lr-tb;fill:#000000;fill-opacity:1;fill-rule:nonzero;stroke:none"
       x="177.51833"
       y="13.74477"
       transform="scale(1,-1)"><tspan
         id="tspan76-1-4-8-7"
         sodipodi:role="line"
         y="13.74477"
         x="177.51833"
         style="font-style:normal;font-variant:normal;font-weight:normal;font-stretch:normal;font-size:10px;font-family:sans-serif;-inkscape-font-specification:sans-serif">p-value &lt; 0.01</tspan></text>
</g></svg>