<?xml version="1.0" encoding="UTF-8" standalone="no"?>
<!-- Created with Inkscape (http://www.inkscape.org/) -->

<svg
   xmlns:dc="http://purl.org/dc/elements/1.1/"
   xmlns:cc="http://creativecommons.org/ns#"
   xmlns:rdf="http://www.w3.org/1999/02/22-rdf-syntax-ns#"
   xmlns:svg="http://www.w3.org/2000/svg"
   xmlns="http://www.w3.org/2000/svg"
   xmlns:sodipodi="http://sodipodi.sourceforge.net/DTD/sodipodi-0.dtd"
   xmlns:inkscape="http://www.inkscape.org/namespaces/inkscape"
   id="svg2"
   version="1.1"
   inkscape:version="0.91 r13725"
   xml:space="preserve"
   width="1101.4219"
   height="540.17523"
   viewBox="0 0 1101.4219 540.17523"
   sodipodi:docname="gusmao_HINT_topologies.svg"><metadata
     id="metadata8"><rdf:RDF><cc:Work
         rdf:about=""><dc:format>image/svg+xml</dc:format><dc:type
           rdf:resource="http://purl.org/dc/dcmitype/StillImage" /><dc:title /></cc:Work></rdf:RDF></metadata><defs
     id="defs6"><clipPath
       clipPathUnits="userSpaceOnUse"
       id="clipPath42"><path
         d="m 585.699,408.301 2780.901,0 0,3618.299 -2780.901,0 0,-3618.299 z"
         id="path44"
         inkscape:connector-curvature="0" /></clipPath><clipPath
       clipPathUnits="userSpaceOnUse"
       id="clipPath138"><path
         d="m 596.102,2277.6 5650.498,0 0,2469 -5650.498,0 0,-2469 z"
         id="path140-1"
         inkscape:connector-curvature="0" /></clipPath></defs><sodipodi:namedview
     pagecolor="#ffffff"
     bordercolor="#666666"
     borderopacity="1"
     objecttolerance="10"
     gridtolerance="10"
     guidetolerance="10"
     inkscape:pageopacity="0"
     inkscape:pageshadow="2"
     inkscape:window-width="1855"
     inkscape:window-height="1056"
     id="namedview4"
     showgrid="false"
     inkscape:zoom="0.87407407"
     inkscape:cx="504.63576"
     inkscape:cy="254.59413"
     inkscape:window-x="65"
     inkscape:window-y="24"
     inkscape:window-maximized="1"
     inkscape:current-layer="g10"
     showguides="true"
     inkscape:guide-bbox="true"
     fit-margin-top="1"
     fit-margin-right="1"
     fit-margin-bottom="1"
     fit-margin-left="1" /><g
     id="g10"
     inkscape:groupmode="layer"
     inkscape:label="gusmao_alternative_topologies_results"
     transform="matrix(1.25,0,0,-1.25,-512.84853,493.23565)"><path
       inkscape:connector-curvature="0"
       id="path48"
       style="fill:#808080;stroke:#808080;stroke-width:1.15847254;stroke-linecap:round;stroke-linejoin:round;stroke-miterlimit:10;stroke-dasharray:3.47541756, 5.79236259;stroke-dashoffset:0;stroke-opacity:1"
       d="m 493.6857,111.03863 796.3431,0"
       sodipodi:nodetypes="cc" /><path
       inkscape:connector-curvature="0"
       id="path50"
       style="fill:#808080;stroke:#808080;stroke-width:1.15847254;stroke-linecap:round;stroke-linejoin:round;stroke-miterlimit:10;stroke-dasharray:3.47541756, 5.79236259;stroke-dashoffset:0;stroke-opacity:1"
       d="m 493.6857,167.49596 796.3431,0"
       sodipodi:nodetypes="cc" /><path
       inkscape:connector-curvature="0"
       id="path52"
       style="fill:#808080;stroke:#808080;stroke-width:1.15847254;stroke-linecap:round;stroke-linejoin:round;stroke-miterlimit:10;stroke-dasharray:3.47541756, 5.79236259;stroke-dashoffset:0;stroke-opacity:1"
       d="m 493.6857,223.96327 796.3431,0"
       sodipodi:nodetypes="cc" /><path
       inkscape:connector-curvature="0"
       id="path54"
       style="fill:#808080;stroke:#808080;stroke-width:1.15847254;stroke-linecap:round;stroke-linejoin:round;stroke-miterlimit:10;stroke-dasharray:3.47541756, 5.79236259;stroke-dashoffset:0;stroke-opacity:1"
       d="m 493.6857,280.43058 796.3431,0"
       sodipodi:nodetypes="cc" /><path
       inkscape:connector-curvature="0"
       id="path56"
       style="fill:#808080;stroke:#808080;stroke-width:1.15847254;stroke-linecap:round;stroke-linejoin:round;stroke-miterlimit:10;stroke-dasharray:3.47541756, 5.79236259;stroke-dashoffset:0;stroke-opacity:1"
       d="m 493.88794,336.88791 796.14086,0"
       sodipodi:nodetypes="cc" /><path
       inkscape:connector-curvature="0"
       id="path232"
       style="fill:none;stroke:#000000;stroke-width:0.80000001;stroke-linecap:round;stroke-linejoin:round;stroke-miterlimit:10;stroke-dasharray:none;stroke-opacity:1"
       d="m 493.68917,85.065323 796.32153,0 0,308.323197 -796.32153,0 0,-308.323197 z" /><text
       xml:space="preserve"
       style="font-style:normal;font-weight:normal;font-size:20px;line-height:94.99999881%;font-family:sans-serif;letter-spacing:0px;word-spacing:0px;fill:#000000;fill-opacity:1;stroke:none;stroke-width:1px;stroke-linecap:butt;stroke-linejoin:miter;stroke-opacity:1"
       x="496.49667"
       y="-60.974075"
       id="text4556"
       sodipodi:linespacing="94.999999%"
       transform="scale(1,-1)"><tspan
         sodipodi:role="line"
         id="tspan4558"
         x="496.49667"
         y="-60.974075"
         style="line-height:94.99999881%">DNase +</tspan><tspan
         sodipodi:role="line"
         x="496.49667"
         y="-41.974075"
         id="tspan4560"
         style="line-height:94.99999881%">histone</tspan></text>
<text
       xml:space="preserve"
       style="font-style:normal;font-weight:normal;font-size:20px;line-height:94.99999881%;font-family:sans-serif;letter-spacing:0px;word-spacing:0px;fill:#000000;fill-opacity:1;stroke:none;stroke-width:1px;stroke-linecap:butt;stroke-linejoin:miter;stroke-opacity:1"
       x="911.78888"
       y="-60.974075"
       id="text4556-9"
       sodipodi:linespacing="94.999999%"
       transform="scale(1,-1)"><tspan
         sodipodi:role="line"
         id="tspan4558-0"
         x="911.78888"
         y="-60.974075"
         style="line-height:94.99999881%">DNase +</tspan><tspan
         sodipodi:role="line"
         x="911.78888"
         y="-41.974075"
         id="tspan4560-6"
         style="line-height:94.99999881%">histone</tspan><tspan
         sodipodi:role="line"
         x="911.78888"
         y="-22.974075"
         id="tspan4617"
         style="line-height:94.99999881%">w/o slope</tspan></text>
<text
       xml:space="preserve"
       style="font-style:normal;font-weight:normal;font-size:20px;line-height:94.99999881%;font-family:sans-serif;letter-spacing:0px;word-spacing:0px;fill:#000000;fill-opacity:1;stroke:none;stroke-width:1px;stroke-linecap:butt;stroke-linejoin:miter;stroke-opacity:1"
       x="617.69257"
       y="-60.974075"
       id="text4556-0"
       sodipodi:linespacing="94.999999%"
       transform="scale(1,-1)"><tspan
         sodipodi:role="line"
         id="tspan4558-6"
         x="617.69257"
         y="-60.974075"
         style="line-height:94.99999881%">DNase +</tspan><tspan
         sodipodi:role="line"
         x="617.69257"
         y="-41.974075"
         id="tspan4560-9"
         style="line-height:94.99999881%">histone</tspan><tspan
         sodipodi:role="line"
         x="617.69257"
         y="-22.974075"
         style="line-height:94.99999881%"
         id="tspan4619">asymmetric</tspan><tspan
         sodipodi:role="line"
         x="617.69257"
         y="-3.974076"
         style="line-height:94.99999881%"
         id="tspan4621">peaks</tspan></text>
<text
       xml:space="preserve"
       style="font-style:normal;font-weight:normal;font-size:20px;line-height:125%;font-family:sans-serif;letter-spacing:0px;word-spacing:0px;fill:#000000;fill-opacity:1;stroke:none;stroke-width:1px;stroke-linecap:butt;stroke-linejoin:miter;stroke-opacity:1"
       x="758.09924"
       y="-60.358841"
       id="text4556-00"
       sodipodi:linespacing="125%"
       transform="scale(1,-1)"><tspan
         sodipodi:role="line"
         x="758.09924"
         y="-60.358841"
         id="tspan4560-0">DNase-only</tspan></text>
<text
       xml:space="preserve"
       style="font-style:normal;font-weight:normal;font-size:20px;line-height:125%;font-family:sans-serif;letter-spacing:0px;word-spacing:0px;fill:#000000;fill-opacity:1;stroke:none;stroke-width:1px;stroke-linecap:butt;stroke-linejoin:miter;stroke-opacity:1"
       x="1039.764"
       y="-60.358841"
       id="text4556-1"
       sodipodi:linespacing="125%"
       transform="scale(1,-1)"><tspan
         sodipodi:role="line"
         x="1039.764"
         y="-60.358841"
         id="tspan4560-97">Histone-only</tspan></text>
<text
       xml:space="preserve"
       style="font-style:normal;font-weight:normal;font-size:20px;line-height:94.99999881%;font-family:sans-serif;letter-spacing:0px;word-spacing:0px;fill:#000000;fill-opacity:1;stroke:none;stroke-width:1px;stroke-linecap:butt;stroke-linejoin:miter;stroke-opacity:1"
       x="455.80591"
       y="-329.67053"
       id="text4556-05"
       sodipodi:linespacing="94.999999%"
       transform="scale(1,-1)"><tspan
         sodipodi:role="line"
         x="455.80591"
         y="-329.67053"
         id="tspan4560-1"
         style="line-height:94.99999881%">90</tspan></text>
<text
       xml:space="preserve"
       style="font-style:normal;font-weight:normal;font-size:20px;line-height:94.99999881%;font-family:sans-serif;letter-spacing:0px;word-spacing:0px;fill:#000000;fill-opacity:1;stroke:none;stroke-width:1px;stroke-linecap:butt;stroke-linejoin:miter;stroke-opacity:1"
       x="455.75708"
       y="-273.19778"
       id="text4556-05-1"
       sodipodi:linespacing="94.999999%"
       transform="scale(1,-1)"><tspan
         sodipodi:role="line"
         x="455.75708"
         y="-273.19778"
         id="tspan4560-1-9"
         style="line-height:94.99999881%">80</tspan></text>
<text
       xml:space="preserve"
       style="font-style:normal;font-weight:normal;font-size:20px;line-height:94.99999881%;font-family:sans-serif;letter-spacing:0px;word-spacing:0px;fill:#000000;fill-opacity:1;stroke:none;stroke-width:1px;stroke-linecap:butt;stroke-linejoin:miter;stroke-opacity:1"
       x="455.61548"
       y="-216.72508"
       id="text4556-05-0"
       sodipodi:linespacing="94.999999%"
       transform="scale(1,-1)"><tspan
         sodipodi:role="line"
         x="455.61548"
         y="-216.72508"
         id="tspan4560-1-4"
         style="line-height:94.99999881%">70</tspan></text>
<text
       xml:space="preserve"
       style="font-style:normal;font-weight:normal;font-size:20px;line-height:94.99999881%;font-family:sans-serif;letter-spacing:0px;word-spacing:0px;fill:#000000;fill-opacity:1;stroke:none;stroke-width:1px;stroke-linecap:butt;stroke-linejoin:miter;stroke-opacity:1"
       x="455.73755"
       y="-160.25235"
       id="text4556-05-3"
       sodipodi:linespacing="94.999999%"
       transform="scale(1,-1)"><tspan
         sodipodi:role="line"
         x="455.73755"
         y="-160.25235"
         id="tspan4560-1-92"
         style="line-height:94.99999881%">60</tspan></text>
<text
       xml:space="preserve"
       style="font-style:normal;font-weight:normal;font-size:20px;line-height:94.99999881%;font-family:sans-serif;letter-spacing:0px;word-spacing:0px;fill:#000000;fill-opacity:1;stroke:none;stroke-width:1px;stroke-linecap:butt;stroke-linejoin:miter;stroke-opacity:1"
       x="455.66431"
       y="-103.77962"
       id="text4556-05-4"
       sodipodi:linespacing="94.999999%"
       transform="scale(1,-1)"><tspan
         sodipodi:role="line"
         x="455.66431"
         y="-103.77962"
         id="tspan4560-1-6"
         style="line-height:94.99999881%">50</tspan></text>
<g
       id="g6988"
       transform="translate(11.188315,0)"><path
         d="m 507.67016,314.87947 0,16.84 43.4502,0 0,-24.61 -43.4502,0 0,7.77"
         style="fill:none;stroke:#000000;stroke-width:0.75;stroke-linecap:round;stroke-linejoin:round;stroke-miterlimit:10;stroke-dasharray:none;stroke-opacity:1"
         id="path58-8"
         inkscape:connector-curvature="0" /><path
         sodipodi:nodetypes="cc"
         d="m 529.39036,307.10947 0,-50.92797"
         style="fill:none;stroke:#000000;stroke-width:0.75;stroke-linecap:round;stroke-linejoin:round;stroke-miterlimit:10;stroke-dasharray:none;stroke-opacity:1"
         id="path64-5"
         inkscape:connector-curvature="0" /><path
         d="m 529.39036,331.71947 0,36.61"
         style="fill:none;stroke:#000000;stroke-width:0.75;stroke-linecap:round;stroke-linejoin:round;stroke-miterlimit:10;stroke-dasharray:none;stroke-opacity:1"
         id="path70-9"
         inkscape:connector-curvature="0" /><path
         d="m 507.67016,255.75947 43.4502,0"
         style="fill:none;stroke:#000000;stroke-width:0.75;stroke-linecap:round;stroke-linejoin:round;stroke-miterlimit:10;stroke-dasharray:none;stroke-opacity:1"
         id="path76-1"
         inkscape:connector-curvature="0" /><path
         d="m 507.67016,368.32947 43.4502,0"
         style="fill:none;stroke:#000000;stroke-width:0.75;stroke-linecap:round;stroke-linejoin:round;stroke-miterlimit:10;stroke-dasharray:none;stroke-opacity:1"
         id="path82-2"
         inkscape:connector-curvature="0" /><path
         d="m 532.39036,324.47947 c 0,1.656 -1.343,3 -3,3 -1.656,0 -3,-1.344 -3,-3 0,-1.657 1.344,-3 3,-3 1.657,0 3,1.343 3,3"
         style="fill:#000000;fill-opacity:1;fill-rule:nonzero;stroke:none"
         id="path88-0"
         inkscape:connector-curvature="0" /><path
         d="m 531.79034,224.50568 c 0,1.325 -1.074,2.4 -2.4,2.4 -1.325,0 -2.4,-1.075 -2.4,-2.4 0,-1.325 1.075,-2.4 2.4,-2.4 1.326,0 2.4,1.075 2.4,2.4"
         style="fill:none;stroke:#000000;stroke-width:0.75;stroke-linecap:round;stroke-linejoin:round;stroke-miterlimit:10;stroke-dasharray:none;stroke-opacity:1"
         id="path556-6"
         inkscape:connector-curvature="0" /><path
         d="m 531.79034,210.14568 c 0,1.325 -1.074,2.4 -2.4,2.4 -1.325,0 -2.4,-1.075 -2.4,-2.4 0,-1.326 1.075,-2.4 2.4,-2.4 1.326,0 2.4,1.074 2.4,2.4"
         style="fill:none;stroke:#000000;stroke-width:0.75;stroke-linecap:round;stroke-linejoin:round;stroke-miterlimit:10;stroke-dasharray:none;stroke-opacity:1"
         id="path558-7"
         inkscape:connector-curvature="0" /><path
         d="m 531.79034,213.58568 c 0,1.325 -1.074,2.4 -2.4,2.4 -1.325,0 -2.4,-1.075 -2.4,-2.4 0,-1.325 1.075,-2.4 2.4,-2.4 1.326,0 2.4,1.075 2.4,2.4"
         style="fill:none;stroke:#000000;stroke-width:0.75;stroke-linecap:round;stroke-linejoin:round;stroke-miterlimit:10;stroke-dasharray:none;stroke-opacity:1"
         id="path560-9"
         inkscape:connector-curvature="0" /><path
         d="m 531.79034,244.73568 c 0,1.325 -1.074,2.4 -2.4,2.4 -1.325,0 -2.4,-1.075 -2.4,-2.4 0,-1.325 1.075,-2.4 2.4,-2.4 1.326,0 2.4,1.075 2.4,2.4"
         style="fill:none;stroke:#000000;stroke-width:0.75;stroke-linecap:round;stroke-linejoin:round;stroke-miterlimit:10;stroke-dasharray:none;stroke-opacity:1"
         id="path562-7"
         inkscape:connector-curvature="0" /></g><g
       id="g7000"
       transform="translate(21.71907,0)"><path
         d="m 633.45748,290.46917 0,39.52 43.45,0 0,-74.41 -43.45,0 0,34.89"
         style="fill:none;stroke:#000000;stroke-width:0.75040001;stroke-linecap:round;stroke-linejoin:round;stroke-miterlimit:10;stroke-dasharray:none;stroke-opacity:1"
         id="path60-8"
         inkscape:connector-curvature="0" /><path
         sodipodi:nodetypes="cc"
         d="m 655.18748,255.57917 0,-46.8069"
         style="fill:none;stroke:#000000;stroke-width:0.75;stroke-linecap:round;stroke-linejoin:round;stroke-miterlimit:10;stroke-dasharray:none;stroke-opacity:1"
         id="path66-7"
         inkscape:connector-curvature="0" /><path
         sodipodi:nodetypes="cc"
         d="m 655.18748,329.98917 0,32.31092"
         style="fill:none;stroke:#000000;stroke-width:0.75;stroke-linecap:round;stroke-linejoin:round;stroke-miterlimit:10;stroke-dasharray:none;stroke-opacity:1"
         id="path72-1"
         inkscape:connector-curvature="0" /><path
         d="m 633.45748,208.71897 43.45,0"
         style="fill:none;stroke:#000000;stroke-width:0.75;stroke-linecap:round;stroke-linejoin:round;stroke-miterlimit:10;stroke-dasharray:none;stroke-opacity:1"
         id="path78-1"
         inkscape:connector-curvature="0" /><path
         d="m 633.45748,362.43799 43.45,0"
         style="fill:none;stroke:#000000;stroke-width:0.75;stroke-linecap:round;stroke-linejoin:round;stroke-miterlimit:10;stroke-dasharray:none;stroke-opacity:1"
         id="path84-8"
         inkscape:connector-curvature="0" /><path
         d="m 658.59585,312.86917 c 0,1.656 -1.343,3 -3,3 -1.657,0 -3,-1.344 -3,-3 0,-1.657 1.343,-3 3,-3 1.657,0 3,1.343 3,3"
         style="fill:#000000;fill-opacity:1;fill-rule:nonzero;stroke:none"
         id="path90-7"
         inkscape:connector-curvature="0" /><path
         d="m 657.99583,148.31187 c 0,1.326 -1.074,2.4 -2.4,2.4 -1.325,0 -2.4,-1.074 -2.4,-2.4 0,-1.325 1.075,-2.4 2.4,-2.4 1.326,0 2.4,1.075 2.4,2.4"
         style="fill:none;stroke:#000000;stroke-width:0.75;stroke-linecap:round;stroke-linejoin:round;stroke-miterlimit:10;stroke-dasharray:none;stroke-opacity:1"
         id="path466-8"
         inkscape:connector-curvature="0" /><path
         d="m 657.99583,132.32187 c 0,1.325 -1.074,2.4 -2.4,2.4 -1.325,0 -2.4,-1.075 -2.4,-2.4 0,-1.325 1.075,-2.4 2.4,-2.4 1.326,0 2.4,1.075 2.4,2.4"
         style="fill:none;stroke:#000000;stroke-width:0.75;stroke-linecap:round;stroke-linejoin:round;stroke-miterlimit:10;stroke-dasharray:none;stroke-opacity:1"
         id="path468-1"
         inkscape:connector-curvature="0" /><path
         d="m 657.99583,186.00187 c 0,1.325 -1.074,2.4 -2.4,2.4 -1.325,0 -2.4,-1.075 -2.4,-2.4 0,-1.325 1.075,-2.4 2.4,-2.4 1.326,0 2.4,1.075 2.4,2.4"
         style="fill:none;stroke:#000000;stroke-width:0.75;stroke-linecap:round;stroke-linejoin:round;stroke-miterlimit:10;stroke-dasharray:none;stroke-opacity:1"
         id="path470-1"
         inkscape:connector-curvature="0" /><path
         d="m 657.99583,157.13187 c 0,1.325 -1.074,2.4 -2.4,2.4 -1.325,0 -2.4,-1.075 -2.4,-2.4 0,-1.325 1.075,-2.4 2.4,-2.4 1.326,0 2.4,1.075 2.4,2.4"
         style="fill:none;stroke:#000000;stroke-width:0.75;stroke-linecap:round;stroke-linejoin:round;stroke-miterlimit:10;stroke-dasharray:none;stroke-opacity:1"
         id="path472-7"
         inkscape:connector-curvature="0" /><path
         d="m 657.99583,174.16187 c 0,1.326 -1.074,2.4 -2.4,2.4 -1.325,0 -2.4,-1.074 -2.4,-2.4 0,-1.325 1.075,-2.4 2.4,-2.4 1.326,0 2.4,1.075 2.4,2.4"
         style="fill:none;stroke:#000000;stroke-width:0.75;stroke-linecap:round;stroke-linejoin:round;stroke-miterlimit:10;stroke-dasharray:none;stroke-opacity:1"
         id="path474-9"
         inkscape:connector-curvature="0" /></g><path
       inkscape:connector-curvature="0"
       id="path58-6"
       style="fill:none;stroke:#000000;stroke-width:0.75040001;stroke-linecap:round;stroke-linejoin:round;stroke-miterlimit:10;stroke-dasharray:none;stroke-opacity:1"
       d="m 1081.7305,220.56472 0,16.84 43.4502,0 0,-24.61 -43.4502,0 0,7.77" /><path
       inkscape:connector-curvature="0"
       id="path64-8"
       style="fill:none;stroke:#000000;stroke-width:0.75;stroke-linecap:round;stroke-linejoin:round;stroke-miterlimit:10;stroke-dasharray:none;stroke-opacity:1"
       d="m 1103.4556,212.79472 0,-17.75" /><path
       inkscape:connector-curvature="0"
       id="path70-2"
       style="fill:none;stroke:#000000;stroke-width:0.75;stroke-linecap:round;stroke-linejoin:round;stroke-miterlimit:10;stroke-dasharray:none;stroke-opacity:1"
       d="m 1103.4556,237.40472 0,36.61" /><path
       inkscape:connector-curvature="0"
       id="path76-0"
       style="fill:none;stroke:#000000;stroke-width:0.75;stroke-linecap:round;stroke-linejoin:round;stroke-miterlimit:10;stroke-dasharray:none;stroke-opacity:1"
       d="m 1081.7305,195.04472 43.4502,0" /><path
       inkscape:connector-curvature="0"
       id="path82-9"
       style="fill:none;stroke:#000000;stroke-width:0.75;stroke-linecap:round;stroke-linejoin:round;stroke-miterlimit:10;stroke-dasharray:none;stroke-opacity:1"
       d="m 1081.7305,274.01472 43.4502,0" /><path
       inkscape:connector-curvature="0"
       id="path88-5"
       style="fill:#000000;fill-opacity:1;fill-rule:nonzero;stroke:none"
       d="m 1106.4556,230.16472 c 0,1.656 -1.343,3 -3,3 -1.656,0 -3,-1.344 -3,-3 0,-1.657 1.344,-3 3,-3 1.657,0 3,1.343 3,3" /><path
       inkscape:connector-curvature="0"
       id="path96-2"
       style="fill:none;stroke:#000000;stroke-width:0.75;stroke-linecap:round;stroke-linejoin:round;stroke-miterlimit:10;stroke-dasharray:none;stroke-opacity:1"
       d="m 1105.8555,279.77472 c 0,1.325 -1.074,2.4 -2.4,2.4 -1.325,0 -2.4,-1.075 -2.4,-2.4 0,-1.325 1.075,-2.4 2.4,-2.4 1.326,0 2.4,1.075 2.4,2.4" /><path
       inkscape:connector-curvature="0"
       id="path102-2"
       style="fill:none;stroke:#000000;stroke-width:0.75;stroke-linecap:round;stroke-linejoin:round;stroke-miterlimit:10;stroke-dasharray:none;stroke-opacity:1"
       d="m 1105.8555,274.68472 c 0,1.326 -1.074,2.4 -2.4,2.4 -1.325,0 -2.4,-1.074 -2.4,-2.4 0,-1.325 1.075,-2.4 2.4,-2.4 1.326,0 2.4,1.075 2.4,2.4" /><path
       inkscape:connector-curvature="0"
       id="path106-6"
       style="fill:none;stroke:#000000;stroke-width:0.75;stroke-linecap:round;stroke-linejoin:round;stroke-miterlimit:10;stroke-dasharray:none;stroke-opacity:1"
       d="m 1105.8555,277.24472 c 0,1.325 -1.074,2.4 -2.4,2.4 -1.325,0 -2.4,-1.075 -2.4,-2.4 0,-1.325 1.075,-2.4 2.4,-2.4 1.326,0 2.4,1.075 2.4,2.4" /><path
       inkscape:connector-curvature="0"
       id="path116-8"
       style="fill:none;stroke:#000000;stroke-width:0.75;stroke-linecap:round;stroke-linejoin:round;stroke-miterlimit:10;stroke-dasharray:none;stroke-opacity:1"
       d="m 1105.8555,275.34472 c 0,1.325 -1.074,2.4 -2.4,2.4 -1.325,0 -2.4,-1.075 -2.4,-2.4 0,-1.325 1.075,-2.4 2.4,-2.4 1.326,0 2.4,1.075 2.4,2.4" /><path
       inkscape:connector-curvature="0"
       id="path118-0"
       style="fill:none;stroke:#000000;stroke-width:0.75;stroke-linecap:round;stroke-linejoin:round;stroke-miterlimit:10;stroke-dasharray:none;stroke-opacity:1"
       d="m 1105.8555,284.90472 c 0,1.325 -1.074,2.4 -2.4,2.4 -1.325,0 -2.4,-1.075 -2.4,-2.4 0,-1.325 1.075,-2.4 2.4,-2.4 1.326,0 2.4,1.075 2.4,2.4" /><path
       inkscape:connector-curvature="0"
       id="path122-7"
       style="fill:none;stroke:#000000;stroke-width:0.75;stroke-linecap:round;stroke-linejoin:round;stroke-miterlimit:10;stroke-dasharray:none;stroke-opacity:1"
       d="m 1105.8555,279.87472 c 0,1.325 -1.074,2.4 -2.4,2.4 -1.325,0 -2.4,-1.075 -2.4,-2.4 0,-1.325 1.075,-2.4 2.4,-2.4 1.326,0 2.4,1.075 2.4,2.4" /><path
       inkscape:connector-curvature="0"
       id="path124-3"
       style="fill:none;stroke:#000000;stroke-width:0.75;stroke-linecap:round;stroke-linejoin:round;stroke-miterlimit:10;stroke-dasharray:none;stroke-opacity:1"
       d="m 1105.8555,275.46472 c 0,1.325 -1.074,2.4 -2.4,2.4 -1.325,0 -2.4,-1.075 -2.4,-2.4 0,-1.326 1.075,-2.4 2.4,-2.4 1.326,0 2.4,1.074 2.4,2.4" /><path
       inkscape:connector-curvature="0"
       id="path126-9"
       style="fill:none;stroke:#000000;stroke-width:0.75;stroke-linecap:round;stroke-linejoin:round;stroke-miterlimit:10;stroke-dasharray:none;stroke-opacity:1"
       d="m 1105.8555,304.77472 c 0,1.325 -1.074,2.4 -2.4,2.4 -1.325,0 -2.4,-1.075 -2.4,-2.4 0,-1.325 1.075,-2.4 2.4,-2.4 1.326,0 2.4,1.075 2.4,2.4" /><path
       inkscape:connector-curvature="0"
       id="path130-3"
       style="fill:none;stroke:#000000;stroke-width:0.75;stroke-linecap:round;stroke-linejoin:round;stroke-miterlimit:10;stroke-dasharray:none;stroke-opacity:1"
       d="m 1105.8555,324.97472 c 0,1.325 -1.074,2.4 -2.4,2.4 -1.325,0 -2.4,-1.075 -2.4,-2.4 0,-1.325 1.075,-2.4 2.4,-2.4 1.326,0 2.4,1.075 2.4,2.4" /><path
       inkscape:connector-curvature="0"
       id="path134-9"
       style="fill:none;stroke:#000000;stroke-width:0.75;stroke-linecap:round;stroke-linejoin:round;stroke-miterlimit:10;stroke-dasharray:none;stroke-opacity:1"
       d="m 1105.8555,277.33472 c 0,1.326 -1.074,2.4 -2.4,2.4 -1.325,0 -2.4,-1.074 -2.4,-2.4 0,-1.325 1.075,-2.4 2.4,-2.4 1.326,0 2.4,1.075 2.4,2.4" /><path
       inkscape:connector-curvature="0"
       id="path138-9"
       style="fill:none;stroke:#000000;stroke-width:0.75;stroke-linecap:round;stroke-linejoin:round;stroke-miterlimit:10;stroke-dasharray:none;stroke-opacity:1"
       d="m 1105.8555,276.09472 c 0,1.325 -1.074,2.4 -2.4,2.4 -1.325,0 -2.4,-1.075 -2.4,-2.4 0,-1.325 1.075,-2.4 2.4,-2.4 1.326,0 2.4,1.075 2.4,2.4" /><path
       inkscape:connector-curvature="0"
       id="path144-1"
       style="fill:none;stroke:#000000;stroke-width:0.75;stroke-linecap:round;stroke-linejoin:round;stroke-miterlimit:10;stroke-dasharray:none;stroke-opacity:1"
       d="m 1105.8555,274.76472 c 0,1.325 -1.074,2.4 -2.4,2.4 -1.325,0 -2.4,-1.075 -2.4,-2.4 0,-1.326 1.075,-2.4 2.4,-2.4 1.326,0 2.4,1.074 2.4,2.4" /><path
       inkscape:connector-curvature="0"
       id="path150-5"
       style="fill:none;stroke:#000000;stroke-width:0.75;stroke-linecap:round;stroke-linejoin:round;stroke-miterlimit:10;stroke-dasharray:none;stroke-opacity:1"
       d="m 1105.8555,327.49472 c 0,1.325 -1.074,2.4 -2.4,2.4 -1.325,0 -2.4,-1.075 -2.4,-2.4 0,-1.325 1.075,-2.4 2.4,-2.4 1.326,0 2.4,1.075 2.4,2.4" /><path
       inkscape:connector-curvature="0"
       id="path152-8"
       style="fill:none;stroke:#000000;stroke-width:0.75;stroke-linecap:round;stroke-linejoin:round;stroke-miterlimit:10;stroke-dasharray:none;stroke-opacity:1"
       d="m 1105.8555,330.34472 c 0,1.325 -1.074,2.4 -2.4,2.4 -1.325,0 -2.4,-1.075 -2.4,-2.4 0,-1.325 1.075,-2.4 2.4,-2.4 1.326,0 2.4,1.075 2.4,2.4" /><path
       inkscape:connector-curvature="0"
       id="path156-2"
       style="fill:none;stroke:#000000;stroke-width:0.75;stroke-linecap:round;stroke-linejoin:round;stroke-miterlimit:10;stroke-dasharray:none;stroke-opacity:1"
       d="m 1105.8555,275.47472 c 0,1.325 -1.074,2.4 -2.4,2.4 -1.325,0 -2.4,-1.075 -2.4,-2.4 0,-1.325 1.075,-2.4 2.4,-2.4 1.326,0 2.4,1.075 2.4,2.4" /><path
       inkscape:connector-curvature="0"
       id="path158-23"
       style="fill:none;stroke:#000000;stroke-width:0.75;stroke-linecap:round;stroke-linejoin:round;stroke-miterlimit:10;stroke-dasharray:none;stroke-opacity:1"
       d="m 1105.8555,284.54472 c 0,1.325 -1.074,2.4 -2.4,2.4 -1.325,0 -2.4,-1.075 -2.4,-2.4 0,-1.325 1.075,-2.4 2.4,-2.4 1.326,0 2.4,1.075 2.4,2.4" /><path
       inkscape:connector-curvature="0"
       id="path166-5"
       style="fill:none;stroke:#000000;stroke-width:0.75;stroke-linecap:round;stroke-linejoin:round;stroke-miterlimit:10;stroke-dasharray:none;stroke-opacity:1"
       d="m 1105.8555,310.43472 c 0,1.326 -1.074,2.4 -2.4,2.4 -1.325,0 -2.4,-1.074 -2.4,-2.4 0,-1.325 1.075,-2.4 2.4,-2.4 1.326,0 2.4,1.075 2.4,2.4" /><path
       inkscape:connector-curvature="0"
       id="path168-9"
       style="fill:none;stroke:#000000;stroke-width:0.75;stroke-linecap:round;stroke-linejoin:round;stroke-miterlimit:10;stroke-dasharray:none;stroke-opacity:1"
       d="m 1105.8555,315.75472 c 0,1.325 -1.074,2.4 -2.4,2.4 -1.325,0 -2.4,-1.075 -2.4,-2.4 0,-1.325 1.075,-2.4 2.4,-2.4 1.326,0 2.4,1.075 2.4,2.4" /><path
       inkscape:connector-curvature="0"
       id="path184-7"
       style="fill:none;stroke:#000000;stroke-width:0.75;stroke-linecap:round;stroke-linejoin:round;stroke-miterlimit:10;stroke-dasharray:none;stroke-opacity:1"
       d="m 1105.8555,279.23472 c 0,1.326 -1.074,2.4 -2.4,2.4 -1.325,0 -2.4,-1.074 -2.4,-2.4 0,-1.325 1.075,-2.4 2.4,-2.4 1.326,0 2.4,1.075 2.4,2.4" /><g
       id="g7013"
       transform="translate(16.487356,0)"><path
         d="m 778.35908,288.16366 0,35.45043 43.14624,0 0,-51.80732 -43.14624,0 0,16.35689"
         style="fill:none;stroke:#000000;stroke-width:0.75040001;stroke-linecap:round;stroke-linejoin:round;stroke-miterlimit:10;stroke-dasharray:none;stroke-opacity:1"
         id="path58-6-3"
         inkscape:connector-curvature="0" /><path
         sodipodi:nodetypes="cc"
         d="m 799.9273,271.16979 0,-13.51695"
         style="fill:none;stroke:#000000;stroke-width:0.75;stroke-linecap:round;stroke-linejoin:round;stroke-miterlimit:10;stroke-dasharray:none;stroke-opacity:1"
         id="path64-8-4"
         inkscape:connector-curvature="0" /><path
         sodipodi:nodetypes="cc"
         d="m 799.9273,323.80652 0,36.61"
         style="fill:none;stroke:#000000;stroke-width:0.75;stroke-linecap:round;stroke-linejoin:round;stroke-miterlimit:10;stroke-dasharray:none;stroke-opacity:1"
         id="path70-2-4"
         inkscape:connector-curvature="0" /><path
         d="m 778.2071,257.70499 43.4502,0"
         style="fill:none;stroke:#000000;stroke-width:0.75;stroke-linecap:round;stroke-linejoin:round;stroke-miterlimit:10;stroke-dasharray:none;stroke-opacity:1"
         id="path76-0-9"
         inkscape:connector-curvature="0" /><path
         d="m 778.2071,360.54259 43.4502,0"
         style="fill:none;stroke:#000000;stroke-width:0.75;stroke-linecap:round;stroke-linejoin:round;stroke-miterlimit:10;stroke-dasharray:none;stroke-opacity:1"
         id="path82-9-4"
         inkscape:connector-curvature="0" /><path
         d="m 802.9273,308.69259 c 0,1.656 -1.343,3 -3,3 -1.656,0 -3,-1.344 -3,-3 0,-1.657 1.344,-3 3,-3 1.657,0 3,1.343 3,3"
         style="fill:#000000;fill-opacity:1;fill-rule:nonzero;stroke:none"
         id="path88-5-7"
         inkscape:connector-curvature="0" /><path
         d="m 803.24744,221.09212 c 0,1.325 -1.074,2.4 -2.4,2.4 -1.325,0 -2.4,-1.075 -2.4,-2.4 0,-1.325 1.075,-2.4 2.4,-2.4 1.326,0 2.4,1.075 2.4,2.4"
         style="fill:none;stroke:#000000;stroke-width:0.75;stroke-linecap:round;stroke-linejoin:round;stroke-miterlimit:10;stroke-dasharray:none;stroke-opacity:1"
         id="path556-6-2"
         inkscape:connector-curvature="0" /><path
         d="m 803.24744,206.73212 c 0,1.325 -1.074,2.4 -2.4,2.4 -1.325,0 -2.4,-1.075 -2.4,-2.4 0,-1.326 1.075,-2.4 2.4,-2.4 1.326,0 2.4,1.074 2.4,2.4"
         style="fill:none;stroke:#000000;stroke-width:0.75;stroke-linecap:round;stroke-linejoin:round;stroke-miterlimit:10;stroke-dasharray:none;stroke-opacity:1"
         id="path558-7-5"
         inkscape:connector-curvature="0" /><path
         d="m 803.24744,210.17212 c 0,1.325 -1.074,2.4 -2.4,2.4 -1.325,0 -2.4,-1.075 -2.4,-2.4 0,-1.325 1.075,-2.4 2.4,-2.4 1.326,0 2.4,1.075 2.4,2.4"
         style="fill:none;stroke:#000000;stroke-width:0.75;stroke-linecap:round;stroke-linejoin:round;stroke-miterlimit:10;stroke-dasharray:none;stroke-opacity:1"
         id="path560-9-3"
         inkscape:connector-curvature="0" /><path
         d="m 803.24744,241.32212 c 0,1.325 -1.074,2.4 -2.4,2.4 -1.325,0 -2.4,-1.075 -2.4,-2.4 0,-1.325 1.075,-2.4 2.4,-2.4 1.326,0 2.4,1.075 2.4,2.4"
         style="fill:none;stroke:#000000;stroke-width:0.75;stroke-linecap:round;stroke-linejoin:round;stroke-miterlimit:10;stroke-dasharray:none;stroke-opacity:1"
         id="path562-7-0"
         inkscape:connector-curvature="0" /></g><g
       id="g7025"
       transform="translate(6.581631,-11.2)"><path
         d="m 930.93338,279.57017 0,27.43879 43.2451,0 0,-40.09909 -43.2451,0 0,12.6603"
         style="fill:none;stroke:#000000;stroke-width:0.95509219;stroke-linecap:round;stroke-linejoin:round;stroke-miterlimit:10;stroke-dasharray:none;stroke-opacity:1"
         id="path58-6-7"
         inkscape:connector-curvature="0" /><path
         sodipodi:nodetypes="cc"
         d="m 952.55103,266.80733 0,-54.47458"
         style="fill:none;stroke:#000000;stroke-width:0.75;stroke-linecap:round;stroke-linejoin:round;stroke-miterlimit:10;stroke-dasharray:none;stroke-opacity:1"
         id="path64-8-3"
         inkscape:connector-curvature="0" /><path
         sodipodi:nodetypes="cc"
         d="m 952.55103,307.4351 0,20.59223"
         style="fill:none;stroke:#000000;stroke-width:0.75;stroke-linecap:round;stroke-linejoin:round;stroke-miterlimit:10;stroke-dasharray:none;stroke-opacity:1"
         id="path70-2-9"
         inkscape:connector-curvature="0" /><path
         d="m 930.83083,212.25733 43.4502,0"
         style="fill:none;stroke:#000000;stroke-width:0.75;stroke-linecap:round;stroke-linejoin:round;stroke-miterlimit:10;stroke-dasharray:none;stroke-opacity:1"
         id="path76-0-0"
         inkscape:connector-curvature="0" /><path
         d="m 930.83083,328.02733 43.4502,0"
         style="fill:none;stroke:#000000;stroke-width:0.75;stroke-linecap:round;stroke-linejoin:round;stroke-miterlimit:10;stroke-dasharray:none;stroke-opacity:1"
         id="path82-9-6"
         inkscape:connector-curvature="0" /><path
         d="m 955.55103,274.57733 c 0,1.656 -1.343,3 -3,3 -1.656,0 -3,-1.344 -3,-3 0,-1.657 1.344,-3 3,-3 1.657,0 3,1.343 3,3"
         style="fill:#000000;fill-opacity:1;fill-rule:nonzero;stroke:none"
         id="path88-5-4"
         inkscape:connector-curvature="0" /><path
         d="m 954.72603,342.81051 c 0,1.325 -1.074,2.4 -2.4,2.4 -1.325,0 -2.4,-1.075 -2.4,-2.4 0,-1.325 1.075,-2.4 2.4,-2.4 1.326,0 2.4,1.075 2.4,2.4"
         style="fill:none;stroke:#000000;stroke-width:0.75;stroke-linecap:round;stroke-linejoin:round;stroke-miterlimit:10;stroke-dasharray:none;stroke-opacity:1"
         id="path556-6-2-8"
         inkscape:connector-curvature="0" /><path
         d="m 954.72603,331.65051 c 0,1.325 -1.074,2.4 -2.4,2.4 -1.325,0 -2.4,-1.075 -2.4,-2.4 0,-1.326 1.075,-2.4 2.4,-2.4 1.326,0 2.4,1.074 2.4,2.4"
         style="fill:none;stroke:#000000;stroke-width:0.75;stroke-linecap:round;stroke-linejoin:round;stroke-miterlimit:10;stroke-dasharray:none;stroke-opacity:1"
         id="path558-7-5-2"
         inkscape:connector-curvature="0" /><path
         d="m 954.72603,335.09051 c 0,1.325 -1.074,2.4 -2.4,2.4 -1.325,0 -2.4,-1.075 -2.4,-2.4 0,-1.325 1.075,-2.4 2.4,-2.4 1.326,0 2.4,1.075 2.4,2.4"
         style="fill:none;stroke:#000000;stroke-width:0.75;stroke-linecap:round;stroke-linejoin:round;stroke-miterlimit:10;stroke-dasharray:none;stroke-opacity:1"
         id="path560-9-3-3"
         inkscape:connector-curvature="0" /></g><text
       xml:space="preserve"
       style="font-style:normal;font-weight:normal;font-size:20px;line-height:94.99999881%;font-family:sans-serif;letter-spacing:0px;word-spacing:0px;fill:#000000;fill-opacity:1;stroke:none;stroke-width:1px;stroke-linecap:butt;stroke-linejoin:miter;stroke-opacity:1"
       x="238.79724"
       y="426.27414"
       id="text4556-16"
       sodipodi:linespacing="94.999999%"
       transform="matrix(0,1,1,0,0,0)"><tspan
         sodipodi:role="line"
         x="238.79724"
         y="426.27414"
         id="tspan4560-3"
         style="font-style:normal;font-variant:normal;font-weight:normal;font-stretch:normal;line-height:94.99999881%;font-family:sans-serif;-inkscape-font-specification:sans-serif;text-align:center;text-anchor:middle">Distribution of AUC</tspan><tspan
         sodipodi:role="line"
         x="238.79724"
         y="445.27414"
         style="font-style:normal;font-variant:normal;font-weight:normal;font-stretch:normal;line-height:94.99999881%;font-family:sans-serif;-inkscape-font-specification:sans-serif;text-align:center;text-anchor:middle"
         id="tspan4395">at 100% FPR (%)</tspan></text>
<text
       xml:space="preserve"
       style="font-style:normal;font-weight:normal;font-size:20px;line-height:94.99999881%;font-family:sans-serif;letter-spacing:0px;word-spacing:0px;fill:#000000;fill-opacity:1;stroke:none;stroke-width:1px;stroke-linecap:butt;stroke-linejoin:miter;stroke-opacity:1"
       x="783.78351"
       y="32.43528"
       id="text4556-16-2"
       sodipodi:linespacing="94.999999%"
       transform="scale(1,-1)"><tspan
         sodipodi:role="line"
         x="783.78351"
         y="32.43528"
         id="tspan4560-3-6"
         style="font-style:normal;font-variant:normal;font-weight:normal;font-stretch:normal;line-height:94.99999881%;font-family:sans-serif;-inkscape-font-specification:sans-serif">HINT HMM Topologies</tspan></text>
<text
       xml:space="preserve"
       style="font-style:normal;font-weight:normal;font-size:20px;line-height:100%;font-family:sans-serif;letter-spacing:0px;word-spacing:0px;fill:#000000;fill-opacity:1;stroke:none;stroke-width:1px;stroke-linecap:butt;stroke-linejoin:miter;stroke-opacity:1"
       x="1236.7152"
       y="-60.974075"
       id="text4556-1-5"
       sodipodi:linespacing="100%"
       transform="scale(1,-1)"><tspan
         sodipodi:role="line"
         x="1236.7152"
         y="-60.974075"
         id="tspan4560-97-4"
         style="line-height:100%;text-align:center;text-anchor:middle">PWM</tspan><tspan
         sodipodi:role="line"
         x="1236.7152"
         y="-40.974075"
         id="tspan4263"
         style="line-height:100%;text-align:center;text-anchor:middle">bitscore</tspan></text>
<path
       inkscape:connector-curvature="0"
       id="path58-6-3-8"
       style="fill:none;stroke:#000000;stroke-width:0.75040001;stroke-linecap:round;stroke-linejoin:round;stroke-miterlimit:10;stroke-dasharray:none;stroke-opacity:1"
       d="m 1215.4601,183.47316 0,25.23383 43.2626,0 0,-36.87677 -43.2626,0 0,11.64294" /><path
       inkscape:connector-curvature="0"
       id="path64-8-4-0"
       style="fill:none;stroke:#000000;stroke-width:0.75;stroke-linecap:round;stroke-linejoin:round;stroke-miterlimit:10;stroke-dasharray:none;stroke-opacity:1"
       d="m 1237.0914,171.57505 0,-28.88753"
       sodipodi:nodetypes="cc" /><path
       inkscape:connector-curvature="0"
       id="path70-2-4-7"
       style="fill:none;stroke:#000000;stroke-width:0.75;stroke-linecap:round;stroke-linejoin:round;stroke-miterlimit:10;stroke-dasharray:none;stroke-opacity:1"
       d="m 1237.0914,208.8412 0,27.02361"
       sodipodi:nodetypes="cc" /><path
       inkscape:connector-curvature="0"
       id="path76-0-9-9"
       style="fill:none;stroke:#000000;stroke-width:0.75;stroke-linecap:round;stroke-linejoin:round;stroke-miterlimit:10;stroke-dasharray:none;stroke-opacity:1"
       d="m 1215.3663,142.73967 43.4502,0" /><path
       inkscape:connector-curvature="0"
       id="path82-9-4-2"
       style="fill:none;stroke:#000000;stroke-width:0.75;stroke-linecap:round;stroke-linejoin:round;stroke-miterlimit:10;stroke-dasharray:none;stroke-opacity:1"
       d="m 1215.3663,235.97727 43.4502,0" /><path
       inkscape:connector-curvature="0"
       id="path88-5-7-9"
       style="fill:#000000;fill-opacity:1;fill-rule:nonzero;stroke:none"
       d="m 1240.0914,179.32727 c 0,1.656 -1.343,3 -3,3 -1.656,0 -3,-1.344 -3,-3 0,-1.657 1.344,-3 3,-3 1.657,0 3,1.343 3,3" /><path
       inkscape:connector-curvature="0"
       id="path556-6-2-9"
       style="fill:none;stroke:#000000;stroke-width:0.75;stroke-linecap:round;stroke-linejoin:round;stroke-miterlimit:10;stroke-dasharray:none;stroke-opacity:1"
       d="m 1239.4914,106.1268 c 0,1.325 -1.074,2.4 -2.4,2.4 -1.3251,0 -2.4,-1.075 -2.4,-2.4 0,-1.325 1.075,-2.4 2.4,-2.4 1.326,0 2.4,1.075 2.4,2.4" /><path
       inkscape:connector-curvature="0"
       id="path558-7-5-1"
       style="fill:none;stroke:#000000;stroke-width:0.75;stroke-linecap:round;stroke-linejoin:round;stroke-miterlimit:10;stroke-dasharray:none;stroke-opacity:1"
       d="m 1239.4914,91.7668 c 0,1.325 -1.074,2.4 -2.4,2.4 -1.3251,0 -2.4,-1.075 -2.4,-2.4 0,-1.326 1.075,-2.4 2.4,-2.4 1.326,0 2.4,1.074 2.4,2.4" /><path
       inkscape:connector-curvature="0"
       id="path560-9-3-9"
       style="fill:none;stroke:#000000;stroke-width:0.75;stroke-linecap:round;stroke-linejoin:round;stroke-miterlimit:10;stroke-dasharray:none;stroke-opacity:1"
       d="m 1239.4914,95.2068 c 0,1.325 -1.074,2.4 -2.4,2.4 -1.3251,0 -2.4,-1.075 -2.4,-2.4 0,-1.325 1.075,-2.4 2.4,-2.4 1.326,0 2.4,1.075 2.4,2.4" /><path
       inkscape:connector-curvature="0"
       id="path562-7-0-6"
       style="fill:none;stroke:#000000;stroke-width:0.75;stroke-linecap:round;stroke-linejoin:round;stroke-miterlimit:10;stroke-dasharray:none;stroke-opacity:1"
       d="m 1239.4914,126.3568 c 0,1.325 -1.074,2.4 -2.4,2.4 -1.3251,0 -2.4,-1.075 -2.4,-2.4 0,-1.325 1.075,-2.4 2.4,-2.4 1.326,0 2.4,1.075 2.4,2.4" /><path
       inkscape:connector-curvature="0"
       id="path556-6-2-9-1"
       style="fill:none;stroke:#000000;stroke-width:0.75;stroke-linecap:round;stroke-linejoin:round;stroke-miterlimit:10;stroke-dasharray:none;stroke-opacity:1"
       d="m 1239.4914,114.88451 c 0,1.325 -1.074,2.4 -2.4,2.4 -1.3251,0 -2.4,-1.075 -2.4,-2.4 0,-1.325 1.075,-2.4 2.4,-2.4 1.326,0 2.4,1.075 2.4,2.4" /><path
       inkscape:connector-curvature="0"
       id="path558-7-5-1-3"
       style="fill:none;stroke:#000000;stroke-width:0.75;stroke-linecap:round;stroke-linejoin:round;stroke-miterlimit:10;stroke-dasharray:none;stroke-opacity:1"
       d="m 1239.4914,100.52451 c 0,1.325 -1.074,2.4 -2.4,2.4 -1.3251,0 -2.4,-1.075 -2.4,-2.4 0,-1.326 1.075,-2.4 2.4,-2.4 1.326,0 2.4,1.074 2.4,2.4" /><path
       inkscape:connector-curvature="0"
       id="path560-9-3-9-8"
       style="fill:none;stroke:#000000;stroke-width:0.75;stroke-linecap:round;stroke-linejoin:round;stroke-miterlimit:10;stroke-dasharray:none;stroke-opacity:1"
       d="m 1239.4914,103.96451 c 0,1.325 -1.074,2.4 -2.4,2.4 -1.3251,0 -2.4,-1.075 -2.4,-2.4 0,-1.325 1.075,-2.4 2.4,-2.4 1.326,0 2.4,1.075 2.4,2.4" /><path
       inkscape:connector-curvature="0"
       id="path562-7-0-6-0"
       style="fill:none;stroke:#000000;stroke-width:0.75;stroke-linecap:round;stroke-linejoin:round;stroke-miterlimit:10;stroke-dasharray:none;stroke-opacity:1"
       d="m 1239.4914,135.11451 c 0,1.325 -1.074,2.4 -2.4,2.4 -1.3251,0 -2.4,-1.075 -2.4,-2.4 0,-1.325 1.075,-2.4 2.4,-2.4 1.326,0 2.4,1.075 2.4,2.4" /><path
       inkscape:connector-curvature="0"
       id="path556-6-2-9-14"
       style="fill:none;stroke:#000000;stroke-width:0.75;stroke-linecap:round;stroke-linejoin:round;stroke-miterlimit:10;stroke-dasharray:none;stroke-opacity:1"
       d="m 1239.4914,117.40146 c 0,1.325 -1.074,2.4 -2.4,2.4 -1.3251,0 -2.4,-1.075 -2.4,-2.4 0,-1.325 1.075,-2.4 2.4,-2.4 1.326,0 2.4,1.075 2.4,2.4" /><path
       inkscape:connector-curvature="0"
       id="path558-7-5-1-8"
       style="fill:none;stroke:#000000;stroke-width:0.75;stroke-linecap:round;stroke-linejoin:round;stroke-miterlimit:10;stroke-dasharray:none;stroke-opacity:1"
       d="m 1239.4914,103.04146 c 0,1.325 -1.074,2.4 -2.4,2.4 -1.3251,0 -2.4,-1.075 -2.4,-2.4 0,-1.326 1.075,-2.4 2.4,-2.4 1.326,0 2.4,1.074 2.4,2.4" /><path
       inkscape:connector-curvature="0"
       id="path560-9-3-9-4"
       style="fill:none;stroke:#000000;stroke-width:0.75;stroke-linecap:round;stroke-linejoin:round;stroke-miterlimit:10;stroke-dasharray:none;stroke-opacity:1"
       d="m 1239.4914,106.48146 c 0,1.325 -1.074,2.4 -2.4,2.4 -1.3251,0 -2.4,-1.075 -2.4,-2.4 0,-1.325 1.075,-2.4 2.4,-2.4 1.326,0 2.4,1.075 2.4,2.4" /><path
       inkscape:connector-curvature="0"
       id="path562-7-0-6-3"
       style="fill:none;stroke:#000000;stroke-width:0.75;stroke-linecap:round;stroke-linejoin:round;stroke-miterlimit:10;stroke-dasharray:none;stroke-opacity:1"
       d="m 1239.4914,137.63146 c 0,1.325 -1.074,2.4 -2.4,2.4 -1.3251,0 -2.4,-1.075 -2.4,-2.4 0,-1.325 1.075,-2.4 2.4,-2.4 1.326,0 2.4,1.075 2.4,2.4" /><path
       inkscape:connector-curvature="0"
       id="path556-6-2-9-3"
       style="fill:none;stroke:#000000;stroke-width:0.75;stroke-linecap:round;stroke-linejoin:round;stroke-miterlimit:10;stroke-dasharray:none;stroke-opacity:1"
       d="m 1239.4914,107.10485 c 0,1.325 -1.074,2.4 -2.4,2.4 -1.3251,0 -2.4,-1.075 -2.4,-2.4 0,-1.325 1.075,-2.4 2.4,-2.4 1.326,0 2.4,1.075 2.4,2.4" /><path
       inkscape:connector-curvature="0"
       id="path558-7-5-1-0"
       style="fill:none;stroke:#000000;stroke-width:0.75;stroke-linecap:round;stroke-linejoin:round;stroke-miterlimit:10;stroke-dasharray:none;stroke-opacity:1"
       d="m 1239.4914,92.744854 c 0,1.324996 -1.074,2.399996 -2.4,2.399996 -1.3251,0 -2.4,-1.075 -2.4,-2.399996 0,-1.326 1.075,-2.4 2.4,-2.4 1.326,0 2.4,1.074 2.4,2.4" /><path
       inkscape:connector-curvature="0"
       id="path560-9-3-9-84"
       style="fill:none;stroke:#000000;stroke-width:0.75;stroke-linecap:round;stroke-linejoin:round;stroke-miterlimit:10;stroke-dasharray:none;stroke-opacity:1"
       d="m 1239.4914,96.18485 c 0,1.325 -1.074,2.4 -2.4,2.4 -1.3251,0 -2.4,-1.075 -2.4,-2.4 0,-1.325 1.075,-2.4 2.4,-2.4 1.326,0 2.4,1.075 2.4,2.4" /><path
       inkscape:connector-curvature="0"
       id="path562-7-0-6-1"
       style="fill:none;stroke:#000000;stroke-width:0.75;stroke-linecap:round;stroke-linejoin:round;stroke-miterlimit:10;stroke-dasharray:none;stroke-opacity:1"
       d="m 1239.4914,127.33485 c 0,1.325 -1.074,2.4 -2.4,2.4 -1.3251,0 -2.4,-1.075 -2.4,-2.4 0,-1.325 1.075,-2.4 2.4,-2.4 1.326,0 2.4,1.075 2.4,2.4" /></g></svg>